M48
; DRILL file KiCad 10.0.5 date 2026-09-29T19:03:53
; FORMAT={-:-/ absolute / metric / decimal}
; #@! TF.CreationDate,2026-09-29T19:03:53+05:00
; #@! TF.GenerationSoftware,Kicad,Pcbnew,10.0.5
; #@! TF.FileFunction,NonPlated,1,2,NPTH
FMAT,2
METRIC
; #@! TA.AperFunction,NonPlated,NPTH,ComponentDrill
T1C1.700
; #@! TA.AperFunction,NonPlated,NPTH,ComponentDrill
T2C1.850
; #@! TA.AperFunction,NonPlated,NPTH,ComponentDrill
T3C2.100
; #@! TA.AperFunction,NonPlated,NPTH,ComponentDrill
T4C2.200
; #@! TA.AperFunction,NonPlated,NPTH,ComponentDrill
T5C3.050
; #@! TA.AperFunction,NonPlated,NPTH,ComponentDrill
T6C4.000
%
G90
G05
T1
X33.02Y-38.1
X33.02Y-57.15
X35.279Y-133.35
X37.783Y-76.2
X40.065Y-95.25
X43.18Y-38.1
X43.18Y-57.15
X44.813Y-114.3
X45.439Y-133.35
X47.943Y-76.2
X50.225Y-95.25
X52.07Y-57.15
X54.973Y-114.3
X59.102Y-133.35
X61.595Y-76.2
X62.23Y-57.15
X66.268Y-95.25
X69.262Y-133.35
X71.12Y-38.1
X71.12Y-57.15
X71.755Y-76.2
X75.904Y-114.3
X76.428Y-95.25
X80.645Y-76.2
X81.28Y-38.1
X81.28Y-57.15
X82.866Y-133.35
X85.318Y-95.25
X86.064Y-114.3
X90.17Y-38.1
X90.17Y-57.15
X90.805Y-76.2
X93.026Y-133.35
X94.954Y-114.3
X95.478Y-95.25
X99.695Y-76.2
X100.33Y-38.1
X100.33Y-57.15
X104.368Y-95.25
X105.114Y-114.3
X109.22Y-38.1
X109.22Y-57.15
X109.855Y-76.2
X114.004Y-114.3
X114.528Y-95.25
X118.745Y-76.2
X119.38Y-38.1
X119.38Y-57.15
X123.418Y-95.25
X124.164Y-114.3
X128.27Y-38.1
X128.27Y-57.15
X128.905Y-76.2
X133.054Y-114.3
X133.578Y-95.25
X137.795Y-76.2
X138.43Y-38.1
X138.43Y-57.15
X142.468Y-95.25
X143.214Y-114.3
X147.32Y-57.15
X147.955Y-76.2
X152.104Y-114.3
X152.628Y-95.25
X154.367Y-133.35
X156.845Y-38.1
X156.845Y-76.2
X157.48Y-57.15
X161.518Y-95.25
X162.264Y-114.3
X164.527Y-133.35
X166.37Y-57.15
X167.005Y-38.1
X167.005Y-76.2
X171.154Y-114.3
X171.678Y-95.25
X175.895Y-38.1
X175.895Y-76.2
X176.53Y-57.15
X180.568Y-95.25
X181.314Y-114.3
X185.42Y-57.15
X186.055Y-38.1
X186.055Y-76.2
X190.204Y-114.3
X190.728Y-95.25
X194.945Y-38.1
X194.945Y-76.2
X195.58Y-57.15
X199.618Y-95.25
X200.364Y-114.3
X204.47Y-57.15
X205.105Y-38.1
X205.105Y-76.2
X209.254Y-114.3
X209.778Y-95.25
X213.995Y-38.1
X213.995Y-76.2
X214.63Y-57.15
X218.668Y-95.25
X219.414Y-114.3
X223.52Y-57.15
X224.155Y-38.1
X224.155Y-76.2
X225.823Y-133.35
X228.304Y-114.3
X228.828Y-95.25
X233.045Y-76.2
X233.68Y-57.15
X235.983Y-133.35
X237.718Y-95.25
X238.464Y-114.3
X242.57Y-38.1
X242.57Y-57.15
X243.205Y-76.2
X247.354Y-114.3
X247.878Y-95.25
X249.615Y-133.35
X252.095Y-76.2
X252.73Y-38.1
X252.73Y-57.15
X256.768Y-95.25
X257.514Y-114.3
X259.775Y-133.35
X261.62Y-38.1
X261.62Y-57.15
X262.255Y-76.2
X266.928Y-95.25
X271.145Y-76.2
X271.78Y-38.1
X271.78Y-57.15
X273.423Y-133.35
X280.67Y-38.1
X281.305Y-76.2
X283.05Y-114.3
X283.583Y-133.35
X287.809Y-95.25
X290.195Y-57.15
X290.83Y-38.1
X293.21Y-114.3
X294.989Y-76.2
X297.354Y-133.35
X297.969Y-95.25
X299.72Y-38.1
X300.355Y-57.15
X305.149Y-76.2
X307.514Y-133.35
X309.88Y-38.1
X318.77Y-38.1
X318.77Y-57.15
X318.77Y-76.2
X318.77Y-133.35
X328.93Y-38.1
X328.93Y-57.15
X328.93Y-76.2
X328.93Y-133.35
X337.82Y-38.1
X337.82Y-57.15
X337.82Y-76.196
X337.82Y-114.3
X337.82Y-133.35
X347.98Y-38.1
X347.98Y-57.15
X347.98Y-76.196
X347.98Y-114.3
X347.98Y-133.35
X356.87Y-38.1
X356.87Y-57.15
X356.87Y-76.2
X356.87Y-133.35
X367.03Y-38.1
X367.03Y-57.15
X367.03Y-76.2
X367.03Y-133.35
X375.92Y-38.1
X375.92Y-57.15
X375.92Y-76.2
X375.92Y-95.25
X375.92Y-114.3
X385.445Y-133.35
X386.08Y-38.1
X386.08Y-57.15
X386.08Y-76.2
X386.08Y-95.25
X386.08Y-114.3
X394.97Y-38.1
X394.97Y-57.15
X394.97Y-76.2
X394.97Y-95.25
X394.97Y-114.3
X395.605Y-133.35
X405.13Y-38.1
X405.13Y-57.15
X405.13Y-76.2
X405.13Y-95.25
X405.13Y-114.3
X414.02Y-38.1
X414.02Y-57.15
X414.02Y-76.2
X414.02Y-95.25
X414.02Y-114.3
X414.02Y-133.35
X424.18Y-38.1
X424.18Y-57.15
X424.18Y-76.2
X424.18Y-95.25
X424.18Y-114.3
X424.18Y-133.35
X433.07Y-38.1
X433.07Y-57.15
X438.15Y-80.645
X438.15Y-90.805
X438.15Y-118.745
X438.15Y-128.905
X443.23Y-38.1
X443.23Y-57.15
T2
X27.0Y-16.215
X27.0Y-21.065
T3
X26.26Y-43.1
X26.26Y-146.143
X82.19Y-9.5
X451.785Y-30.157
X451.785Y-149.95
T4
X23.97Y-15.915
X23.97Y-21.365
T5
X37.993Y-107.3
X61.793Y-107.3
X109.447Y-126.35
X209.447Y-126.35
X276.23Y-107.3
X280.989Y-88.25
X300.03Y-107.3
X304.789Y-88.25
X378.625Y-126.35
X402.425Y-126.35
X431.15Y-73.825
X431.15Y-97.625
X431.15Y-111.925
X431.15Y-135.725
T6
X37.993Y-122.54
X38.1Y-38.1
X38.1Y-57.15
X40.359Y-133.35
X42.863Y-76.2
X45.145Y-95.25
X49.893Y-114.3
X57.15Y-57.15
X61.793Y-122.54
X64.182Y-133.35
X66.675Y-76.2
X71.348Y-95.25
X76.2Y-38.1
X76.2Y-57.15
X80.984Y-114.3
X85.725Y-76.2
X87.946Y-133.35
X90.398Y-95.25
X95.25Y-38.1
X95.25Y-57.15
X100.034Y-114.3
X104.775Y-76.2
X109.447Y-141.59
X109.448Y-95.25
X114.3Y-38.1
X114.3Y-57.15
X119.084Y-114.3
X123.825Y-76.2
X128.498Y-95.25
X133.35Y-38.1
X133.35Y-57.15
X138.134Y-114.3
X142.875Y-76.2
X147.548Y-95.25
X152.4Y-57.15
X157.184Y-114.3
X159.447Y-133.35
X161.925Y-38.1
X161.925Y-76.2
X166.598Y-95.25
X171.45Y-57.15
X176.234Y-114.3
X180.975Y-38.1
X180.975Y-76.2
X185.648Y-95.25
X190.5Y-57.15
X195.284Y-114.3
X200.025Y-38.1
X200.025Y-76.2
X204.698Y-95.25
X209.447Y-141.59
X209.55Y-57.15
X214.334Y-114.3
X219.075Y-38.1
X219.075Y-76.2
X223.748Y-95.25
X228.6Y-57.15
X230.903Y-133.35
X233.384Y-114.3
X238.125Y-76.2
X242.798Y-95.25
X247.65Y-38.1
X247.65Y-57.15
X252.434Y-114.3
X254.695Y-133.35
X257.175Y-76.2
X261.848Y-95.25
X266.7Y-38.1
X266.7Y-57.15
X276.225Y-76.2
X276.23Y-122.54
X278.503Y-133.35
X280.989Y-103.49
X285.75Y-38.1
X288.13Y-114.3
X292.889Y-95.25
X295.275Y-57.15
X300.03Y-122.54
X300.069Y-76.2
X302.434Y-133.35
X304.789Y-103.49
X304.8Y-38.1
X323.85Y-38.1
X323.85Y-57.15
X323.85Y-76.2
X323.85Y-133.35
X342.9Y-38.1
X342.9Y-57.15
X342.9Y-76.196
X342.9Y-114.3
X342.9Y-133.35
X361.95Y-38.1
X361.95Y-57.15
X361.95Y-76.2
X361.95Y-133.35
X378.625Y-141.59
X381.0Y-38.1
X381.0Y-57.15
X381.0Y-76.2
X381.0Y-95.25
X381.0Y-114.3
X390.525Y-133.35
X400.05Y-38.1
X400.05Y-57.15
X400.05Y-76.2
X400.05Y-95.25
X400.05Y-114.3
X402.425Y-141.59
X419.1Y-38.1
X419.1Y-57.15
X419.1Y-76.2
X419.1Y-95.25
X419.1Y-114.3
X419.1Y-133.35
X438.15Y-38.1
X438.15Y-57.15
X438.15Y-85.725
X438.15Y-123.825
X446.39Y-73.825
X446.39Y-97.625
X446.39Y-111.925
X446.39Y-135.725
M30
