%TF.GenerationSoftware,KiCad,Pcbnew,10.0.5*%
%TF.CreationDate,2026-10-05T21:06:53+05:00*%
%TF.ProjectId,custom keyboard,63757374-6f6d-4206-9b65-79626f617264,rev?*%
%TF.SameCoordinates,Original*%
%TF.FileFunction,Copper,L2,Bot*%
%TF.FilePolarity,Positive*%
%FSLAX46Y46*%
G04 Gerber Fmt 4.6, Leading zero omitted, Abs format (unit mm)*
G04 Created by KiCad (PCBNEW 10.0.5) date 2026-10-05 21:06:53*
%MOMM*%
%LPD*%
G01*
G04 APERTURE LIST*
G04 Aperture macros list*
%AMRoundRect*
0 Rectangle with rounded corners*
0 $1 Rounding radius*
0 $2 $3 $4 $5 $6 $7 $8 $9 X,Y pos of 4 corners*
0 Add a 4 corners polygon primitive as box body*
4,1,4,$2,$3,$4,$5,$6,$7,$8,$9,$2,$3,0*
0 Add four circle primitives for the rounded corners*
1,1,$1+$1,$2,$3*
1,1,$1+$1,$4,$5*
1,1,$1+$1,$6,$7*
1,1,$1+$1,$8,$9*
0 Add four rect primitives between the rounded corners*
20,1,$1+$1,$2,$3,$4,$5,0*
20,1,$1+$1,$4,$5,$6,$7,0*
20,1,$1+$1,$6,$7,$8,$9,0*
20,1,$1+$1,$8,$9,$2,$3,0*%
%AMFreePoly0*
4,1,37,0.800000,0.796148,0.878414,0.796148,1.032228,0.765552,1.177117,0.705537,1.307515,0.618408,1.418408,0.507515,1.505537,0.377117,1.565552,0.232228,1.596148,0.078414,1.596148,-0.078414,1.565552,-0.232228,1.505537,-0.377117,1.418408,-0.507515,1.307515,-0.618408,1.177117,-0.705537,1.032228,-0.765552,0.878414,-0.796148,0.800000,-0.796148,0.800000,-0.800000,-1.400000,-0.800000,
-1.403843,-0.796157,-1.439018,-0.796157,-1.511114,-0.766294,-1.566294,-0.711114,-1.596157,-0.639018,-1.596157,-0.603843,-1.600000,-0.600000,-1.600000,0.600000,-1.596157,0.603843,-1.596157,0.639018,-1.566294,0.711114,-1.511114,0.766294,-1.439018,0.796157,-1.403843,0.796157,-1.400000,0.800000,0.800000,0.800000,0.800000,0.796148,0.800000,0.796148,$1*%
%AMFreePoly1*
4,1,37,1.403843,0.796157,1.439018,0.796157,1.511114,0.766294,1.566294,0.711114,1.596157,0.639018,1.596157,0.603843,1.600000,0.600000,1.600000,-0.600000,1.596157,-0.603843,1.596157,-0.639018,1.566294,-0.711114,1.511114,-0.766294,1.439018,-0.796157,1.403843,-0.796157,1.400000,-0.800000,-0.800000,-0.800000,-0.800000,-0.796148,-0.878414,-0.796148,-1.032228,-0.765552,-1.177117,-0.705537,
-1.307515,-0.618408,-1.418408,-0.507515,-1.505537,-0.377117,-1.565552,-0.232228,-1.596148,-0.078414,-1.596148,0.078414,-1.565552,0.232228,-1.505537,0.377117,-1.418408,0.507515,-1.307515,0.618408,-1.177117,0.705537,-1.032228,0.765552,-0.878414,0.796148,-0.800000,0.796148,-0.800000,0.800000,1.400000,0.800000,1.403843,0.796157,1.403843,0.796157,$1*%
%AMFreePoly2*
4,1,37,0.603843,0.796157,0.639018,0.796157,0.711114,0.766294,0.766294,0.711114,0.796157,0.639018,0.796157,0.603843,0.800000,0.600000,0.800000,-0.600000,0.796157,-0.603843,0.796157,-0.639018,0.766294,-0.711114,0.711114,-0.766294,0.639018,-0.796157,0.603843,-0.796157,0.600000,-0.800000,0.000000,-0.800000,0.000000,-0.796148,-0.078414,-0.796148,-0.232228,-0.765552,-0.377117,-0.705537,
-0.507515,-0.618408,-0.618408,-0.507515,-0.705537,-0.377117,-0.765552,-0.232228,-0.796148,-0.078414,-0.796148,0.078414,-0.765552,0.232228,-0.705537,0.377117,-0.618408,0.507515,-0.507515,0.618408,-0.377117,0.705537,-0.232228,0.765552,-0.078414,0.796148,0.000000,0.796148,0.000000,0.800000,0.600000,0.800000,0.603843,0.796157,0.603843,0.796157,$1*%
%AMFreePoly3*
4,1,37,0.000000,0.796148,0.078414,0.796148,0.232228,0.765552,0.377117,0.705537,0.507515,0.618408,0.618408,0.507515,0.705537,0.377117,0.765552,0.232228,0.796148,0.078414,0.796148,-0.078414,0.765552,-0.232228,0.705537,-0.377117,0.618408,-0.507515,0.507515,-0.618408,0.377117,-0.705537,0.232228,-0.765552,0.078414,-0.796148,0.000000,-0.796148,0.000000,-0.800000,-0.600000,-0.800000,
-0.603843,-0.796157,-0.639018,-0.796157,-0.711114,-0.766294,-0.766294,-0.711114,-0.796157,-0.639018,-0.796157,-0.603843,-0.800000,-0.600000,-0.800000,0.600000,-0.796157,0.603843,-0.796157,0.639018,-0.766294,0.711114,-0.711114,0.766294,-0.639018,0.796157,-0.603843,0.796157,-0.600000,0.800000,0.000000,0.800000,0.000000,0.796148,0.000000,0.796148,$1*%
G04 Aperture macros list end*
%TA.AperFunction,ComponentPad*%
%ADD10RoundRect,0.250000X0.550000X-0.550000X0.550000X0.550000X-0.550000X0.550000X-0.550000X-0.550000X0*%
%TD*%
%TA.AperFunction,ComponentPad*%
%ADD11C,1.600000*%
%TD*%
%TA.AperFunction,ComponentPad*%
%ADD12C,2.200000*%
%TD*%
%TA.AperFunction,SMDPad,CuDef*%
%ADD13FreePoly0,270.000000*%
%TD*%
%TA.AperFunction,ComponentPad*%
%ADD14RoundRect,0.200000X-0.600000X0.600000X-0.600000X-0.600000X0.600000X-0.600000X0.600000X0.600000X0*%
%TD*%
%TA.AperFunction,SMDPad,CuDef*%
%ADD15RoundRect,0.800000X-0.000010X0.800000X-0.000010X-0.800000X0.000010X-0.800000X0.000010X0.800000X0*%
%TD*%
%TA.AperFunction,SMDPad,CuDef*%
%ADD16FreePoly1,270.000000*%
%TD*%
%TA.AperFunction,ComponentPad*%
%ADD17FreePoly2,270.000000*%
%TD*%
%TA.AperFunction,ComponentPad*%
%ADD18FreePoly3,270.000000*%
%TD*%
%TA.AperFunction,ViaPad*%
%ADD19C,0.600000*%
%TD*%
%TA.AperFunction,Conductor*%
%ADD20C,0.200000*%
%TD*%
G04 APERTURE END LIST*
D10*
%TO.P,D29,1,K_1*%
%TO.N,ROW1*%
X200025000Y-66675000D03*
D11*
%TO.P,D29,2,A_2*%
%TO.N,Net-(D29-A)*%
X200025000Y-59055000D03*
%TD*%
D10*
%TO.P,D66,1,K_1*%
%TO.N,ROW3*%
X118972512Y-104775000D03*
D11*
%TO.P,D66,2,A_2*%
%TO.N,Net-(D66-A)*%
X118972512Y-97155000D03*
%TD*%
D12*
%TO.P,SW79,1,1_1*%
%TO.N,COL0*%
X52433209Y-109220000D03*
%TO.P,SW79,2,2_2*%
%TO.N,Net-(D79-A)*%
X46083209Y-111760000D03*
%TD*%
D10*
%TO.P,D49,1,K_1*%
%TO.N,ROW2*%
X190500000Y-85725000D03*
D11*
%TO.P,D49,2,A_2*%
%TO.N,Net-(D49-A)*%
X190500000Y-78105000D03*
%TD*%
D12*
%TO.P,SW41,1,1_1*%
%TO.N,COL10*%
X440690000Y-52070000D03*
%TO.P,SW41,2,2_2*%
%TO.N,Net-(D41-A)*%
X434340000Y-54610000D03*
%TD*%
%TO.P,SW70,1,1_1*%
%TO.N,COL7*%
X188187512Y-90170000D03*
%TO.P,SW70,2,2_2*%
%TO.N,Net-(D70-A)*%
X181837512Y-92710000D03*
%TD*%
%TO.P,SW81,1,1_1*%
%TO.N,COL2*%
X102573651Y-109220000D03*
%TO.P,SW81,2,2_2*%
%TO.N,Net-(D81-A)*%
X96223651Y-111760000D03*
%TD*%
%TO.P,SW68,1,1_1*%
%TO.N,COL5*%
X150087512Y-90170000D03*
%TO.P,SW68,2,2_2*%
%TO.N,Net-(D68-A)*%
X143737512Y-92710000D03*
%TD*%
D10*
%TO.P,D106,1,K_1*%
%TO.N,ROW11*%
X371475000Y-142875000D03*
D11*
%TO.P,D106,2,A_2*%
%TO.N,Net-(D106-A)*%
X371475000Y-135255000D03*
%TD*%
D12*
%TO.P,SW27,1,1_1*%
%TO.N,COL6*%
X154940000Y-52070000D03*
%TO.P,SW27,2,2_2*%
%TO.N,Net-(D27-A)*%
X148590000Y-54610000D03*
%TD*%
D10*
%TO.P,D83,1,K_1*%
%TO.N,ROW4*%
X147658651Y-123825000D03*
D11*
%TO.P,D83,2,A_2*%
%TO.N,Net-(D83-A)*%
X147658651Y-116205000D03*
%TD*%
D10*
%TO.P,D88,1,K_1*%
%TO.N,ROW4*%
X242908651Y-123825000D03*
D11*
%TO.P,D88,2,A_2*%
%TO.N,Net-(D88-A)*%
X242908651Y-116205000D03*
%TD*%
D10*
%TO.P,D37,1,K_1*%
%TO.N,ROW7*%
X371475000Y-66675000D03*
D11*
%TO.P,D37,2,A_2*%
%TO.N,Net-(D37-A)*%
X371475000Y-59055000D03*
%TD*%
D12*
%TO.P,SW89,1,1_1*%
%TO.N,COL0*%
X254973651Y-109220000D03*
%TO.P,SW89,2,2_2*%
%TO.N,Net-(D89-A)*%
X248623651Y-111760000D03*
%TD*%
D10*
%TO.P,D68,1,K_1*%
%TO.N,ROW3*%
X157072512Y-104775000D03*
D11*
%TO.P,D68,2,A_2*%
%TO.N,Net-(D68-A)*%
X157072512Y-97155000D03*
%TD*%
D12*
%TO.P,SW45,1,1_1*%
%TO.N,COL3*%
X107315000Y-71120000D03*
%TO.P,SW45,2,2_2*%
%TO.N,Net-(D45-A)*%
X100965000Y-73660000D03*
%TD*%
D10*
%TO.P,D101,1,K_1*%
%TO.N,ROW5*%
X266700000Y-142875000D03*
D11*
%TO.P,D101,2,A_2*%
%TO.N,Net-(D101-A)*%
X266700000Y-135255000D03*
%TD*%
D12*
%TO.P,SW75,1,1_1*%
%TO.N,COL2*%
X295428934Y-90170000D03*
%TO.P,SW75,2,2_2*%
%TO.N,Net-(D75-A)*%
X289078934Y-92710000D03*
%TD*%
%TO.P,SW111,1,1_1*%
%TO.N,COL0*%
X90485660Y-128270000D03*
%TO.P,SW111,2,2_2*%
%TO.N,Net-(D96-A)*%
X84135660Y-130810000D03*
%TD*%
%TO.P,SW38,1,1_1*%
%TO.N,COL7*%
X383540000Y-52070000D03*
%TO.P,SW38,2,2_2*%
%TO.N,Net-(D38-A)*%
X377190000Y-54610000D03*
%TD*%
%TO.P,SW54,1,1_1*%
%TO.N,COL2*%
X278765000Y-71120000D03*
%TO.P,SW54,2,2_2*%
%TO.N,Net-(D54-A)*%
X272415000Y-73660000D03*
%TD*%
%TO.P,SW53,1,1_1*%
%TO.N,COL1*%
X259715000Y-71120000D03*
%TO.P,SW53,2,2_2*%
%TO.N,Net-(D53-A)*%
X253365000Y-73660000D03*
%TD*%
D10*
%TO.P,D17,1,K_1*%
%TO.N,ROW6*%
X390525000Y-47625000D03*
D11*
%TO.P,D17,2,A_2*%
%TO.N,Net-(D17-A)*%
X390525000Y-40005000D03*
%TD*%
D10*
%TO.P,D62,1,K_1*%
%TO.N,ROW8*%
X447675000Y-85725000D03*
D11*
%TO.P,D62,2,A_2*%
%TO.N,Net-(D62-A)*%
X447675000Y-78105000D03*
%TD*%
D12*
%TO.P,SW67,1,1_1*%
%TO.N,COL4*%
X131037512Y-90170000D03*
%TO.P,SW67,2,2_2*%
%TO.N,Net-(D67-A)*%
X124687512Y-92710000D03*
%TD*%
%TO.P,SW13,1,1_1*%
%TO.N,COL2*%
X307340000Y-33020000D03*
%TO.P,SW13,2,2_2*%
%TO.N,Net-(D13-A)*%
X300990000Y-35560000D03*
%TD*%
D10*
%TO.P,D31,1,K_1*%
%TO.N,ROW1*%
X238125000Y-66675000D03*
D11*
%TO.P,D31,2,A_2*%
%TO.N,Net-(D31-A)*%
X238125000Y-59055000D03*
%TD*%
D12*
%TO.P,SW39,1,1_1*%
%TO.N,COL8*%
X402590000Y-52070000D03*
%TO.P,SW39,2,2_2*%
%TO.N,Net-(D39-A)*%
X396240000Y-54610000D03*
%TD*%
D10*
%TO.P,D19,1,K_1*%
%TO.N,ROW6*%
X428625000Y-47625000D03*
D11*
%TO.P,D19,2,A_2*%
%TO.N,Net-(D19-A)*%
X428625000Y-40005000D03*
%TD*%
D12*
%TO.P,SW10,1,1_1*%
%TO.N,COL9*%
X250190000Y-33020000D03*
%TO.P,SW10,2,2_2*%
%TO.N,Net-(D10-A)*%
X243840000Y-35560000D03*
%TD*%
%TO.P,SW46,1,1_1*%
%TO.N,COL4*%
X126365000Y-71120000D03*
%TO.P,SW46,2,2_2*%
%TO.N,Net-(D46-A)*%
X120015000Y-73660000D03*
%TD*%
D10*
%TO.P,D96,1,K_1*%
%TO.N,ROW5*%
X99851910Y-142875000D03*
D11*
%TO.P,D96,2,A_2*%
%TO.N,Net-(D96-A)*%
X99851910Y-135255000D03*
%TD*%
D12*
%TO.P,SW28,1,1_1*%
%TO.N,COL7*%
X173990000Y-52070000D03*
%TO.P,SW28,2,2_2*%
%TO.N,Net-(D28-A)*%
X167640000Y-54610000D03*
%TD*%
D10*
%TO.P,D85,1,K_1*%
%TO.N,ROW4*%
X185758651Y-123825000D03*
D11*
%TO.P,D85,2,A_2*%
%TO.N,Net-(D85-A)*%
X185758651Y-116205000D03*
%TD*%
D10*
%TO.P,D14,1,K_1*%
%TO.N,ROW6*%
X333375000Y-47625000D03*
D11*
%TO.P,D14,2,A_2*%
%TO.N,Net-(D14-A)*%
X333375000Y-40005000D03*
%TD*%
D12*
%TO.P,SW5,1,1_1*%
%TO.N,COL4*%
X135890000Y-33020000D03*
%TO.P,SW5,2,2_2*%
%TO.N,Net-(D5-A)*%
X129540000Y-35560000D03*
%TD*%
D10*
%TO.P,D21,1,K_1*%
%TO.N,ROW1*%
X47625000Y-66675000D03*
D11*
%TO.P,D21,2,A_2*%
%TO.N,Net-(D21-A)*%
X47625000Y-59055000D03*
%TD*%
D12*
%TO.P,SW88,1,1_1*%
%TO.N,COL9*%
X235923651Y-109220000D03*
%TO.P,SW88,2,2_2*%
%TO.N,Net-(D88-A)*%
X229573651Y-111760000D03*
%TD*%
%TO.P,SW66,1,1_1*%
%TO.N,COL3*%
X111987512Y-90170000D03*
%TO.P,SW66,2,2_2*%
%TO.N,Net-(D66-A)*%
X105637512Y-92710000D03*
%TD*%
%TO.P,SW84,1,1_1*%
%TO.N,COL5*%
X159723651Y-109220000D03*
%TO.P,SW84,2,2_2*%
%TO.N,Net-(D84-A)*%
X153373651Y-111760000D03*
%TD*%
%TO.P,SW42,1,1_1*%
%TO.N,COL0*%
X45402648Y-71120000D03*
%TO.P,SW42,2,2_2*%
%TO.N,Net-(D42-A)*%
X39052648Y-73660000D03*
%TD*%
D10*
%TO.P,D27,1,K_1*%
%TO.N,ROW1*%
X161925000Y-66675000D03*
D11*
%TO.P,D27,2,A_2*%
%TO.N,Net-(D27-A)*%
X161925000Y-59055000D03*
%TD*%
D10*
%TO.P,D55,1,K_1*%
%TO.N,ROW8*%
X314325000Y-85725000D03*
D11*
%TO.P,D55,2,A_2*%
%TO.N,Net-(D55-A)*%
X314325000Y-78105000D03*
%TD*%
D10*
%TO.P,D47,1,K_1*%
%TO.N,ROW2*%
X152400000Y-85725000D03*
D11*
%TO.P,D47,2,A_2*%
%TO.N,Net-(D47-A)*%
X152400000Y-78105000D03*
%TD*%
D12*
%TO.P,SW91,1,1_1*%
%TO.N,COL5*%
X345440000Y-109220000D03*
%TO.P,SW91,2,2_2*%
%TO.N,Net-(D91-A)*%
X339090000Y-111760000D03*
%TD*%
%TO.P,SW55,1,1_1*%
%TO.N,COL3*%
X302609300Y-71120000D03*
%TO.P,SW55,2,2_2*%
%TO.N,Net-(D55-A)*%
X296259300Y-73660000D03*
%TD*%
D10*
%TO.P,D65,1,K_1*%
%TO.N,ROW3*%
X100033651Y-104775000D03*
D11*
%TO.P,D65,2,A_2*%
%TO.N,Net-(D65-A)*%
X100033651Y-97155000D03*
%TD*%
D10*
%TO.P,D45,1,K_1*%
%TO.N,ROW2*%
X114300000Y-85725000D03*
D11*
%TO.P,D45,2,A_2*%
%TO.N,Net-(D45-A)*%
X114300000Y-78105000D03*
%TD*%
D10*
%TO.P,D72,1,K_1*%
%TO.N,ROW3*%
X233272512Y-104775000D03*
D11*
%TO.P,D72,2,A_2*%
%TO.N,Net-(D72-A)*%
X233272512Y-97155000D03*
%TD*%
D10*
%TO.P,D95,1,K_1*%
%TO.N,ROW10*%
X447675000Y-123825000D03*
D11*
%TO.P,D95,2,A_2*%
%TO.N,Net-(D95-A)*%
X447675000Y-116205000D03*
%TD*%
D10*
%TO.P,D18,1,K_1*%
%TO.N,ROW6*%
X409575000Y-47625000D03*
D11*
%TO.P,D18,2,A_2*%
%TO.N,Net-(D18-A)*%
X409575000Y-40005000D03*
%TD*%
D12*
%TO.P,SW63,1,1_1*%
%TO.N,COL0*%
X47685000Y-90170000D03*
%TO.P,SW63,2,2_2*%
%TO.N,Net-(D63-A)*%
X41335000Y-92710000D03*
%TD*%
%TO.P,SW32,1,1_1*%
%TO.N,COL1*%
X250190000Y-52070000D03*
%TO.P,SW32,2,2_2*%
%TO.N,Net-(D32-A)*%
X243840000Y-54610000D03*
%TD*%
%TO.P,SW94,1,1_1*%
%TO.N,COL9*%
X421640000Y-109220000D03*
%TO.P,SW94,2,2_2*%
%TO.N,Net-(D94-A)*%
X415290000Y-111760000D03*
%TD*%
D10*
%TO.P,D60,1,K_1*%
%TO.N,ROW8*%
X409575000Y-85725000D03*
D11*
%TO.P,D60,2,A_2*%
%TO.N,Net-(D60-A)*%
X409575000Y-78105000D03*
%TD*%
D12*
%TO.P,SW4,1,1_1*%
%TO.N,COL3*%
X116840000Y-33020000D03*
%TO.P,SW4,2,2_2*%
%TO.N,Net-(D4-A)*%
X110490000Y-35560000D03*
%TD*%
%TO.P,SW71,1,1_1*%
%TO.N,COL8*%
X207237512Y-90170000D03*
%TO.P,SW71,2,2_2*%
%TO.N,Net-(D71-A)*%
X200887512Y-92710000D03*
%TD*%
%TO.P,SW37,1,1_1*%
%TO.N,COL6*%
X364490000Y-52070000D03*
%TO.P,SW37,2,2_2*%
%TO.N,Net-(D37-A)*%
X358140000Y-54610000D03*
%TD*%
D10*
%TO.P,D20,1,K_1*%
%TO.N,ROW6*%
X447675000Y-47625000D03*
D11*
%TO.P,D20,2,A_2*%
%TO.N,Net-(D20-A)*%
X447675000Y-40005000D03*
%TD*%
D10*
%TO.P,D57,1,K_1*%
%TO.N,ROW8*%
X352425000Y-85725000D03*
D11*
%TO.P,D57,2,A_2*%
%TO.N,Net-(D57-A)*%
X352425000Y-78105000D03*
%TD*%
D10*
%TO.P,D12,1,K_1*%
%TO.N,ROW6*%
X295275000Y-47625000D03*
D11*
%TO.P,D12,2,A_2*%
%TO.N,Net-(D12-A)*%
X295275000Y-40005000D03*
%TD*%
D12*
%TO.P,SW77,1,1_1*%
%TO.N,COL8*%
X402590000Y-90170000D03*
%TO.P,SW77,2,2_2*%
%TO.N,Net-(D77-A)*%
X396240000Y-92710000D03*
%TD*%
%TO.P,SW104,1,1_1*%
%TO.N,COL4*%
X326390000Y-128270000D03*
%TO.P,SW104,2,2_2*%
%TO.N,Net-(D104-A)*%
X320040000Y-130810000D03*
%TD*%
%TO.P,SW30,1,1_1*%
%TO.N,COL9*%
X212090000Y-52070000D03*
%TO.P,SW30,2,2_2*%
%TO.N,Net-(D30-A)*%
X205740000Y-54610000D03*
%TD*%
D10*
%TO.P,D70,1,K_1*%
%TO.N,ROW3*%
X195172512Y-104775000D03*
D11*
%TO.P,D70,2,A_2*%
%TO.N,Net-(D70-A)*%
X195172512Y-97155000D03*
%TD*%
D10*
%TO.P,D8,1,K_1*%
%TO.N,ROW0*%
X209550000Y-47625000D03*
D11*
%TO.P,D8,2,A_2*%
%TO.N,Net-(D8-A)*%
X209550000Y-40005000D03*
%TD*%
D12*
%TO.P,SW60,1,1_1*%
%TO.N,COL8*%
X402590000Y-71120000D03*
%TO.P,SW60,2,2_2*%
%TO.N,Net-(D60-A)*%
X396240000Y-73660000D03*
%TD*%
D10*
%TO.P,D105,1,K_1*%
%TO.N,ROW11*%
X352425000Y-142875000D03*
D11*
%TO.P,D105,2,A_2*%
%TO.N,Net-(D105-A)*%
X352425000Y-135255000D03*
%TD*%
D12*
%TO.P,SW1,1,1_1*%
%TO.N,COL0*%
X40640000Y-33020000D03*
%TO.P,SW1,2,2_2*%
%TO.N,Net-(D1-A)*%
X34290000Y-35560000D03*
%TD*%
D10*
%TO.P,D77,1,K_1*%
%TO.N,ROW9*%
X409575000Y-104775000D03*
D11*
%TO.P,D77,2,A_2*%
%TO.N,Net-(D77-A)*%
X409575000Y-97155000D03*
%TD*%
D12*
%TO.P,SW33,1,1_1*%
%TO.N,COL2*%
X269240000Y-52070000D03*
%TO.P,SW33,2,2_2*%
%TO.N,Net-(D33-A)*%
X262890000Y-54610000D03*
%TD*%
D10*
%TO.P,D100,1,K_1*%
%TO.N,ROW5*%
X242809347Y-142875000D03*
D11*
%TO.P,D100,2,A_2*%
%TO.N,Net-(D100-A)*%
X242809347Y-135255000D03*
%TD*%
D10*
%TO.P,D89,1,K_1*%
%TO.N,ROW4*%
X261936388Y-123825000D03*
D11*
%TO.P,D89,2,A_2*%
%TO.N,Net-(D89-A)*%
X261936388Y-116205000D03*
%TD*%
D10*
%TO.P,D51,1,K_1*%
%TO.N,ROW2*%
X228600000Y-85725000D03*
D11*
%TO.P,D51,2,A_2*%
%TO.N,Net-(D51-A)*%
X228600000Y-78105000D03*
%TD*%
D10*
%TO.P,D64,1,K_1*%
%TO.N,ROW3*%
X80872512Y-104775000D03*
D11*
%TO.P,D64,2,A_2*%
%TO.N,Net-(D64-A)*%
X80872512Y-97155000D03*
%TD*%
D12*
%TO.P,SW20,1,1_1*%
%TO.N,COL9*%
X440690000Y-33020000D03*
%TO.P,SW20,2,2_2*%
%TO.N,Net-(D20-A)*%
X434340000Y-35560000D03*
%TD*%
D10*
%TO.P,D10,1,K_1*%
%TO.N,ROW0*%
X257175000Y-47625000D03*
D11*
%TO.P,D10,2,A_2*%
%TO.N,Net-(D10-A)*%
X257175000Y-40005000D03*
%TD*%
D10*
%TO.P,D80,1,K_1*%
%TO.N,ROW4*%
X90508651Y-123825000D03*
D11*
%TO.P,D80,2,A_2*%
%TO.N,Net-(D80-A)*%
X90508651Y-116205000D03*
%TD*%
D10*
%TO.P,D107,1,K_1*%
%TO.N,ROW11*%
X409575000Y-142875000D03*
D11*
%TO.P,D107,2,A_2*%
%TO.N,Net-(D107-A)*%
X409575000Y-135255000D03*
%TD*%
D10*
%TO.P,D30,1,K_1*%
%TO.N,ROW1*%
X219075000Y-66675000D03*
D11*
%TO.P,D30,2,A_2*%
%TO.N,Net-(D30-A)*%
X219075000Y-59055000D03*
%TD*%
D12*
%TO.P,SW49,1,1_1*%
%TO.N,COL7*%
X183515000Y-71120000D03*
%TO.P,SW49,2,2_2*%
%TO.N,Net-(D49-A)*%
X177165000Y-73660000D03*
%TD*%
%TO.P,SW108,1,1_1*%
%TO.N,COL9*%
X421640000Y-128270000D03*
%TO.P,SW108,2,2_2*%
%TO.N,Net-(D108-A)*%
X415290000Y-130810000D03*
%TD*%
%TO.P,SW26,1,1_1*%
%TO.N,COL5*%
X135890000Y-52070000D03*
%TO.P,SW26,2,2_2*%
%TO.N,Net-(D26-A)*%
X129540000Y-54610000D03*
%TD*%
D10*
%TO.P,D1,1,K_1*%
%TO.N,ROW0*%
X47625000Y-47625000D03*
D11*
%TO.P,D1,2,A_2*%
%TO.N,Net-(D1-A)*%
X47625000Y-40005000D03*
%TD*%
D10*
%TO.P,D22,1,K_1*%
%TO.N,ROW1*%
X66675000Y-66675000D03*
D11*
%TO.P,D22,2,A_2*%
%TO.N,Net-(D22-A)*%
X66675000Y-59055000D03*
%TD*%
D12*
%TO.P,SW76,1,1_1*%
%TO.N,COL7*%
X383540000Y-90170000D03*
%TO.P,SW76,2,2_2*%
%TO.N,Net-(D76-A)*%
X377190000Y-92710000D03*
%TD*%
%TO.P,SW47,1,1_1*%
%TO.N,COL5*%
X145415000Y-71120000D03*
%TO.P,SW47,2,2_2*%
%TO.N,Net-(D47-A)*%
X139065000Y-73660000D03*
%TD*%
D10*
%TO.P,D69,1,K_1*%
%TO.N,ROW3*%
X176122512Y-104775000D03*
D11*
%TO.P,D69,2,A_2*%
%TO.N,Net-(D69-A)*%
X176122512Y-97155000D03*
%TD*%
D10*
%TO.P,D58,1,K_1*%
%TO.N,ROW8*%
X371475000Y-85720795D03*
D11*
%TO.P,D58,2,A_2*%
%TO.N,Net-(D58-A)*%
X371475000Y-78100795D03*
%TD*%
D10*
%TO.P,D84,1,K_1*%
%TO.N,ROW4*%
X166431822Y-123825000D03*
D11*
%TO.P,D84,2,A_2*%
%TO.N,Net-(D84-A)*%
X166431822Y-116205000D03*
%TD*%
D12*
%TO.P,SW23,1,1_1*%
%TO.N,COL2*%
X78740000Y-52070000D03*
%TO.P,SW23,2,2_2*%
%TO.N,Net-(D23-A)*%
X72390000Y-54610000D03*
%TD*%
D10*
%TO.P,D24,1,K_1*%
%TO.N,ROW1*%
X104775000Y-66675000D03*
D11*
%TO.P,D24,2,A_2*%
%TO.N,Net-(D24-A)*%
X104775000Y-59055000D03*
%TD*%
D12*
%TO.P,SW11,1,1_1*%
%TO.N,COL0*%
X269240000Y-33020000D03*
%TO.P,SW11,2,2_2*%
%TO.N,Net-(D11-A)*%
X262890000Y-35560000D03*
%TD*%
D10*
%TO.P,D38,1,K_1*%
%TO.N,ROW7*%
X390525000Y-66675000D03*
D11*
%TO.P,D38,2,A_2*%
%TO.N,Net-(D38-A)*%
X390525000Y-59055000D03*
%TD*%
D10*
%TO.P,D61,1,K_1*%
%TO.N,ROW8*%
X428625000Y-85725000D03*
D11*
%TO.P,D61,2,A_2*%
%TO.N,Net-(D61-A)*%
X428625000Y-78105000D03*
%TD*%
D10*
%TO.P,D39,1,K_1*%
%TO.N,ROW7*%
X409575000Y-66675000D03*
D11*
%TO.P,D39,2,A_2*%
%TO.N,Net-(D39-A)*%
X409575000Y-59055000D03*
%TD*%
D12*
%TO.P,SW36,1,1_1*%
%TO.N,COL5*%
X345440000Y-52070000D03*
%TO.P,SW36,2,2_2*%
%TO.N,Net-(D36-A)*%
X339090000Y-54610000D03*
%TD*%
D10*
%TO.P,D98,1,K_1*%
%TO.N,ROW5*%
X76088341Y-142875000D03*
D11*
%TO.P,D98,2,A_2*%
%TO.N,Net-(D98-A)*%
X76088341Y-135255000D03*
%TD*%
D12*
%TO.P,SW99,1,1_1*%
%TO.N,COL9*%
X281043063Y-128270000D03*
%TO.P,SW99,2,2_2*%
%TO.N,Net-(D102-A)*%
X274693063Y-130810000D03*
%TD*%
D10*
%TO.P,D11,1,K_1*%
%TO.N,ROW0*%
X276225000Y-47625000D03*
D11*
%TO.P,D11,2,A_2*%
%TO.N,Net-(D11-A)*%
X276225000Y-40005000D03*
%TD*%
D10*
%TO.P,D97,1,K_1*%
%TO.N,ROW5*%
X52265312Y-142875000D03*
D11*
%TO.P,D97,2,A_2*%
%TO.N,Net-(D97-A)*%
X52265312Y-135255000D03*
%TD*%
D10*
%TO.P,D13,1,K_1*%
%TO.N,ROW6*%
X314325000Y-47625000D03*
D11*
%TO.P,D13,2,A_2*%
%TO.N,Net-(D13-A)*%
X314325000Y-40005000D03*
%TD*%
D12*
%TO.P,SW18,1,1_1*%
%TO.N,COL7*%
X402590000Y-33020000D03*
%TO.P,SW18,2,2_2*%
%TO.N,Net-(D18-A)*%
X396240000Y-35560000D03*
%TD*%
%TO.P,SW57,1,1_1*%
%TO.N,COL5*%
X345440000Y-71115795D03*
%TO.P,SW57,2,2_2*%
%TO.N,Net-(D57-A)*%
X339090000Y-73655795D03*
%TD*%
%TO.P,SW7,1,1_1*%
%TO.N,COL6*%
X183515000Y-33020000D03*
%TO.P,SW7,2,2_2*%
%TO.N,Net-(D7-A)*%
X177165000Y-35560000D03*
%TD*%
D10*
%TO.P,D78,1,K_1*%
%TO.N,ROW9*%
X427840000Y-101590000D03*
D11*
%TO.P,D78,2,A_2*%
%TO.N,Net-(D78-A)*%
X427840000Y-93970000D03*
%TD*%
D12*
%TO.P,SW19,1,1_1*%
%TO.N,COL8*%
X421640000Y-33020000D03*
%TO.P,SW19,2,2_2*%
%TO.N,Net-(D19-A)*%
X415290000Y-35560000D03*
%TD*%
%TO.P,SW65,1,1_1*%
%TO.N,COL2*%
X92937512Y-90170000D03*
%TO.P,SW65,2,2_2*%
%TO.N,Net-(D65-A)*%
X86587512Y-92710000D03*
%TD*%
%TO.P,SW22,1,1_1*%
%TO.N,COL1*%
X59690000Y-52070000D03*
%TO.P,SW22,2,2_2*%
%TO.N,Net-(D22-A)*%
X53340000Y-54610000D03*
%TD*%
%TO.P,SW50,1,1_1*%
%TO.N,COL8*%
X202565000Y-71120000D03*
%TO.P,SW50,2,2_2*%
%TO.N,Net-(D50-A)*%
X196215000Y-73660000D03*
%TD*%
%TO.P,SW96,1,1_1*%
%TO.N,COL5*%
X161986822Y-128270000D03*
%TO.P,SW96,2,2_2*%
%TO.N,Net-(D99-A)*%
X155636822Y-130810000D03*
%TD*%
%TO.P,SW93,1,1_1*%
%TO.N,COL8*%
X402590000Y-109220000D03*
%TO.P,SW93,2,2_2*%
%TO.N,Net-(D93-A)*%
X396240000Y-111760000D03*
%TD*%
%TO.P,SW80,1,1_1*%
%TO.N,COL1*%
X83523651Y-109220000D03*
%TO.P,SW80,2,2_2*%
%TO.N,Net-(D80-A)*%
X77173651Y-111760000D03*
%TD*%
D10*
%TO.P,D56,1,K_1*%
%TO.N,ROW8*%
X333375000Y-85725000D03*
D11*
%TO.P,D56,2,A_2*%
%TO.N,Net-(D56-A)*%
X333375000Y-78105000D03*
%TD*%
D10*
%TO.P,D99,1,K_1*%
%TO.N,ROW5*%
X218978072Y-142875000D03*
D11*
%TO.P,D99,2,A_2*%
%TO.N,Net-(D99-A)*%
X218978072Y-135255000D03*
%TD*%
D12*
%TO.P,SW92,1,1_1*%
%TO.N,COL7*%
X383540000Y-109220000D03*
%TO.P,SW92,2,2_2*%
%TO.N,Net-(D92-A)*%
X377190000Y-111760000D03*
%TD*%
D10*
%TO.P,D59,1,K_1*%
%TO.N,ROW8*%
X390525000Y-85725000D03*
D11*
%TO.P,D59,2,A_2*%
%TO.N,Net-(D59-A)*%
X390525000Y-78105000D03*
%TD*%
D10*
%TO.P,D44,1,K_1*%
%TO.N,ROW2*%
X95250000Y-85725000D03*
D11*
%TO.P,D44,2,A_2*%
%TO.N,Net-(D44-A)*%
X95250000Y-78105000D03*
%TD*%
D10*
%TO.P,D67,1,K_1*%
%TO.N,ROW3*%
X138133651Y-104775000D03*
D11*
%TO.P,D67,2,A_2*%
%TO.N,Net-(D67-A)*%
X138133651Y-97155000D03*
%TD*%
D12*
%TO.P,SW3,1,1_1*%
%TO.N,COL2*%
X97790000Y-33020000D03*
%TO.P,SW3,2,2_2*%
%TO.N,Net-(D3-A)*%
X91440000Y-35560000D03*
%TD*%
D10*
%TO.P,D16,1,K_1*%
%TO.N,ROW6*%
X371475000Y-47625000D03*
D11*
%TO.P,D16,2,A_2*%
%TO.N,Net-(D16-A)*%
X371475000Y-40005000D03*
%TD*%
D12*
%TO.P,SW17,1,1_1*%
%TO.N,COL6*%
X383540000Y-33020000D03*
%TO.P,SW17,2,2_2*%
%TO.N,Net-(D17-A)*%
X377190000Y-35560000D03*
%TD*%
%TO.P,SW95,1,1_1*%
%TO.N,COL2*%
X66722091Y-128270000D03*
%TO.P,SW95,2,2_2*%
%TO.N,Net-(D98-A)*%
X60372091Y-130810000D03*
%TD*%
D10*
%TO.P,D42,1,K_1*%
%TO.N,ROW2*%
X57150000Y-85725000D03*
D11*
%TO.P,D42,2,A_2*%
%TO.N,Net-(D42-A)*%
X57150000Y-78105000D03*
%TD*%
D10*
%TO.P,D41,1,K_1*%
%TO.N,ROW7*%
X447675000Y-66675000D03*
D11*
%TO.P,D41,2,A_2*%
%TO.N,Net-(D41-A)*%
X447675000Y-59055000D03*
%TD*%
D12*
%TO.P,SW100,1,1_1*%
%TO.N,COL0*%
X304974318Y-128270000D03*
%TO.P,SW100,2,2_2*%
%TO.N,Net-(D103-A)*%
X298624318Y-130810000D03*
%TD*%
D10*
%TO.P,D54,1,K_1*%
%TO.N,ROW8*%
X285750000Y-85725000D03*
D11*
%TO.P,D54,2,A_2*%
%TO.N,Net-(D54-A)*%
X285750000Y-78105000D03*
%TD*%
D12*
%TO.P,SW78,1,1_1*%
%TO.N,COL9*%
X421640000Y-90170000D03*
%TO.P,SW78,2,2_2*%
%TO.N,Net-(D78-A)*%
X415290000Y-92710000D03*
%TD*%
%TO.P,SW56,1,1_1*%
%TO.N,COL4*%
X326390000Y-71120000D03*
%TO.P,SW56,2,2_2*%
%TO.N,Net-(D56-A)*%
X320040000Y-73660000D03*
%TD*%
D10*
%TO.P,D102,1,K_1*%
%TO.N,ROW5*%
X290528068Y-142875000D03*
D11*
%TO.P,D102,2,A_2*%
%TO.N,Net-(D102-A)*%
X290528068Y-135255000D03*
%TD*%
D12*
%TO.P,SW2,1,1_1*%
%TO.N,COL1*%
X78740000Y-33020000D03*
%TO.P,SW2,2,2_2*%
%TO.N,Net-(D2-A)*%
X72390000Y-35560000D03*
%TD*%
%TO.P,SW44,1,1_1*%
%TO.N,COL2*%
X88265000Y-71120000D03*
%TO.P,SW44,2,2_2*%
%TO.N,Net-(D44-A)*%
X81915000Y-73660000D03*
%TD*%
D10*
%TO.P,D104,1,K_1*%
%TO.N,ROW11*%
X333375000Y-142875000D03*
D11*
%TO.P,D104,2,A_2*%
%TO.N,Net-(D104-A)*%
X333375000Y-135255000D03*
%TD*%
D10*
%TO.P,D103,1,K_1*%
%TO.N,ROW5*%
X314325000Y-142875000D03*
D11*
%TO.P,D103,2,A_2*%
%TO.N,Net-(D103-A)*%
X314325000Y-135255000D03*
%TD*%
D10*
%TO.P,D23,1,K_1*%
%TO.N,ROW1*%
X85725000Y-66675000D03*
D11*
%TO.P,D23,2,A_2*%
%TO.N,Net-(D23-A)*%
X85725000Y-59055000D03*
%TD*%
D12*
%TO.P,SW59,1,1_1*%
%TO.N,COL7*%
X383540000Y-71120000D03*
%TO.P,SW59,2,2_2*%
%TO.N,Net-(D59-A)*%
X377190000Y-73660000D03*
%TD*%
%TO.P,SW8,1,1_1*%
%TO.N,COL7*%
X202565000Y-33020000D03*
%TO.P,SW8,2,2_2*%
%TO.N,Net-(D8-A)*%
X196215000Y-35560000D03*
%TD*%
%TO.P,SW110,1,1_1*%
%TO.N,COL10*%
X433070000Y-121285000D03*
%TO.P,SW110,2,2_2*%
%TO.N,Net-(D95-A)*%
X435610000Y-127635000D03*
%TD*%
%TO.P,SW83,1,1_1*%
%TO.N,COL4*%
X140673651Y-109220000D03*
%TO.P,SW83,2,2_2*%
%TO.N,Net-(D83-A)*%
X134323651Y-111760000D03*
%TD*%
D10*
%TO.P,D3,1,K_1*%
%TO.N,ROW0*%
X104775000Y-47625000D03*
D11*
%TO.P,D3,2,A_2*%
%TO.N,Net-(D3-A)*%
X104775000Y-40005000D03*
%TD*%
D12*
%TO.P,SW73,1,1_1*%
%TO.N,COL0*%
X245337512Y-90170000D03*
%TO.P,SW73,2,2_2*%
%TO.N,Net-(D73-A)*%
X238987512Y-92710000D03*
%TD*%
%TO.P,SW87,1,1_1*%
%TO.N,COL8*%
X216873651Y-109220000D03*
%TO.P,SW87,2,2_2*%
%TO.N,Net-(D87-A)*%
X210523651Y-111760000D03*
%TD*%
D10*
%TO.P,D81,1,K_1*%
%TO.N,ROW4*%
X109558651Y-122730000D03*
D11*
%TO.P,D81,2,A_2*%
%TO.N,Net-(D81-A)*%
X109558651Y-115110000D03*
%TD*%
D12*
%TO.P,SW31,1,1_1*%
%TO.N,COL0*%
X231140000Y-52070000D03*
%TO.P,SW31,2,2_2*%
%TO.N,Net-(D31-A)*%
X224790000Y-54610000D03*
%TD*%
%TO.P,SW61,1,1_1*%
%TO.N,COL9*%
X421640000Y-71120000D03*
%TO.P,SW61,2,2_2*%
%TO.N,Net-(D61-A)*%
X415290000Y-73660000D03*
%TD*%
D10*
%TO.P,D92,1,K_1*%
%TO.N,ROW10*%
X390525000Y-123825000D03*
D11*
%TO.P,D92,2,A_2*%
%TO.N,Net-(D92-A)*%
X390525000Y-116205000D03*
%TD*%
D10*
%TO.P,D52,1,K_1*%
%TO.N,ROW2*%
X247650000Y-85725000D03*
D11*
%TO.P,D52,2,A_2*%
%TO.N,Net-(D52-A)*%
X247650000Y-78105000D03*
%TD*%
D10*
%TO.P,D43,1,K_1*%
%TO.N,ROW2*%
X76200000Y-85725000D03*
D11*
%TO.P,D43,2,A_2*%
%TO.N,Net-(D43-A)*%
X76200000Y-78105000D03*
%TD*%
D12*
%TO.P,SW40,1,1_1*%
%TO.N,COL9*%
X421640000Y-52070000D03*
%TO.P,SW40,2,2_2*%
%TO.N,Net-(D40-A)*%
X415290000Y-54610000D03*
%TD*%
%TO.P,SW62,1,1_1*%
%TO.N,COL10*%
X433070000Y-83185000D03*
%TO.P,SW62,2,2_2*%
%TO.N,Net-(D62-A)*%
X435610000Y-89535000D03*
%TD*%
%TO.P,SW48,1,1_1*%
%TO.N,COL6*%
X164465000Y-71120000D03*
%TO.P,SW48,2,2_2*%
%TO.N,Net-(D48-A)*%
X158115000Y-73660000D03*
%TD*%
D10*
%TO.P,D86,1,K_1*%
%TO.N,ROW4*%
X204808651Y-123825000D03*
D11*
%TO.P,D86,2,A_2*%
%TO.N,Net-(D86-A)*%
X204808651Y-116205000D03*
%TD*%
D12*
%TO.P,SW82,1,1_1*%
%TO.N,COL3*%
X121623651Y-109220000D03*
%TO.P,SW82,2,2_2*%
%TO.N,Net-(D82-A)*%
X115273651Y-111760000D03*
%TD*%
%TO.P,SW72,1,1_1*%
%TO.N,COL9*%
X226287512Y-90170000D03*
%TO.P,SW72,2,2_2*%
%TO.N,Net-(D72-A)*%
X219937512Y-92710000D03*
%TD*%
D10*
%TO.P,D90,1,K_1*%
%TO.N,ROW10*%
X314323888Y-123825000D03*
D11*
%TO.P,D90,2,A_2*%
%TO.N,Net-(D90-A)*%
X314323888Y-116205000D03*
%TD*%
D10*
%TO.P,D4,1,K_1*%
%TO.N,ROW0*%
X123825000Y-47625000D03*
D11*
%TO.P,D4,2,A_2*%
%TO.N,Net-(D4-A)*%
X123825000Y-40005000D03*
%TD*%
D10*
%TO.P,D48,1,K_1*%
%TO.N,ROW2*%
X171450000Y-85725000D03*
D11*
%TO.P,D48,2,A_2*%
%TO.N,Net-(D48-A)*%
X171450000Y-78105000D03*
%TD*%
D10*
%TO.P,D9,1,K_1*%
%TO.N,ROW0*%
X228600000Y-47625000D03*
D11*
%TO.P,D9,2,A_2*%
%TO.N,Net-(D9-A)*%
X228600000Y-40005000D03*
%TD*%
D12*
%TO.P,SW101,1,1_1*%
%TO.N,COL7*%
X393065000Y-128270000D03*
%TO.P,SW101,2,2_2*%
%TO.N,Net-(D107-A)*%
X386715000Y-130810000D03*
%TD*%
%TO.P,SW97,1,1_1*%
%TO.N,COL6*%
X233443097Y-128270000D03*
%TO.P,SW97,2,2_2*%
%TO.N,Net-(D100-A)*%
X227093097Y-130810000D03*
%TD*%
D10*
%TO.P,D76,1,K_1*%
%TO.N,ROW9*%
X390525000Y-104775000D03*
D11*
%TO.P,D76,2,A_2*%
%TO.N,Net-(D76-A)*%
X390525000Y-97155000D03*
%TD*%
D10*
%TO.P,D91,1,K_1*%
%TO.N,ROW10*%
X352425000Y-123825000D03*
D11*
%TO.P,D91,2,A_2*%
%TO.N,Net-(D91-A)*%
X352425000Y-116205000D03*
%TD*%
D12*
%TO.P,SW74,1,1_1*%
%TO.N,COL1*%
X264387512Y-90170000D03*
%TO.P,SW74,2,2_2*%
%TO.N,Net-(D74-A)*%
X258037512Y-92710000D03*
%TD*%
D10*
%TO.P,D28,1,K_1*%
%TO.N,ROW1*%
X180975000Y-66675000D03*
D11*
%TO.P,D28,2,A_2*%
%TO.N,Net-(D28-A)*%
X180975000Y-59055000D03*
%TD*%
D10*
%TO.P,D63,1,K_1*%
%TO.N,ROW3*%
X61813750Y-103280000D03*
D11*
%TO.P,D63,2,A_2*%
%TO.N,Net-(D63-A)*%
X61813750Y-95660000D03*
%TD*%
D12*
%TO.P,SW16,1,1_1*%
%TO.N,COL5*%
X364490000Y-33020000D03*
%TO.P,SW16,2,2_2*%
%TO.N,Net-(D16-A)*%
X358140000Y-35560000D03*
%TD*%
D10*
%TO.P,D15,1,K_1*%
%TO.N,ROW6*%
X352425000Y-47625000D03*
D11*
%TO.P,D15,2,A_2*%
%TO.N,Net-(D15-A)*%
X352425000Y-40005000D03*
%TD*%
D12*
%TO.P,SW21,1,1_1*%
%TO.N,COL0*%
X40640000Y-52070000D03*
%TO.P,SW21,2,2_2*%
%TO.N,Net-(D21-A)*%
X34290000Y-54610000D03*
%TD*%
D10*
%TO.P,D87,1,K_1*%
%TO.N,ROW4*%
X223858651Y-123825000D03*
D11*
%TO.P,D87,2,A_2*%
%TO.N,Net-(D87-A)*%
X223858651Y-116205000D03*
%TD*%
D12*
%TO.P,SW90,1,1_1*%
%TO.N,COL1*%
X42899062Y-128270000D03*
%TO.P,SW90,2,2_2*%
%TO.N,Net-(D97-A)*%
X36549062Y-130810000D03*
%TD*%
D10*
%TO.P,D34,1,K_1*%
%TO.N,ROW7*%
X304800000Y-66675000D03*
D11*
%TO.P,D34,2,A_2*%
%TO.N,Net-(D34-A)*%
X304800000Y-59055000D03*
%TD*%
D10*
%TO.P,D26,1,K_1*%
%TO.N,ROW1*%
X142875000Y-66675000D03*
D11*
%TO.P,D26,2,A_2*%
%TO.N,Net-(D26-A)*%
X142875000Y-59055000D03*
%TD*%
D10*
%TO.P,D40,1,K_1*%
%TO.N,ROW7*%
X428625000Y-66675000D03*
D11*
%TO.P,D40,2,A_2*%
%TO.N,Net-(D40-A)*%
X428625000Y-59055000D03*
%TD*%
D10*
%TO.P,D75,1,K_1*%
%TO.N,ROW9*%
X314325000Y-103870000D03*
D11*
%TO.P,D75,2,A_2*%
%TO.N,Net-(D75-A)*%
X314325000Y-96250000D03*
%TD*%
D12*
%TO.P,SW98,1,1_1*%
%TO.N,COL8*%
X257235000Y-128270000D03*
%TO.P,SW98,2,2_2*%
%TO.N,Net-(D101-A)*%
X250885000Y-130810000D03*
%TD*%
D10*
%TO.P,D82,1,K_1*%
%TO.N,ROW4*%
X128608651Y-123825000D03*
D11*
%TO.P,D82,2,A_2*%
%TO.N,Net-(D82-A)*%
X128608651Y-116205000D03*
%TD*%
D10*
%TO.P,D108,1,K_1*%
%TO.N,ROW11*%
X427410000Y-142875000D03*
D11*
%TO.P,D108,2,A_2*%
%TO.N,Net-(D108-A)*%
X427410000Y-135255000D03*
%TD*%
D12*
%TO.P,SW109,1,1_1*%
%TO.N,COL1*%
X290670138Y-109220000D03*
%TO.P,SW109,2,2_2*%
%TO.N,Net-(D90-A)*%
X284320138Y-111760000D03*
%TD*%
%TO.P,SW35,1,1_1*%
%TO.N,COL4*%
X326390000Y-52070000D03*
%TO.P,SW35,2,2_2*%
%TO.N,Net-(D35-A)*%
X320040000Y-54610000D03*
%TD*%
%TO.P,SW29,1,1_1*%
%TO.N,COL8*%
X193040000Y-52070000D03*
%TO.P,SW29,2,2_2*%
%TO.N,Net-(D29-A)*%
X186690000Y-54610000D03*
%TD*%
D10*
%TO.P,D6,1,K_1*%
%TO.N,ROW0*%
X171450000Y-47625000D03*
D11*
%TO.P,D6,2,A_2*%
%TO.N,Net-(D6-A)*%
X171450000Y-40005000D03*
%TD*%
D10*
%TO.P,D32,1,K_1*%
%TO.N,ROW7*%
X257175000Y-66675000D03*
D11*
%TO.P,D32,2,A_2*%
%TO.N,Net-(D32-A)*%
X257175000Y-59055000D03*
%TD*%
D10*
%TO.P,D53,1,K_1*%
%TO.N,ROW8*%
X266700000Y-85725000D03*
D11*
%TO.P,D53,2,A_2*%
%TO.N,Net-(D53-A)*%
X266700000Y-78105000D03*
%TD*%
D12*
%TO.P,SW12,1,1_1*%
%TO.N,COL1*%
X288290000Y-33020000D03*
%TO.P,SW12,2,2_2*%
%TO.N,Net-(D12-A)*%
X281940000Y-35560000D03*
%TD*%
D10*
%TO.P,D94,1,K_1*%
%TO.N,ROW10*%
X428625000Y-123825000D03*
D11*
%TO.P,D94,2,A_2*%
%TO.N,Net-(D94-A)*%
X428625000Y-116205000D03*
%TD*%
D10*
%TO.P,D25,1,K_1*%
%TO.N,ROW1*%
X123825000Y-66675000D03*
D11*
%TO.P,D25,2,A_2*%
%TO.N,Net-(D25-A)*%
X123825000Y-59055000D03*
%TD*%
D12*
%TO.P,SW14,1,1_1*%
%TO.N,COL3*%
X326390000Y-33020000D03*
%TO.P,SW14,2,2_2*%
%TO.N,Net-(D14-A)*%
X320040000Y-35560000D03*
%TD*%
D10*
%TO.P,D50,1,K_1*%
%TO.N,ROW2*%
X209550000Y-85725000D03*
D11*
%TO.P,D50,2,A_2*%
%TO.N,Net-(D50-A)*%
X209550000Y-78105000D03*
%TD*%
D12*
%TO.P,SW64,1,1_1*%
%TO.N,COL1*%
X73887512Y-90170000D03*
%TO.P,SW64,2,2_2*%
%TO.N,Net-(D64-A)*%
X67537512Y-92710000D03*
%TD*%
%TO.P,SW34,1,1_1*%
%TO.N,COL3*%
X297815000Y-52070000D03*
%TO.P,SW34,2,2_2*%
%TO.N,Net-(D34-A)*%
X291465000Y-54610000D03*
%TD*%
D10*
%TO.P,D35,1,K_1*%
%TO.N,ROW7*%
X333375000Y-66675000D03*
D11*
%TO.P,D35,2,A_2*%
%TO.N,Net-(D35-A)*%
X333375000Y-59055000D03*
%TD*%
D10*
%TO.P,D74,1,K_1*%
%TO.N,ROW9*%
X271372512Y-104775000D03*
D11*
%TO.P,D74,2,A_2*%
%TO.N,Net-(D74-A)*%
X271372512Y-97155000D03*
%TD*%
D12*
%TO.P,SW106,1,1_1*%
%TO.N,COL6*%
X364490000Y-128270000D03*
%TO.P,SW106,2,2_2*%
%TO.N,Net-(D106-A)*%
X358140000Y-130810000D03*
%TD*%
D10*
%TO.P,D73,1,K_1*%
%TO.N,ROW3*%
X252322512Y-104775000D03*
D11*
%TO.P,D73,2,A_2*%
%TO.N,Net-(D73-A)*%
X252322512Y-97155000D03*
%TD*%
D12*
%TO.P,SW52,1,1_1*%
%TO.N,COL0*%
X240665000Y-71120000D03*
%TO.P,SW52,2,2_2*%
%TO.N,Net-(D52-A)*%
X234315000Y-73660000D03*
%TD*%
D10*
%TO.P,D7,1,K_1*%
%TO.N,ROW0*%
X190500000Y-47625000D03*
D11*
%TO.P,D7,2,A_2*%
%TO.N,Net-(D7-A)*%
X190500000Y-40005000D03*
%TD*%
D12*
%TO.P,SW51,1,1_1*%
%TO.N,COL9*%
X221615000Y-71120000D03*
%TO.P,SW51,2,2_2*%
%TO.N,Net-(D51-A)*%
X215265000Y-73660000D03*
%TD*%
D10*
%TO.P,D5,1,K_1*%
%TO.N,ROW0*%
X142875000Y-47625000D03*
D11*
%TO.P,D5,2,A_2*%
%TO.N,Net-(D5-A)*%
X142875000Y-40005000D03*
%TD*%
D10*
%TO.P,D79,1,K_1*%
%TO.N,ROW4*%
X71324459Y-123825000D03*
D11*
%TO.P,D79,2,A_2*%
%TO.N,Net-(D79-A)*%
X71324459Y-116205000D03*
%TD*%
D10*
%TO.P,D36,1,K_1*%
%TO.N,ROW7*%
X352425000Y-66670795D03*
D11*
%TO.P,D36,2,A_2*%
%TO.N,Net-(D36-A)*%
X352425000Y-59050795D03*
%TD*%
D10*
%TO.P,D2,1,K_1*%
%TO.N,ROW0*%
X85725000Y-47625000D03*
D11*
%TO.P,D2,2,A_2*%
%TO.N,Net-(D2-A)*%
X85725000Y-40005000D03*
%TD*%
D10*
%TO.P,D93,1,K_1*%
%TO.N,ROW10*%
X409575000Y-123825000D03*
D11*
%TO.P,D93,2,A_2*%
%TO.N,Net-(D93-A)*%
X409575000Y-116205000D03*
%TD*%
D10*
%TO.P,D71,1,K_1*%
%TO.N,ROW3*%
X214222512Y-104775000D03*
D11*
%TO.P,D71,2,A_2*%
%TO.N,Net-(D71-A)*%
X214222512Y-97155000D03*
%TD*%
D12*
%TO.P,SW58,1,1_1*%
%TO.N,COL6*%
X364490000Y-71120000D03*
%TO.P,SW58,2,2_2*%
%TO.N,Net-(D58-A)*%
X358140000Y-73660000D03*
%TD*%
%TO.P,SW105,1,1_1*%
%TO.N,COL5*%
X345440000Y-128270000D03*
%TO.P,SW105,2,2_2*%
%TO.N,Net-(D105-A)*%
X339090000Y-130810000D03*
%TD*%
D10*
%TO.P,D46,1,K_1*%
%TO.N,ROW2*%
X133350000Y-85725000D03*
D11*
%TO.P,D46,2,A_2*%
%TO.N,Net-(D46-A)*%
X133350000Y-78105000D03*
%TD*%
D12*
%TO.P,SW43,1,1_1*%
%TO.N,COL1*%
X69215000Y-71120000D03*
%TO.P,SW43,2,2_2*%
%TO.N,Net-(D43-A)*%
X62865000Y-73660000D03*
%TD*%
%TO.P,SW15,1,1_1*%
%TO.N,COL4*%
X345440000Y-33020000D03*
%TO.P,SW15,2,2_2*%
%TO.N,Net-(D15-A)*%
X339090000Y-35560000D03*
%TD*%
%TO.P,SW86,1,1_1*%
%TO.N,COL7*%
X197823651Y-109220000D03*
%TO.P,SW86,2,2_2*%
%TO.N,Net-(D86-A)*%
X191473651Y-111760000D03*
%TD*%
%TO.P,SW25,1,1_1*%
%TO.N,COL4*%
X116840000Y-52070000D03*
%TO.P,SW25,2,2_2*%
%TO.N,Net-(D25-A)*%
X110490000Y-54610000D03*
%TD*%
%TO.P,SW69,1,1_1*%
%TO.N,COL6*%
X169137512Y-90170000D03*
%TO.P,SW69,2,2_2*%
%TO.N,Net-(D69-A)*%
X162787512Y-92710000D03*
%TD*%
%TO.P,SW85,1,1_1*%
%TO.N,COL6*%
X178773651Y-109220000D03*
%TO.P,SW85,2,2_2*%
%TO.N,Net-(D85-A)*%
X172423651Y-111760000D03*
%TD*%
%TO.P,SW9,1,1_1*%
%TO.N,COL8*%
X221615000Y-33020000D03*
%TO.P,SW9,2,2_2*%
%TO.N,Net-(D9-A)*%
X215265000Y-35560000D03*
%TD*%
%TO.P,SW24,1,1_1*%
%TO.N,COL3*%
X97790000Y-52070000D03*
%TO.P,SW24,2,2_2*%
%TO.N,Net-(D24-A)*%
X91440000Y-54610000D03*
%TD*%
D10*
%TO.P,D33,1,K_1*%
%TO.N,ROW7*%
X276225000Y-66675000D03*
D11*
%TO.P,D33,2,A_2*%
%TO.N,Net-(D33-A)*%
X276225000Y-59055000D03*
%TD*%
D12*
%TO.P,SW6,1,1_1*%
%TO.N,COL5*%
X164465000Y-33020000D03*
%TO.P,SW6,2,2_2*%
%TO.N,Net-(D6-A)*%
X158115000Y-35560000D03*
%TD*%
D13*
%TO.P,A1,1,GPIO0_1*%
%TO.N,ROW0*%
X23840000Y-8950000D03*
D14*
X23840000Y-9750000D03*
D15*
%TO.P,A1,2,GPIO1_2*%
%TO.N,ROW1*%
X26380000Y-8950000D03*
D11*
X26380000Y-9750000D03*
D16*
%TO.P,A1,3,GND_3*%
%TO.N,unconnected-(A1-GND-Pad13)_11*%
X28920000Y-8950000D03*
D17*
%TO.N,unconnected-(A1-GND-Pad13)_4*%
X28920000Y-9750000D03*
D15*
%TO.P,A1,4,GPIO2_4*%
%TO.N,ROW2*%
X31460000Y-8950000D03*
D11*
X31460000Y-9750000D03*
D15*
%TO.P,A1,5,GPIO3_5*%
%TO.N,ROW3*%
X34000000Y-8950000D03*
D11*
X34000000Y-9750000D03*
D15*
%TO.P,A1,6,GPIO4_6*%
%TO.N,ROW4*%
X36540000Y-8950000D03*
D11*
X36540000Y-9750000D03*
D15*
%TO.P,A1,7,GPIO5_7*%
%TO.N,ROW5*%
X39080000Y-8950000D03*
D11*
X39080000Y-9750000D03*
D16*
%TO.P,A1,8,GND_8*%
%TO.N,unconnected-(A1-GND-Pad13)_12*%
X41620000Y-8950000D03*
D17*
%TO.N,unconnected-(A1-GND-Pad13)_3*%
X41620000Y-9750000D03*
D15*
%TO.P,A1,9,GPIO6_9*%
%TO.N,ROW6*%
X44160000Y-8950000D03*
D11*
X44160000Y-9750000D03*
D15*
%TO.P,A1,10,GPIO7_10*%
%TO.N,ROW7*%
X46700000Y-8950000D03*
D11*
X46700000Y-9750000D03*
D15*
%TO.P,A1,11,GPIO8_11*%
%TO.N,ROW8*%
X49240000Y-8950000D03*
D11*
X49240000Y-9750000D03*
D15*
%TO.P,A1,12,GPIO9_12*%
%TO.N,ROW9*%
X51780000Y-8950000D03*
D11*
X51780000Y-9750000D03*
D16*
%TO.P,A1,13,GND_13*%
%TO.N,unconnected-(A1-GND-Pad13)_1*%
X54320000Y-8950000D03*
D17*
%TO.N,unconnected-(A1-GND-Pad13)*%
X54320000Y-9750000D03*
D15*
%TO.P,A1,14,GPIO10_14*%
%TO.N,ROW10*%
X56860000Y-8950000D03*
D11*
X56860000Y-9750000D03*
D15*
%TO.P,A1,15,GPIO11_15*%
%TO.N,ROW11*%
X59400000Y-8950000D03*
D11*
X59400000Y-9750000D03*
D15*
%TO.P,A1,16,GPIO12_16*%
%TO.N,COL0*%
X61940000Y-8950000D03*
D11*
X61940000Y-9750000D03*
D15*
%TO.P,A1,17,GPIO13_17*%
%TO.N,COL1*%
X64480000Y-8950000D03*
D11*
X64480000Y-9750000D03*
D16*
%TO.P,A1,18,GND_18*%
%TO.N,unconnected-(A1-GND-Pad13)_10*%
X67020000Y-8950000D03*
D17*
%TO.N,unconnected-(A1-GND-Pad13)_2*%
X67020000Y-9750000D03*
D15*
%TO.P,A1,19,GPIO14_19*%
%TO.N,COL2*%
X69560000Y-8950000D03*
D11*
X69560000Y-9750000D03*
D15*
%TO.P,A1,20,GPIO15_20*%
%TO.N,COL3*%
X72100000Y-8950000D03*
D11*
X72100000Y-9750000D03*
%TO.P,A1,21,GPIO16_21*%
%TO.N,COL4*%
X72100000Y-27530000D03*
D15*
X72100000Y-28330000D03*
D11*
%TO.P,A1,22,GPIO17_22*%
%TO.N,COL5*%
X69560000Y-27530000D03*
D15*
X69560000Y-28330000D03*
D18*
%TO.P,A1,23,GND_23*%
%TO.N,unconnected-(A1-GND-Pad13)_5*%
X67020000Y-27530000D03*
D13*
%TO.N,unconnected-(A1-GND-Pad13)_7*%
X67020000Y-28330000D03*
D11*
%TO.P,A1,24,GPIO18_24*%
%TO.N,COL6*%
X64480000Y-27530000D03*
D15*
X64480000Y-28330000D03*
D11*
%TO.P,A1,25,GPIO19_25*%
%TO.N,COL7*%
X61940000Y-27530000D03*
D15*
X61940000Y-28330000D03*
D11*
%TO.P,A1,26,GPIO20_26*%
%TO.N,COL8*%
X59400000Y-27530000D03*
D15*
X59400000Y-28330000D03*
D11*
%TO.P,A1,27,GPIO21_27*%
%TO.N,COL9*%
X56860000Y-27530000D03*
D15*
X56860000Y-28330000D03*
D18*
%TO.P,A1,28,GND_28*%
%TO.N,unconnected-(A1-GND-Pad13)_6*%
X54320000Y-27530000D03*
D13*
%TO.N,unconnected-(A1-GND-Pad13)_13*%
X54320000Y-28330000D03*
D11*
%TO.P,A1,29,GPIO22_29*%
%TO.N,COL10*%
X51780000Y-27530000D03*
D15*
X51780000Y-28330000D03*
D11*
%TO.P,A1,30,RUN_30*%
%TO.N,unconnected-(A1-RUN-Pad30)*%
X49240000Y-27530000D03*
D15*
%TO.N,unconnected-(A1-RUN-Pad30)_1*%
X49240000Y-28330000D03*
D11*
%TO.P,A1,31,GPIO26_ADC0_31*%
%TO.N,unconnected-(A1-GPIO26_ADC0-Pad31)_1*%
X46700000Y-27530000D03*
D15*
%TO.N,unconnected-(A1-GPIO26_ADC0-Pad31)*%
X46700000Y-28330000D03*
D11*
%TO.P,A1,32,GPIO27_ADC1_32*%
%TO.N,unconnected-(A1-GPIO27_ADC1-Pad32)*%
X44160000Y-27530000D03*
D15*
%TO.N,unconnected-(A1-GPIO27_ADC1-Pad32)_1*%
X44160000Y-28330000D03*
D18*
%TO.P,A1,33,AGND_33*%
%TO.N,unconnected-(A1-AGND-Pad33)_1*%
X41620000Y-27530000D03*
D13*
%TO.N,unconnected-(A1-AGND-Pad33)*%
X41620000Y-28330000D03*
D11*
%TO.P,A1,34,GPIO28_ADC2_34*%
%TO.N,unconnected-(A1-GPIO28_ADC2-Pad34)*%
X39080000Y-27530000D03*
D15*
%TO.N,unconnected-(A1-GPIO28_ADC2-Pad34)_1*%
X39080000Y-28330000D03*
D11*
%TO.P,A1,35,ADC_VREF_35*%
%TO.N,unconnected-(A1-ADC_VREF-Pad35)_1*%
X36540000Y-27530000D03*
D15*
%TO.N,unconnected-(A1-ADC_VREF-Pad35)*%
X36540000Y-28330000D03*
D11*
%TO.P,A1,36,3V3_36*%
%TO.N,unconnected-(A1-3V3-Pad36)*%
X34000000Y-27530000D03*
D15*
%TO.N,unconnected-(A1-3V3-Pad36)_1*%
X34000000Y-28330000D03*
D11*
%TO.P,A1,37,3V3_EN_37*%
%TO.N,unconnected-(A1-3V3_EN-Pad37)_1*%
X31460000Y-27530000D03*
D15*
%TO.N,unconnected-(A1-3V3_EN-Pad37)*%
X31460000Y-28330000D03*
D18*
%TO.P,A1,38,GND_38*%
%TO.N,unconnected-(A1-GND-Pad13)_8*%
X28920000Y-27530000D03*
D13*
%TO.N,unconnected-(A1-GND-Pad13)_9*%
X28920000Y-28330000D03*
D11*
%TO.P,A1,39,VSYS_39*%
%TO.N,unconnected-(A1-VSYS-Pad39)*%
X26380000Y-27530000D03*
D15*
%TO.N,unconnected-(A1-VSYS-Pad39)_1*%
X26380000Y-28330000D03*
D11*
%TO.P,A1,40,VBUS_40*%
%TO.N,unconnected-(A1-VBUS-Pad40)_1*%
X23840000Y-27530000D03*
D15*
%TO.N,unconnected-(A1-VBUS-Pad40)*%
X23840000Y-28330000D03*
%TD*%
D19*
%TO.N,ROW1*%
X28980000Y-40280000D03*
X32690000Y-66940000D03*
X44700000Y-66730000D03*
%TO.N,ROW3*%
X46730000Y-104880000D03*
X42110000Y-104880000D03*
%TO.N,COL0*%
X304880000Y-124980000D03*
X250300000Y-123310000D03*
X93680000Y-125660000D03*
X224130000Y-144580000D03*
X255070000Y-113180000D03*
%TO.N,ROW2*%
X49350000Y-56240000D03*
X30660000Y-37570000D03*
X34380000Y-41060000D03*
X65470000Y-85725000D03*
%TO.N,COL10*%
X251250000Y-83050000D03*
X53440000Y-67275000D03*
X258640000Y-83070000D03*
%TO.N,COL7*%
X163770000Y-46510000D03*
X71240000Y-43300000D03*
X319640000Y-23330000D03*
X65220000Y-37750000D03*
X84270000Y-43260000D03*
X212870000Y-23330000D03*
%TO.N,COL2*%
X105710000Y-26690000D03*
%TO.N,COL5*%
X162920000Y-23330000D03*
X173700000Y-25490000D03*
%TO.N,ROW11*%
X79120000Y-11160000D03*
%TO.N,COL6*%
X202870000Y-24800000D03*
X66940000Y-32970000D03*
%TO.N,ROW7*%
X82620000Y-53790000D03*
X242760000Y-64580000D03*
X104370000Y-53660000D03*
X55140000Y-14720000D03*
X57100000Y-16750000D03*
X165940000Y-61680000D03*
X185380000Y-64250000D03*
X65070000Y-41170000D03*
%TO.N,COL3*%
X115420000Y-26090000D03*
%TO.N,ROW5*%
X25235000Y-142875000D03*
%TO.N,COL1*%
X61370000Y-115150000D03*
%TO.N,ROW8*%
X77104265Y-46775735D03*
X66880000Y-46630000D03*
%TO.N,COL4*%
X139110000Y-24740000D03*
X321350000Y-25480000D03*
%TO.N,COL8*%
X236790000Y-124970000D03*
X194987500Y-63542500D03*
X77180000Y-60930000D03*
X106100000Y-62670000D03*
X66170000Y-52810000D03*
X92570000Y-62640000D03*
X60790000Y-48980000D03*
%TO.N,COL9*%
X73050000Y-87310000D03*
X365590000Y-125280000D03*
%TO.N,ROW10*%
X234940000Y-136150000D03*
X97600000Y-120970000D03*
X73840000Y-65270000D03*
X101740000Y-122890000D03*
X262370000Y-135050000D03*
%TO.N,ROW0*%
X66675000Y-47625000D03*
X34660000Y-42670000D03*
X42080000Y-47730000D03*
X79070000Y-47680000D03*
X27215000Y-37270000D03*
%TD*%
%TO.N,ROW1*%
D20*
X28980000Y-40280000D02*
X28980000Y-63230000D01*
X28980000Y-63230000D02*
X32690000Y-66940000D01*
X44700000Y-66730000D02*
X44755000Y-66675000D01*
X44755000Y-66675000D02*
X47625000Y-66675000D01*
%TO.N,ROW3*%
X42110000Y-104880000D02*
X46730000Y-104880000D01*
%TO.N,COL0*%
X53245820Y-16200000D02*
X42725000Y-26720820D01*
X245337512Y-95905256D02*
X254973651Y-105541395D01*
X240665000Y-85497488D02*
X245337512Y-90170000D01*
X224130000Y-144580000D02*
X229030000Y-144580000D01*
X240665000Y-71120000D02*
X240665000Y-85497488D01*
X304880000Y-124980000D02*
X304880000Y-125230000D01*
X254973651Y-112693651D02*
X254973651Y-109220000D01*
X55490000Y-16200000D02*
X53245820Y-16200000D01*
X255070000Y-113180000D02*
X255070000Y-112790000D01*
X42800000Y-68160000D02*
X42800000Y-68517352D01*
X52433209Y-94918209D02*
X52433209Y-109220000D01*
X255070000Y-112790000D02*
X254973651Y-112693651D01*
X42800000Y-68517352D02*
X45402648Y-71120000D01*
X90485660Y-128270000D02*
X93095660Y-125660000D01*
X42725000Y-26720820D02*
X42725000Y-30935000D01*
X304974318Y-125324318D02*
X304974318Y-128270000D01*
X304880000Y-125230000D02*
X304974318Y-125324318D01*
X40640000Y-52070000D02*
X40640000Y-66000000D01*
X45402648Y-87887648D02*
X47685000Y-90170000D01*
X52433209Y-109220000D02*
X71483209Y-128270000D01*
X245337512Y-90170000D02*
X245337512Y-95905256D01*
X40640000Y-52070000D02*
X40640000Y-33020000D01*
X269240000Y-33020000D02*
X262604365Y-33020000D01*
X243554365Y-52070000D02*
X240665000Y-54959365D01*
X47685000Y-90170000D02*
X52433209Y-94918209D01*
X229030000Y-144580000D02*
X250300000Y-123310000D01*
X61940000Y-9750000D02*
X55490000Y-16200000D01*
X71483209Y-128270000D02*
X90485660Y-128270000D01*
X262604365Y-33020000D02*
X243554365Y-52070000D01*
X40640000Y-66000000D02*
X42800000Y-68160000D01*
X243554365Y-52070000D02*
X231140000Y-52070000D01*
X93095660Y-125660000D02*
X93680000Y-125660000D01*
X45402648Y-71120000D02*
X45402648Y-87887648D01*
X42725000Y-30935000D02*
X40640000Y-33020000D01*
X240665000Y-54959365D02*
X240665000Y-71120000D01*
X254973651Y-105541395D02*
X254973651Y-109220000D01*
%TO.N,ROW2*%
X30660000Y-37570000D02*
X34150000Y-41060000D01*
X34150000Y-41060000D02*
X34380000Y-41060000D01*
X58640000Y-74080000D02*
X58640000Y-78820000D01*
X49350000Y-64790000D02*
X58640000Y-74080000D01*
X58640000Y-78820000D02*
X65510000Y-85690000D01*
X65510000Y-85690000D02*
X65475000Y-85725000D01*
X65470000Y-85725000D02*
X70685000Y-85725000D01*
X49350000Y-56240000D02*
X49350000Y-64790000D01*
X70685000Y-85725000D02*
X70700000Y-85740000D01*
X65475000Y-85725000D02*
X57150000Y-85725000D01*
%TO.N,COL10*%
X51780000Y-55029899D02*
X53440000Y-56689899D01*
X440690000Y-75565000D02*
X440690000Y-52070000D01*
X258620000Y-83050000D02*
X258640000Y-83070000D01*
X51780000Y-28330000D02*
X51780000Y-55029899D01*
X251250000Y-83050000D02*
X258620000Y-83050000D01*
X53440000Y-56689899D02*
X53440000Y-67275000D01*
X433070000Y-83185000D02*
X433070000Y-121285000D01*
X433070000Y-83185000D02*
X440690000Y-75565000D01*
%TO.N,COL7*%
X183515000Y-71120000D02*
X183515000Y-85497488D01*
X383540000Y-118745000D02*
X393065000Y-128270000D01*
X61940000Y-34470000D02*
X65220000Y-37750000D01*
X189330000Y-52070000D02*
X188150000Y-53250000D01*
X188150000Y-66485000D02*
X183515000Y-71120000D01*
X202565000Y-38883402D02*
X189378402Y-52070000D01*
X202565000Y-33020000D02*
X202565000Y-38883402D01*
X402590000Y-33020000D02*
X402590000Y-39050000D01*
X189330000Y-52070000D02*
X173990000Y-52070000D01*
X168430000Y-46510000D02*
X173990000Y-52070000D01*
X389570000Y-52070000D02*
X383540000Y-52070000D01*
X389425000Y-65235000D02*
X383540000Y-71120000D01*
X163770000Y-46510000D02*
X168430000Y-46510000D01*
X61940000Y-28330000D02*
X61940000Y-34470000D01*
X402590000Y-39050000D02*
X389570000Y-52070000D01*
X197732768Y-109220000D02*
X197823651Y-109220000D01*
X389425000Y-52215000D02*
X389425000Y-65235000D01*
X188150000Y-53250000D02*
X188150000Y-66485000D01*
X189378402Y-52070000D02*
X189330000Y-52070000D01*
X383540000Y-109220000D02*
X383540000Y-118745000D01*
X188187512Y-90170000D02*
X188187512Y-99674744D01*
X188187512Y-99674744D02*
X197732768Y-109220000D01*
X319640000Y-23330000D02*
X212870000Y-23330000D01*
X71240000Y-43300000D02*
X84230000Y-43300000D01*
X84230000Y-43300000D02*
X84270000Y-43260000D01*
X183515000Y-85497488D02*
X188187512Y-90170000D01*
X383540000Y-90170000D02*
X383540000Y-109220000D01*
X389570000Y-52070000D02*
X389425000Y-52215000D01*
X383540000Y-71120000D02*
X383540000Y-90170000D01*
%TO.N,COL2*%
X284650000Y-77005000D02*
X284650000Y-79391066D01*
X88265000Y-85497488D02*
X92937512Y-90170000D01*
X78740000Y-51280000D02*
X78740000Y-52070000D01*
X97790000Y-33020000D02*
X97000000Y-33020000D01*
X102573651Y-109220000D02*
X102573651Y-118161908D01*
X105710000Y-26690000D02*
X301010000Y-26690000D01*
X269240000Y-61595000D02*
X278765000Y-71120000D01*
X78740000Y-63340000D02*
X86520000Y-71120000D01*
X91065559Y-129670000D02*
X84975559Y-129670000D01*
X102573651Y-118161908D02*
X91065559Y-129670000D01*
X307340000Y-33020000D02*
X306497056Y-33020000D01*
X269240000Y-52070000D02*
X269240000Y-61595000D01*
X287447056Y-52070000D02*
X269240000Y-52070000D01*
X278765000Y-71120000D02*
X284650000Y-77005000D01*
X92937512Y-90170000D02*
X92937512Y-99583861D01*
X86520000Y-71120000D02*
X88265000Y-71120000D01*
X67122091Y-128670000D02*
X66722091Y-128270000D01*
X78740000Y-52070000D02*
X78740000Y-63340000D01*
X306497056Y-33020000D02*
X287447056Y-52070000D01*
X88265000Y-71120000D02*
X88265000Y-85497488D01*
X84975559Y-129670000D02*
X83975559Y-128670000D01*
X92937512Y-99583861D02*
X102573651Y-109220000D01*
X301010000Y-26690000D02*
X307340000Y-33020000D01*
X83975559Y-128670000D02*
X67122091Y-128670000D01*
X284650000Y-79391066D02*
X295428934Y-90170000D01*
X97000000Y-33020000D02*
X78740000Y-51280000D01*
%TO.N,COL5*%
X150087512Y-95905256D02*
X150087512Y-90170000D01*
X345440000Y-52070000D02*
X345440000Y-71115795D01*
X173700000Y-25490000D02*
X319425686Y-25490000D01*
X135890000Y-61595000D02*
X135890000Y-52070000D01*
X364490000Y-33020000D02*
X363647056Y-33020000D01*
X159723651Y-126006829D02*
X159723651Y-109220000D01*
X319425686Y-25490000D02*
X325105686Y-31170000D01*
X325105686Y-31170000D02*
X362640000Y-31170000D01*
X161986822Y-128270000D02*
X159723651Y-126006829D01*
X162920000Y-23330000D02*
X73760000Y-23330000D01*
X362640000Y-31170000D02*
X364490000Y-33020000D01*
X345440000Y-71115795D02*
X345440000Y-109220000D01*
X135890000Y-52070000D02*
X154940000Y-33020000D01*
X363647056Y-33020000D02*
X345440000Y-51227056D01*
X345440000Y-128270000D02*
X345440000Y-109220000D01*
X150087512Y-90170000D02*
X150087512Y-75792512D01*
X345440000Y-51227056D02*
X345440000Y-52070000D01*
X150087512Y-75792512D02*
X145415000Y-71120000D01*
X159723651Y-109220000D02*
X159723651Y-105541395D01*
X159723651Y-105541395D02*
X150087512Y-95905256D01*
X145415000Y-71120000D02*
X135890000Y-61595000D01*
X73760000Y-23330000D02*
X69560000Y-27530000D01*
X154940000Y-33020000D02*
X164465000Y-33020000D01*
%TO.N,ROW11*%
X449121598Y-129670000D02*
X449150000Y-129670000D01*
X450200000Y-14370000D02*
X79890000Y-14370000D01*
X435916598Y-142875000D02*
X449121598Y-129670000D01*
X455060000Y-123760000D02*
X455060000Y-19230000D01*
X455060000Y-19230000D02*
X450200000Y-14370000D01*
X449150000Y-129670000D02*
X455060000Y-123760000D01*
X427410000Y-142875000D02*
X435916598Y-142875000D01*
X79120000Y-13600000D02*
X79120000Y-11160000D01*
X79890000Y-14370000D02*
X79120000Y-13600000D01*
%TO.N,COL6*%
X378140000Y-27620000D02*
X383540000Y-33020000D01*
X173990000Y-33020000D02*
X154940000Y-52070000D01*
X364490000Y-52070000D02*
X364490000Y-71120000D01*
X364490000Y-71120000D02*
X364490000Y-128270000D01*
X199640000Y-128270000D02*
X233443097Y-128270000D01*
X178773651Y-109220000D02*
X180590000Y-109220000D01*
X154940000Y-61595000D02*
X164465000Y-71120000D01*
X364490000Y-51260000D02*
X364490000Y-52070000D01*
X322240000Y-27510000D02*
X378140000Y-27510000D01*
X319530000Y-24800000D02*
X322240000Y-27510000D01*
X383540000Y-33020000D02*
X382730000Y-33020000D01*
X164465000Y-85497488D02*
X169137512Y-90170000D01*
X169137512Y-99674744D02*
X178682768Y-109220000D01*
X202870000Y-24800000D02*
X319530000Y-24800000D01*
X154940000Y-52070000D02*
X154940000Y-61595000D01*
X202400000Y-24330000D02*
X175300000Y-24330000D01*
X202870000Y-24800000D02*
X202400000Y-24330000D01*
X382730000Y-33020000D02*
X364490000Y-51260000D01*
X178682768Y-109220000D02*
X178773651Y-109220000D01*
X169137512Y-90170000D02*
X169137512Y-99674744D01*
X183515000Y-33020000D02*
X173990000Y-33020000D01*
X378140000Y-27510000D02*
X378140000Y-27620000D01*
X64480000Y-30510000D02*
X64480000Y-28330000D01*
X164465000Y-71120000D02*
X164465000Y-85497488D01*
X66940000Y-32970000D02*
X64480000Y-30510000D01*
X180590000Y-109220000D02*
X199640000Y-128270000D01*
%TO.N,ROW7*%
X60750000Y-36850000D02*
X65070000Y-41170000D01*
X94910000Y-53610000D02*
X104320000Y-53610000D01*
X57100000Y-16750000D02*
X60750000Y-20400000D01*
X165940000Y-61680000D02*
X182810000Y-61680000D01*
X87900000Y-53790000D02*
X89620000Y-52070000D01*
X51670000Y-14720000D02*
X55140000Y-14720000D01*
X60750000Y-20400000D02*
X60750000Y-36850000D01*
X104320000Y-53610000D02*
X104370000Y-53660000D01*
X82620000Y-53790000D02*
X87900000Y-53790000D01*
X182810000Y-61680000D02*
X185380000Y-64250000D01*
X46700000Y-9750000D02*
X51670000Y-14720000D01*
X89620000Y-52070000D02*
X93370000Y-52070000D01*
X251480000Y-63870000D02*
X254285000Y-66675000D01*
X242760000Y-64580000D02*
X243470000Y-63870000D01*
X254285000Y-66675000D02*
X257175000Y-66675000D01*
X243470000Y-63870000D02*
X251480000Y-63870000D01*
X93370000Y-52070000D02*
X94910000Y-53610000D01*
%TO.N,COL3*%
X103653402Y-52070000D02*
X97790000Y-52070000D01*
X314220000Y-59509300D02*
X302609300Y-71120000D01*
X103816701Y-51906701D02*
X103653402Y-52070000D01*
X107315000Y-55405000D02*
X107315000Y-71120000D01*
X111987512Y-90170000D02*
X111987512Y-99674744D01*
X107315000Y-71120000D02*
X107315000Y-85497488D01*
X116840000Y-38883402D02*
X103816701Y-51906701D01*
X115420000Y-26090000D02*
X319460000Y-26090000D01*
X107315000Y-85497488D02*
X111987512Y-90170000D01*
X103816701Y-51906701D02*
X107315000Y-55405000D01*
X121532768Y-109220000D02*
X121623651Y-109220000D01*
X116840000Y-33020000D02*
X116840000Y-38883402D01*
X319460000Y-26090000D02*
X326390000Y-33020000D01*
X314220000Y-52070000D02*
X297815000Y-52070000D01*
X326390000Y-39900000D02*
X314220000Y-52070000D01*
X326390000Y-33020000D02*
X326390000Y-39900000D01*
X111987512Y-99674744D02*
X121532768Y-109220000D01*
X314220000Y-52070000D02*
X314220000Y-59509300D01*
%TO.N,ROW5*%
X30360000Y-27074365D02*
X30360000Y-29252708D01*
X30360000Y-29252708D02*
X23212708Y-36400000D01*
X39080000Y-9750000D02*
X39080000Y-18354365D01*
X23170000Y-36400000D02*
X23170000Y-140810000D01*
X39080000Y-18354365D02*
X30360000Y-27074365D01*
X23170000Y-140810000D02*
X25235000Y-142875000D01*
X23212708Y-36400000D02*
X23170000Y-36400000D01*
%TO.N,COL1*%
X77897056Y-33020000D02*
X66248528Y-44668528D01*
X283450000Y-27340000D02*
X286010000Y-29900000D01*
X271620138Y-90170000D02*
X290670138Y-109220000D01*
X269819899Y-50670000D02*
X251590000Y-50670000D01*
X63380000Y-10850000D02*
X64480000Y-9750000D01*
X83523651Y-109220000D02*
X67300000Y-109220000D01*
X67300000Y-109220000D02*
X61370000Y-115150000D01*
X82850000Y-33020000D02*
X88530000Y-27340000D01*
X73887512Y-90170000D02*
X73887512Y-95905256D01*
X259715000Y-71120000D02*
X259715000Y-85497488D01*
X251590000Y-50670000D02*
X250190000Y-52070000D01*
X251590000Y-50670000D02*
X259715000Y-58795000D01*
X66248528Y-44668528D02*
X59690000Y-51227056D01*
X73887512Y-75792512D02*
X73887512Y-90170000D01*
X78740000Y-33020000D02*
X82850000Y-33020000D01*
X78740000Y-33020000D02*
X77897056Y-33020000D01*
X88530000Y-27340000D02*
X283450000Y-27340000D01*
X83523651Y-105541395D02*
X83523651Y-109220000D01*
X73887512Y-95905256D02*
X83523651Y-105541395D01*
X288290000Y-33020000D02*
X287469899Y-33020000D01*
X59690000Y-51227056D02*
X59690000Y-52070000D01*
X63380000Y-31060000D02*
X63380000Y-10850000D01*
X287469899Y-33020000D02*
X269819899Y-50670000D01*
X59690000Y-61595000D02*
X69215000Y-71120000D01*
X286010000Y-29900000D02*
X286010000Y-30740000D01*
X66248528Y-44668528D02*
X66248528Y-33928528D01*
X59690000Y-52070000D02*
X59690000Y-61595000D01*
X66248528Y-33928528D02*
X63380000Y-31060000D01*
X259715000Y-58795000D02*
X259715000Y-71120000D01*
X264387512Y-90170000D02*
X271620138Y-90170000D01*
X259715000Y-85497488D02*
X264387512Y-90170000D01*
X286010000Y-30740000D02*
X288290000Y-33020000D01*
X69215000Y-71120000D02*
X73887512Y-75792512D01*
%TO.N,ROW6*%
X332980000Y-97260000D02*
X340550000Y-89690000D01*
X48080000Y-129303389D02*
X48080000Y-146440000D01*
X40180000Y-13730000D02*
X40180000Y-29585636D01*
X335500000Y-49750000D02*
X333375000Y-47625000D01*
X340550000Y-89690000D02*
X340550000Y-81810000D01*
X51500000Y-149860000D02*
X303979899Y-149860000D01*
X48080000Y-146440000D02*
X51500000Y-149860000D01*
X332980000Y-123659899D02*
X332980000Y-97260000D01*
X303979899Y-149860000D02*
X324169899Y-129670000D01*
X35750000Y-34015636D02*
X35750000Y-116973389D01*
X326969899Y-129670000D02*
X332980000Y-123659899D01*
X335500000Y-76760000D02*
X335500000Y-49750000D01*
X35750000Y-116973389D02*
X48080000Y-129303389D01*
X340550000Y-81810000D02*
X335500000Y-76760000D01*
X44160000Y-9750000D02*
X40180000Y-13730000D01*
X40180000Y-29585636D02*
X35750000Y-34015636D01*
X324169899Y-129670000D02*
X326969899Y-129670000D01*
%TO.N,ROW8*%
X76958530Y-46630000D02*
X77104265Y-46775735D01*
X66880000Y-46630000D02*
X76958530Y-46630000D01*
%TO.N,COL4*%
X131037512Y-99583861D02*
X140673651Y-109220000D01*
X126365000Y-71120000D02*
X126365000Y-85497488D01*
X126365000Y-85497488D02*
X131037512Y-90170000D01*
X135890000Y-38883402D02*
X122703402Y-52070000D01*
X139920000Y-23930000D02*
X139110000Y-24740000D01*
X326390000Y-51286598D02*
X326390000Y-52070000D01*
X326390000Y-71120000D02*
X326390000Y-128270000D01*
X321350000Y-25480000D02*
X319800000Y-23930000D01*
X122703402Y-52070000D02*
X122703402Y-67458402D01*
X122703402Y-67458402D02*
X126365000Y-71120000D01*
X326390000Y-52070000D02*
X326390000Y-71120000D01*
X319800000Y-23930000D02*
X139920000Y-23930000D01*
X139110000Y-24740000D02*
X75690000Y-24740000D01*
X75690000Y-24740000D02*
X72100000Y-28330000D01*
X345440000Y-33020000D02*
X344656598Y-33020000D01*
X122703402Y-52070000D02*
X116840000Y-52070000D01*
X344656598Y-33020000D02*
X326390000Y-51286598D01*
X131037512Y-90170000D02*
X131037512Y-99583861D01*
X135890000Y-33020000D02*
X135890000Y-38883402D01*
%TO.N,COL8*%
X207237512Y-75792512D02*
X202565000Y-71120000D01*
X218620000Y-109220000D02*
X216873651Y-109220000D01*
X193040000Y-52070000D02*
X212090000Y-33020000D01*
X216873651Y-109220000D02*
X215318017Y-109220000D01*
X207237512Y-90170000D02*
X207237512Y-75792512D01*
X92570000Y-62640000D02*
X106070000Y-62640000D01*
X408453402Y-52070000D02*
X408453402Y-65256598D01*
X212090000Y-33020000D02*
X221615000Y-33020000D01*
X408453402Y-65256598D02*
X402590000Y-71120000D01*
X202565000Y-71120000D02*
X194885000Y-63440000D01*
X66170000Y-52810000D02*
X66170000Y-54810000D01*
X59400000Y-28330000D02*
X59400000Y-47590000D01*
X193040000Y-61595000D02*
X193040000Y-52070000D01*
X226850000Y-117450000D02*
X218620000Y-109220000D01*
X106070000Y-62640000D02*
X106100000Y-62670000D01*
X421640000Y-33020000D02*
X421640000Y-38883402D01*
X59400000Y-47590000D02*
X60790000Y-48980000D01*
X215318017Y-109220000D02*
X207237512Y-101139495D01*
X408453402Y-52070000D02*
X402590000Y-52070000D01*
X207237512Y-101139495D02*
X207237512Y-90170000D01*
X236790000Y-124970000D02*
X229270000Y-117450000D01*
X66170000Y-54810000D02*
X72290000Y-60930000D01*
X229270000Y-117450000D02*
X226850000Y-117450000D01*
X194885000Y-63440000D02*
X193040000Y-61595000D01*
X72290000Y-60930000D02*
X77180000Y-60930000D01*
X402590000Y-71120000D02*
X402590000Y-90170000D01*
X402590000Y-90170000D02*
X402590000Y-109220000D01*
X421640000Y-38883402D02*
X408453402Y-52070000D01*
%TO.N,COL9*%
X54800000Y-30390000D02*
X54800000Y-68610000D01*
X259214899Y-128270000D02*
X281043063Y-128270000D01*
X421640000Y-71120000D02*
X421640000Y-90170000D01*
X236486294Y-105541395D02*
X259214899Y-128270000D01*
X221615000Y-85497488D02*
X226287512Y-90170000D01*
X392485101Y-129670000D02*
X392225101Y-129410000D01*
X393644899Y-129670000D02*
X392485101Y-129670000D01*
X59040000Y-72850000D02*
X59040000Y-76250000D01*
X421640000Y-64484365D02*
X421640000Y-71120000D01*
X421640000Y-128270000D02*
X395044899Y-128270000D01*
X231140000Y-33020000D02*
X212090000Y-52070000D01*
X392225101Y-129410000D02*
X370290000Y-129410000D01*
X366340000Y-125460000D02*
X365770000Y-125460000D01*
X212090000Y-61595000D02*
X221615000Y-71120000D01*
X370290000Y-129410000D02*
X366340000Y-125460000D01*
X235923651Y-105541395D02*
X236486294Y-105541395D01*
X59040000Y-76250000D02*
X60790000Y-78000000D01*
X63740000Y-78000000D02*
X73050000Y-87310000D01*
X226287512Y-90170000D02*
X226287512Y-95905256D01*
X235923651Y-105541395D02*
X235923651Y-109220000D01*
X440690000Y-45434365D02*
X434054365Y-52070000D01*
X56860000Y-28330000D02*
X54800000Y-30390000D01*
X221615000Y-71120000D02*
X221615000Y-85497488D01*
X434054365Y-52070000D02*
X421640000Y-64484365D01*
X434054365Y-52070000D02*
X421640000Y-52070000D01*
X212090000Y-52070000D02*
X212090000Y-61595000D01*
X250190000Y-33020000D02*
X231140000Y-33020000D01*
X54800000Y-68610000D02*
X59040000Y-72850000D01*
X365770000Y-125460000D02*
X365590000Y-125280000D01*
X60790000Y-78000000D02*
X63740000Y-78000000D01*
X226287512Y-95905256D02*
X235923651Y-105541395D01*
X395044899Y-128270000D02*
X393644899Y-129670000D01*
X440690000Y-33020000D02*
X440690000Y-45434365D01*
X421640000Y-109220000D02*
X421640000Y-128270000D01*
X421640000Y-90170000D02*
X421640000Y-109220000D01*
%TO.N,ROW10*%
X221230000Y-131210000D02*
X226170000Y-136150000D01*
X277020000Y-129760000D02*
X295000000Y-129760000D01*
X216840000Y-131210000D02*
X221230000Y-131210000D01*
X97600000Y-119360000D02*
X97600000Y-120970000D01*
X262370000Y-135050000D02*
X268300000Y-129120000D01*
X295290000Y-129470000D02*
X296423540Y-129470000D01*
X102080000Y-122890000D02*
X116600000Y-137410000D01*
X116600000Y-137410000D02*
X210580000Y-137410000D01*
X101740000Y-122890000D02*
X102080000Y-122890000D01*
X83710000Y-81730000D02*
X83710000Y-96250000D01*
X210580000Y-137410000D02*
X216810000Y-131180000D01*
X268300000Y-129120000D02*
X276380000Y-129120000D01*
X92040000Y-113800000D02*
X97600000Y-119360000D01*
X83710000Y-96250000D02*
X92040000Y-104580000D01*
X73840000Y-65270000D02*
X73840000Y-71860000D01*
X302068540Y-123825000D02*
X314323888Y-123825000D01*
X276380000Y-129120000D02*
X277020000Y-129760000D01*
X73840000Y-71860000D02*
X83710000Y-81730000D01*
X295000000Y-129760000D02*
X295290000Y-129470000D01*
X92040000Y-104580000D02*
X92040000Y-113800000D01*
X226170000Y-136150000D02*
X234940000Y-136150000D01*
X216810000Y-131180000D02*
X216840000Y-131210000D01*
X296423540Y-129470000D02*
X302068540Y-123825000D01*
%TO.N,ROW0*%
X31370000Y-39830000D02*
X34210000Y-42670000D01*
X42080000Y-47730000D02*
X42185000Y-47625000D01*
X42185000Y-47625000D02*
X47625000Y-47625000D01*
X29775000Y-39830000D02*
X31370000Y-39830000D01*
X79070000Y-47680000D02*
X66730000Y-47680000D01*
X66730000Y-47680000D02*
X66675000Y-47625000D01*
X27215000Y-37270000D02*
X29775000Y-39830000D01*
X34210000Y-42670000D02*
X34660000Y-42670000D01*
%TD*%
M02*
