%TF.GenerationSoftware,KiCad,Pcbnew,10.0.5*%
%TF.CreationDate,2026-10-05T21:06:53+05:00*%
%TF.ProjectId,custom keyboard,63757374-6f6d-4206-9b65-79626f617264,rev?*%
%TF.SameCoordinates,Original*%
%TF.FileFunction,Copper,L1,Top*%
%TF.FilePolarity,Positive*%
%FSLAX46Y46*%
G04 Gerber Fmt 4.6, Leading zero omitted, Abs format (unit mm)*
G04 Created by KiCad (PCBNEW 10.0.5) date 2026-10-05 21:06:53*
%MOMM*%
%LPD*%
G01*
G04 APERTURE LIST*
G04 Aperture macros list*
%AMRoundRect*
0 Rectangle with rounded corners*
0 $1 Rounding radius*
0 $2 $3 $4 $5 $6 $7 $8 $9 X,Y pos of 4 corners*
0 Add a 4 corners polygon primitive as box body*
4,1,4,$2,$3,$4,$5,$6,$7,$8,$9,$2,$3,0*
0 Add four circle primitives for the rounded corners*
1,1,$1+$1,$2,$3*
1,1,$1+$1,$4,$5*
1,1,$1+$1,$6,$7*
1,1,$1+$1,$8,$9*
0 Add four rect primitives between the rounded corners*
20,1,$1+$1,$2,$3,$4,$5,0*
20,1,$1+$1,$4,$5,$6,$7,0*
20,1,$1+$1,$6,$7,$8,$9,0*
20,1,$1+$1,$8,$9,$2,$3,0*%
%AMFreePoly0*
4,1,37,0.603843,0.796157,0.639018,0.796157,0.711114,0.766294,0.766294,0.711114,0.796157,0.639018,0.796157,0.603843,0.800000,0.600000,0.800000,-0.600000,0.796157,-0.603843,0.796157,-0.639018,0.766294,-0.711114,0.711114,-0.766294,0.639018,-0.796157,0.603843,-0.796157,0.600000,-0.800000,0.000000,-0.800000,0.000000,-0.796148,-0.078414,-0.796148,-0.232228,-0.765552,-0.377117,-0.705537,
-0.507515,-0.618408,-0.618408,-0.507515,-0.705537,-0.377117,-0.765552,-0.232228,-0.796148,-0.078414,-0.796148,0.078414,-0.765552,0.232228,-0.705537,0.377117,-0.618408,0.507515,-0.507515,0.618408,-0.377117,0.705537,-0.232228,0.765552,-0.078414,0.796148,0.000000,0.796148,0.000000,0.800000,0.600000,0.800000,0.603843,0.796157,0.603843,0.796157,$1*%
%AMFreePoly1*
4,1,37,0.000000,0.796148,0.078414,0.796148,0.232228,0.765552,0.377117,0.705537,0.507515,0.618408,0.618408,0.507515,0.705537,0.377117,0.765552,0.232228,0.796148,0.078414,0.796148,-0.078414,0.765552,-0.232228,0.705537,-0.377117,0.618408,-0.507515,0.507515,-0.618408,0.377117,-0.705537,0.232228,-0.765552,0.078414,-0.796148,0.000000,-0.796148,0.000000,-0.800000,-0.600000,-0.800000,
-0.603843,-0.796157,-0.639018,-0.796157,-0.711114,-0.766294,-0.766294,-0.711114,-0.796157,-0.639018,-0.796157,-0.603843,-0.800000,-0.600000,-0.800000,0.600000,-0.796157,0.603843,-0.796157,0.639018,-0.766294,0.711114,-0.711114,0.766294,-0.639018,0.796157,-0.603843,0.796157,-0.600000,0.800000,0.000000,0.800000,0.000000,0.796148,0.000000,0.796148,$1*%
G04 Aperture macros list end*
%TA.AperFunction,ComponentPad*%
%ADD10RoundRect,0.250000X0.550000X-0.550000X0.550000X0.550000X-0.550000X0.550000X-0.550000X-0.550000X0*%
%TD*%
%TA.AperFunction,ComponentPad*%
%ADD11C,1.600000*%
%TD*%
%TA.AperFunction,ComponentPad*%
%ADD12C,2.200000*%
%TD*%
%TA.AperFunction,ComponentPad*%
%ADD13RoundRect,0.200000X-0.600000X0.600000X-0.600000X-0.600000X0.600000X-0.600000X0.600000X0.600000X0*%
%TD*%
%TA.AperFunction,ComponentPad*%
%ADD14FreePoly0,270.000000*%
%TD*%
%TA.AperFunction,ComponentPad*%
%ADD15FreePoly1,270.000000*%
%TD*%
%TA.AperFunction,ViaPad*%
%ADD16C,0.600000*%
%TD*%
%TA.AperFunction,Conductor*%
%ADD17C,0.200000*%
%TD*%
G04 APERTURE END LIST*
D10*
%TO.P,D29,1,K_1*%
%TO.N,ROW1*%
X200025000Y-66675000D03*
D11*
%TO.P,D29,2,A_2*%
%TO.N,Net-(D29-A)*%
X200025000Y-59055000D03*
%TD*%
D10*
%TO.P,D66,1,K_1*%
%TO.N,ROW3*%
X118972512Y-104775000D03*
D11*
%TO.P,D66,2,A_2*%
%TO.N,Net-(D66-A)*%
X118972512Y-97155000D03*
%TD*%
D12*
%TO.P,SW79,1,1_1*%
%TO.N,COL0*%
X52433209Y-109220000D03*
%TO.P,SW79,2,2_2*%
%TO.N,Net-(D79-A)*%
X46083209Y-111760000D03*
%TD*%
D10*
%TO.P,D49,1,K_1*%
%TO.N,ROW2*%
X190500000Y-85725000D03*
D11*
%TO.P,D49,2,A_2*%
%TO.N,Net-(D49-A)*%
X190500000Y-78105000D03*
%TD*%
D12*
%TO.P,SW41,1,1_1*%
%TO.N,COL10*%
X440690000Y-52070000D03*
%TO.P,SW41,2,2_2*%
%TO.N,Net-(D41-A)*%
X434340000Y-54610000D03*
%TD*%
%TO.P,SW70,1,1_1*%
%TO.N,COL7*%
X188187512Y-90170000D03*
%TO.P,SW70,2,2_2*%
%TO.N,Net-(D70-A)*%
X181837512Y-92710000D03*
%TD*%
%TO.P,SW81,1,1_1*%
%TO.N,COL2*%
X102573651Y-109220000D03*
%TO.P,SW81,2,2_2*%
%TO.N,Net-(D81-A)*%
X96223651Y-111760000D03*
%TD*%
%TO.P,SW68,1,1_1*%
%TO.N,COL5*%
X150087512Y-90170000D03*
%TO.P,SW68,2,2_2*%
%TO.N,Net-(D68-A)*%
X143737512Y-92710000D03*
%TD*%
D10*
%TO.P,D106,1,K_1*%
%TO.N,ROW11*%
X371475000Y-142875000D03*
D11*
%TO.P,D106,2,A_2*%
%TO.N,Net-(D106-A)*%
X371475000Y-135255000D03*
%TD*%
D12*
%TO.P,SW27,1,1_1*%
%TO.N,COL6*%
X154940000Y-52070000D03*
%TO.P,SW27,2,2_2*%
%TO.N,Net-(D27-A)*%
X148590000Y-54610000D03*
%TD*%
D10*
%TO.P,D83,1,K_1*%
%TO.N,ROW4*%
X147658651Y-123825000D03*
D11*
%TO.P,D83,2,A_2*%
%TO.N,Net-(D83-A)*%
X147658651Y-116205000D03*
%TD*%
D10*
%TO.P,D88,1,K_1*%
%TO.N,ROW4*%
X242908651Y-123825000D03*
D11*
%TO.P,D88,2,A_2*%
%TO.N,Net-(D88-A)*%
X242908651Y-116205000D03*
%TD*%
D10*
%TO.P,D37,1,K_1*%
%TO.N,ROW7*%
X371475000Y-66675000D03*
D11*
%TO.P,D37,2,A_2*%
%TO.N,Net-(D37-A)*%
X371475000Y-59055000D03*
%TD*%
D12*
%TO.P,SW89,1,1_1*%
%TO.N,COL0*%
X254973651Y-109220000D03*
%TO.P,SW89,2,2_2*%
%TO.N,Net-(D89-A)*%
X248623651Y-111760000D03*
%TD*%
D10*
%TO.P,D68,1,K_1*%
%TO.N,ROW3*%
X157072512Y-104775000D03*
D11*
%TO.P,D68,2,A_2*%
%TO.N,Net-(D68-A)*%
X157072512Y-97155000D03*
%TD*%
D12*
%TO.P,SW45,1,1_1*%
%TO.N,COL3*%
X107315000Y-71120000D03*
%TO.P,SW45,2,2_2*%
%TO.N,Net-(D45-A)*%
X100965000Y-73660000D03*
%TD*%
D10*
%TO.P,D101,1,K_1*%
%TO.N,ROW5*%
X266700000Y-142875000D03*
D11*
%TO.P,D101,2,A_2*%
%TO.N,Net-(D101-A)*%
X266700000Y-135255000D03*
%TD*%
D12*
%TO.P,SW75,1,1_1*%
%TO.N,COL2*%
X295428934Y-90170000D03*
%TO.P,SW75,2,2_2*%
%TO.N,Net-(D75-A)*%
X289078934Y-92710000D03*
%TD*%
%TO.P,SW111,1,1_1*%
%TO.N,COL0*%
X90485660Y-128270000D03*
%TO.P,SW111,2,2_2*%
%TO.N,Net-(D96-A)*%
X84135660Y-130810000D03*
%TD*%
%TO.P,SW38,1,1_1*%
%TO.N,COL7*%
X383540000Y-52070000D03*
%TO.P,SW38,2,2_2*%
%TO.N,Net-(D38-A)*%
X377190000Y-54610000D03*
%TD*%
%TO.P,SW54,1,1_1*%
%TO.N,COL2*%
X278765000Y-71120000D03*
%TO.P,SW54,2,2_2*%
%TO.N,Net-(D54-A)*%
X272415000Y-73660000D03*
%TD*%
%TO.P,SW53,1,1_1*%
%TO.N,COL1*%
X259715000Y-71120000D03*
%TO.P,SW53,2,2_2*%
%TO.N,Net-(D53-A)*%
X253365000Y-73660000D03*
%TD*%
D10*
%TO.P,D17,1,K_1*%
%TO.N,ROW6*%
X390525000Y-47625000D03*
D11*
%TO.P,D17,2,A_2*%
%TO.N,Net-(D17-A)*%
X390525000Y-40005000D03*
%TD*%
D10*
%TO.P,D62,1,K_1*%
%TO.N,ROW8*%
X447675000Y-85725000D03*
D11*
%TO.P,D62,2,A_2*%
%TO.N,Net-(D62-A)*%
X447675000Y-78105000D03*
%TD*%
D12*
%TO.P,SW67,1,1_1*%
%TO.N,COL4*%
X131037512Y-90170000D03*
%TO.P,SW67,2,2_2*%
%TO.N,Net-(D67-A)*%
X124687512Y-92710000D03*
%TD*%
%TO.P,SW13,1,1_1*%
%TO.N,COL2*%
X307340000Y-33020000D03*
%TO.P,SW13,2,2_2*%
%TO.N,Net-(D13-A)*%
X300990000Y-35560000D03*
%TD*%
D10*
%TO.P,D31,1,K_1*%
%TO.N,ROW1*%
X238125000Y-66675000D03*
D11*
%TO.P,D31,2,A_2*%
%TO.N,Net-(D31-A)*%
X238125000Y-59055000D03*
%TD*%
D12*
%TO.P,SW39,1,1_1*%
%TO.N,COL8*%
X402590000Y-52070000D03*
%TO.P,SW39,2,2_2*%
%TO.N,Net-(D39-A)*%
X396240000Y-54610000D03*
%TD*%
D10*
%TO.P,D19,1,K_1*%
%TO.N,ROW6*%
X428625000Y-47625000D03*
D11*
%TO.P,D19,2,A_2*%
%TO.N,Net-(D19-A)*%
X428625000Y-40005000D03*
%TD*%
D12*
%TO.P,SW10,1,1_1*%
%TO.N,COL9*%
X250190000Y-33020000D03*
%TO.P,SW10,2,2_2*%
%TO.N,Net-(D10-A)*%
X243840000Y-35560000D03*
%TD*%
%TO.P,SW46,1,1_1*%
%TO.N,COL4*%
X126365000Y-71120000D03*
%TO.P,SW46,2,2_2*%
%TO.N,Net-(D46-A)*%
X120015000Y-73660000D03*
%TD*%
D10*
%TO.P,D96,1,K_1*%
%TO.N,ROW5*%
X99851910Y-142875000D03*
D11*
%TO.P,D96,2,A_2*%
%TO.N,Net-(D96-A)*%
X99851910Y-135255000D03*
%TD*%
D12*
%TO.P,SW28,1,1_1*%
%TO.N,COL7*%
X173990000Y-52070000D03*
%TO.P,SW28,2,2_2*%
%TO.N,Net-(D28-A)*%
X167640000Y-54610000D03*
%TD*%
D10*
%TO.P,D85,1,K_1*%
%TO.N,ROW4*%
X185758651Y-123825000D03*
D11*
%TO.P,D85,2,A_2*%
%TO.N,Net-(D85-A)*%
X185758651Y-116205000D03*
%TD*%
D10*
%TO.P,D14,1,K_1*%
%TO.N,ROW6*%
X333375000Y-47625000D03*
D11*
%TO.P,D14,2,A_2*%
%TO.N,Net-(D14-A)*%
X333375000Y-40005000D03*
%TD*%
D12*
%TO.P,SW5,1,1_1*%
%TO.N,COL4*%
X135890000Y-33020000D03*
%TO.P,SW5,2,2_2*%
%TO.N,Net-(D5-A)*%
X129540000Y-35560000D03*
%TD*%
D10*
%TO.P,D21,1,K_1*%
%TO.N,ROW1*%
X47625000Y-66675000D03*
D11*
%TO.P,D21,2,A_2*%
%TO.N,Net-(D21-A)*%
X47625000Y-59055000D03*
%TD*%
D12*
%TO.P,SW88,1,1_1*%
%TO.N,COL9*%
X235923651Y-109220000D03*
%TO.P,SW88,2,2_2*%
%TO.N,Net-(D88-A)*%
X229573651Y-111760000D03*
%TD*%
%TO.P,SW66,1,1_1*%
%TO.N,COL3*%
X111987512Y-90170000D03*
%TO.P,SW66,2,2_2*%
%TO.N,Net-(D66-A)*%
X105637512Y-92710000D03*
%TD*%
%TO.P,SW84,1,1_1*%
%TO.N,COL5*%
X159723651Y-109220000D03*
%TO.P,SW84,2,2_2*%
%TO.N,Net-(D84-A)*%
X153373651Y-111760000D03*
%TD*%
%TO.P,SW42,1,1_1*%
%TO.N,COL0*%
X45402648Y-71120000D03*
%TO.P,SW42,2,2_2*%
%TO.N,Net-(D42-A)*%
X39052648Y-73660000D03*
%TD*%
D10*
%TO.P,D27,1,K_1*%
%TO.N,ROW1*%
X161925000Y-66675000D03*
D11*
%TO.P,D27,2,A_2*%
%TO.N,Net-(D27-A)*%
X161925000Y-59055000D03*
%TD*%
D10*
%TO.P,D55,1,K_1*%
%TO.N,ROW8*%
X314325000Y-85725000D03*
D11*
%TO.P,D55,2,A_2*%
%TO.N,Net-(D55-A)*%
X314325000Y-78105000D03*
%TD*%
D10*
%TO.P,D47,1,K_1*%
%TO.N,ROW2*%
X152400000Y-85725000D03*
D11*
%TO.P,D47,2,A_2*%
%TO.N,Net-(D47-A)*%
X152400000Y-78105000D03*
%TD*%
D12*
%TO.P,SW91,1,1_1*%
%TO.N,COL5*%
X345440000Y-109220000D03*
%TO.P,SW91,2,2_2*%
%TO.N,Net-(D91-A)*%
X339090000Y-111760000D03*
%TD*%
%TO.P,SW55,1,1_1*%
%TO.N,COL3*%
X302609300Y-71120000D03*
%TO.P,SW55,2,2_2*%
%TO.N,Net-(D55-A)*%
X296259300Y-73660000D03*
%TD*%
D10*
%TO.P,D65,1,K_1*%
%TO.N,ROW3*%
X100033651Y-104775000D03*
D11*
%TO.P,D65,2,A_2*%
%TO.N,Net-(D65-A)*%
X100033651Y-97155000D03*
%TD*%
D10*
%TO.P,D45,1,K_1*%
%TO.N,ROW2*%
X114300000Y-85725000D03*
D11*
%TO.P,D45,2,A_2*%
%TO.N,Net-(D45-A)*%
X114300000Y-78105000D03*
%TD*%
D10*
%TO.P,D72,1,K_1*%
%TO.N,ROW3*%
X233272512Y-104775000D03*
D11*
%TO.P,D72,2,A_2*%
%TO.N,Net-(D72-A)*%
X233272512Y-97155000D03*
%TD*%
D10*
%TO.P,D95,1,K_1*%
%TO.N,ROW10*%
X447675000Y-123825000D03*
D11*
%TO.P,D95,2,A_2*%
%TO.N,Net-(D95-A)*%
X447675000Y-116205000D03*
%TD*%
D10*
%TO.P,D18,1,K_1*%
%TO.N,ROW6*%
X409575000Y-47625000D03*
D11*
%TO.P,D18,2,A_2*%
%TO.N,Net-(D18-A)*%
X409575000Y-40005000D03*
%TD*%
D12*
%TO.P,SW63,1,1_1*%
%TO.N,COL0*%
X47685000Y-90170000D03*
%TO.P,SW63,2,2_2*%
%TO.N,Net-(D63-A)*%
X41335000Y-92710000D03*
%TD*%
%TO.P,SW32,1,1_1*%
%TO.N,COL1*%
X250190000Y-52070000D03*
%TO.P,SW32,2,2_2*%
%TO.N,Net-(D32-A)*%
X243840000Y-54610000D03*
%TD*%
%TO.P,SW94,1,1_1*%
%TO.N,COL9*%
X421640000Y-109220000D03*
%TO.P,SW94,2,2_2*%
%TO.N,Net-(D94-A)*%
X415290000Y-111760000D03*
%TD*%
D10*
%TO.P,D60,1,K_1*%
%TO.N,ROW8*%
X409575000Y-85725000D03*
D11*
%TO.P,D60,2,A_2*%
%TO.N,Net-(D60-A)*%
X409575000Y-78105000D03*
%TD*%
D12*
%TO.P,SW4,1,1_1*%
%TO.N,COL3*%
X116840000Y-33020000D03*
%TO.P,SW4,2,2_2*%
%TO.N,Net-(D4-A)*%
X110490000Y-35560000D03*
%TD*%
%TO.P,SW71,1,1_1*%
%TO.N,COL8*%
X207237512Y-90170000D03*
%TO.P,SW71,2,2_2*%
%TO.N,Net-(D71-A)*%
X200887512Y-92710000D03*
%TD*%
%TO.P,SW37,1,1_1*%
%TO.N,COL6*%
X364490000Y-52070000D03*
%TO.P,SW37,2,2_2*%
%TO.N,Net-(D37-A)*%
X358140000Y-54610000D03*
%TD*%
D10*
%TO.P,D20,1,K_1*%
%TO.N,ROW6*%
X447675000Y-47625000D03*
D11*
%TO.P,D20,2,A_2*%
%TO.N,Net-(D20-A)*%
X447675000Y-40005000D03*
%TD*%
D10*
%TO.P,D57,1,K_1*%
%TO.N,ROW8*%
X352425000Y-85725000D03*
D11*
%TO.P,D57,2,A_2*%
%TO.N,Net-(D57-A)*%
X352425000Y-78105000D03*
%TD*%
D10*
%TO.P,D12,1,K_1*%
%TO.N,ROW6*%
X295275000Y-47625000D03*
D11*
%TO.P,D12,2,A_2*%
%TO.N,Net-(D12-A)*%
X295275000Y-40005000D03*
%TD*%
D12*
%TO.P,SW77,1,1_1*%
%TO.N,COL8*%
X402590000Y-90170000D03*
%TO.P,SW77,2,2_2*%
%TO.N,Net-(D77-A)*%
X396240000Y-92710000D03*
%TD*%
%TO.P,SW104,1,1_1*%
%TO.N,COL4*%
X326390000Y-128270000D03*
%TO.P,SW104,2,2_2*%
%TO.N,Net-(D104-A)*%
X320040000Y-130810000D03*
%TD*%
%TO.P,SW30,1,1_1*%
%TO.N,COL9*%
X212090000Y-52070000D03*
%TO.P,SW30,2,2_2*%
%TO.N,Net-(D30-A)*%
X205740000Y-54610000D03*
%TD*%
D10*
%TO.P,D70,1,K_1*%
%TO.N,ROW3*%
X195172512Y-104775000D03*
D11*
%TO.P,D70,2,A_2*%
%TO.N,Net-(D70-A)*%
X195172512Y-97155000D03*
%TD*%
D10*
%TO.P,D8,1,K_1*%
%TO.N,ROW0*%
X209550000Y-47625000D03*
D11*
%TO.P,D8,2,A_2*%
%TO.N,Net-(D8-A)*%
X209550000Y-40005000D03*
%TD*%
D12*
%TO.P,SW60,1,1_1*%
%TO.N,COL8*%
X402590000Y-71120000D03*
%TO.P,SW60,2,2_2*%
%TO.N,Net-(D60-A)*%
X396240000Y-73660000D03*
%TD*%
D10*
%TO.P,D105,1,K_1*%
%TO.N,ROW11*%
X352425000Y-142875000D03*
D11*
%TO.P,D105,2,A_2*%
%TO.N,Net-(D105-A)*%
X352425000Y-135255000D03*
%TD*%
D12*
%TO.P,SW1,1,1_1*%
%TO.N,COL0*%
X40640000Y-33020000D03*
%TO.P,SW1,2,2_2*%
%TO.N,Net-(D1-A)*%
X34290000Y-35560000D03*
%TD*%
D10*
%TO.P,D77,1,K_1*%
%TO.N,ROW9*%
X409575000Y-104775000D03*
D11*
%TO.P,D77,2,A_2*%
%TO.N,Net-(D77-A)*%
X409575000Y-97155000D03*
%TD*%
D12*
%TO.P,SW33,1,1_1*%
%TO.N,COL2*%
X269240000Y-52070000D03*
%TO.P,SW33,2,2_2*%
%TO.N,Net-(D33-A)*%
X262890000Y-54610000D03*
%TD*%
D10*
%TO.P,D100,1,K_1*%
%TO.N,ROW5*%
X242809347Y-142875000D03*
D11*
%TO.P,D100,2,A_2*%
%TO.N,Net-(D100-A)*%
X242809347Y-135255000D03*
%TD*%
D10*
%TO.P,D89,1,K_1*%
%TO.N,ROW4*%
X261936388Y-123825000D03*
D11*
%TO.P,D89,2,A_2*%
%TO.N,Net-(D89-A)*%
X261936388Y-116205000D03*
%TD*%
D10*
%TO.P,D51,1,K_1*%
%TO.N,ROW2*%
X228600000Y-85725000D03*
D11*
%TO.P,D51,2,A_2*%
%TO.N,Net-(D51-A)*%
X228600000Y-78105000D03*
%TD*%
D10*
%TO.P,D64,1,K_1*%
%TO.N,ROW3*%
X80872512Y-104775000D03*
D11*
%TO.P,D64,2,A_2*%
%TO.N,Net-(D64-A)*%
X80872512Y-97155000D03*
%TD*%
D12*
%TO.P,SW20,1,1_1*%
%TO.N,COL9*%
X440690000Y-33020000D03*
%TO.P,SW20,2,2_2*%
%TO.N,Net-(D20-A)*%
X434340000Y-35560000D03*
%TD*%
D10*
%TO.P,D10,1,K_1*%
%TO.N,ROW0*%
X257175000Y-47625000D03*
D11*
%TO.P,D10,2,A_2*%
%TO.N,Net-(D10-A)*%
X257175000Y-40005000D03*
%TD*%
D10*
%TO.P,D80,1,K_1*%
%TO.N,ROW4*%
X90508651Y-123825000D03*
D11*
%TO.P,D80,2,A_2*%
%TO.N,Net-(D80-A)*%
X90508651Y-116205000D03*
%TD*%
D10*
%TO.P,D107,1,K_1*%
%TO.N,ROW11*%
X409575000Y-142875000D03*
D11*
%TO.P,D107,2,A_2*%
%TO.N,Net-(D107-A)*%
X409575000Y-135255000D03*
%TD*%
D10*
%TO.P,D30,1,K_1*%
%TO.N,ROW1*%
X219075000Y-66675000D03*
D11*
%TO.P,D30,2,A_2*%
%TO.N,Net-(D30-A)*%
X219075000Y-59055000D03*
%TD*%
D12*
%TO.P,SW49,1,1_1*%
%TO.N,COL7*%
X183515000Y-71120000D03*
%TO.P,SW49,2,2_2*%
%TO.N,Net-(D49-A)*%
X177165000Y-73660000D03*
%TD*%
%TO.P,SW108,1,1_1*%
%TO.N,COL9*%
X421640000Y-128270000D03*
%TO.P,SW108,2,2_2*%
%TO.N,Net-(D108-A)*%
X415290000Y-130810000D03*
%TD*%
%TO.P,SW26,1,1_1*%
%TO.N,COL5*%
X135890000Y-52070000D03*
%TO.P,SW26,2,2_2*%
%TO.N,Net-(D26-A)*%
X129540000Y-54610000D03*
%TD*%
D10*
%TO.P,D1,1,K_1*%
%TO.N,ROW0*%
X47625000Y-47625000D03*
D11*
%TO.P,D1,2,A_2*%
%TO.N,Net-(D1-A)*%
X47625000Y-40005000D03*
%TD*%
D10*
%TO.P,D22,1,K_1*%
%TO.N,ROW1*%
X66675000Y-66675000D03*
D11*
%TO.P,D22,2,A_2*%
%TO.N,Net-(D22-A)*%
X66675000Y-59055000D03*
%TD*%
D12*
%TO.P,SW76,1,1_1*%
%TO.N,COL7*%
X383540000Y-90170000D03*
%TO.P,SW76,2,2_2*%
%TO.N,Net-(D76-A)*%
X377190000Y-92710000D03*
%TD*%
%TO.P,SW47,1,1_1*%
%TO.N,COL5*%
X145415000Y-71120000D03*
%TO.P,SW47,2,2_2*%
%TO.N,Net-(D47-A)*%
X139065000Y-73660000D03*
%TD*%
D10*
%TO.P,D69,1,K_1*%
%TO.N,ROW3*%
X176122512Y-104775000D03*
D11*
%TO.P,D69,2,A_2*%
%TO.N,Net-(D69-A)*%
X176122512Y-97155000D03*
%TD*%
D10*
%TO.P,D58,1,K_1*%
%TO.N,ROW8*%
X371475000Y-85720795D03*
D11*
%TO.P,D58,2,A_2*%
%TO.N,Net-(D58-A)*%
X371475000Y-78100795D03*
%TD*%
D10*
%TO.P,D84,1,K_1*%
%TO.N,ROW4*%
X166431822Y-123825000D03*
D11*
%TO.P,D84,2,A_2*%
%TO.N,Net-(D84-A)*%
X166431822Y-116205000D03*
%TD*%
D12*
%TO.P,SW23,1,1_1*%
%TO.N,COL2*%
X78740000Y-52070000D03*
%TO.P,SW23,2,2_2*%
%TO.N,Net-(D23-A)*%
X72390000Y-54610000D03*
%TD*%
D10*
%TO.P,D24,1,K_1*%
%TO.N,ROW1*%
X104775000Y-66675000D03*
D11*
%TO.P,D24,2,A_2*%
%TO.N,Net-(D24-A)*%
X104775000Y-59055000D03*
%TD*%
D12*
%TO.P,SW11,1,1_1*%
%TO.N,COL0*%
X269240000Y-33020000D03*
%TO.P,SW11,2,2_2*%
%TO.N,Net-(D11-A)*%
X262890000Y-35560000D03*
%TD*%
D10*
%TO.P,D38,1,K_1*%
%TO.N,ROW7*%
X390525000Y-66675000D03*
D11*
%TO.P,D38,2,A_2*%
%TO.N,Net-(D38-A)*%
X390525000Y-59055000D03*
%TD*%
D10*
%TO.P,D61,1,K_1*%
%TO.N,ROW8*%
X428625000Y-85725000D03*
D11*
%TO.P,D61,2,A_2*%
%TO.N,Net-(D61-A)*%
X428625000Y-78105000D03*
%TD*%
D10*
%TO.P,D39,1,K_1*%
%TO.N,ROW7*%
X409575000Y-66675000D03*
D11*
%TO.P,D39,2,A_2*%
%TO.N,Net-(D39-A)*%
X409575000Y-59055000D03*
%TD*%
D12*
%TO.P,SW36,1,1_1*%
%TO.N,COL5*%
X345440000Y-52070000D03*
%TO.P,SW36,2,2_2*%
%TO.N,Net-(D36-A)*%
X339090000Y-54610000D03*
%TD*%
D10*
%TO.P,D98,1,K_1*%
%TO.N,ROW5*%
X76088341Y-142875000D03*
D11*
%TO.P,D98,2,A_2*%
%TO.N,Net-(D98-A)*%
X76088341Y-135255000D03*
%TD*%
D12*
%TO.P,SW99,1,1_1*%
%TO.N,COL9*%
X281043063Y-128270000D03*
%TO.P,SW99,2,2_2*%
%TO.N,Net-(D102-A)*%
X274693063Y-130810000D03*
%TD*%
D10*
%TO.P,D11,1,K_1*%
%TO.N,ROW0*%
X276225000Y-47625000D03*
D11*
%TO.P,D11,2,A_2*%
%TO.N,Net-(D11-A)*%
X276225000Y-40005000D03*
%TD*%
D10*
%TO.P,D97,1,K_1*%
%TO.N,ROW5*%
X52265312Y-142875000D03*
D11*
%TO.P,D97,2,A_2*%
%TO.N,Net-(D97-A)*%
X52265312Y-135255000D03*
%TD*%
D10*
%TO.P,D13,1,K_1*%
%TO.N,ROW6*%
X314325000Y-47625000D03*
D11*
%TO.P,D13,2,A_2*%
%TO.N,Net-(D13-A)*%
X314325000Y-40005000D03*
%TD*%
D12*
%TO.P,SW18,1,1_1*%
%TO.N,COL7*%
X402590000Y-33020000D03*
%TO.P,SW18,2,2_2*%
%TO.N,Net-(D18-A)*%
X396240000Y-35560000D03*
%TD*%
%TO.P,SW57,1,1_1*%
%TO.N,COL5*%
X345440000Y-71115795D03*
%TO.P,SW57,2,2_2*%
%TO.N,Net-(D57-A)*%
X339090000Y-73655795D03*
%TD*%
%TO.P,SW7,1,1_1*%
%TO.N,COL6*%
X183515000Y-33020000D03*
%TO.P,SW7,2,2_2*%
%TO.N,Net-(D7-A)*%
X177165000Y-35560000D03*
%TD*%
D10*
%TO.P,D78,1,K_1*%
%TO.N,ROW9*%
X427840000Y-101590000D03*
D11*
%TO.P,D78,2,A_2*%
%TO.N,Net-(D78-A)*%
X427840000Y-93970000D03*
%TD*%
D12*
%TO.P,SW19,1,1_1*%
%TO.N,COL8*%
X421640000Y-33020000D03*
%TO.P,SW19,2,2_2*%
%TO.N,Net-(D19-A)*%
X415290000Y-35560000D03*
%TD*%
%TO.P,SW65,1,1_1*%
%TO.N,COL2*%
X92937512Y-90170000D03*
%TO.P,SW65,2,2_2*%
%TO.N,Net-(D65-A)*%
X86587512Y-92710000D03*
%TD*%
%TO.P,SW22,1,1_1*%
%TO.N,COL1*%
X59690000Y-52070000D03*
%TO.P,SW22,2,2_2*%
%TO.N,Net-(D22-A)*%
X53340000Y-54610000D03*
%TD*%
%TO.P,SW50,1,1_1*%
%TO.N,COL8*%
X202565000Y-71120000D03*
%TO.P,SW50,2,2_2*%
%TO.N,Net-(D50-A)*%
X196215000Y-73660000D03*
%TD*%
%TO.P,SW96,1,1_1*%
%TO.N,COL5*%
X161986822Y-128270000D03*
%TO.P,SW96,2,2_2*%
%TO.N,Net-(D99-A)*%
X155636822Y-130810000D03*
%TD*%
%TO.P,SW93,1,1_1*%
%TO.N,COL8*%
X402590000Y-109220000D03*
%TO.P,SW93,2,2_2*%
%TO.N,Net-(D93-A)*%
X396240000Y-111760000D03*
%TD*%
%TO.P,SW80,1,1_1*%
%TO.N,COL1*%
X83523651Y-109220000D03*
%TO.P,SW80,2,2_2*%
%TO.N,Net-(D80-A)*%
X77173651Y-111760000D03*
%TD*%
D10*
%TO.P,D56,1,K_1*%
%TO.N,ROW8*%
X333375000Y-85725000D03*
D11*
%TO.P,D56,2,A_2*%
%TO.N,Net-(D56-A)*%
X333375000Y-78105000D03*
%TD*%
D10*
%TO.P,D99,1,K_1*%
%TO.N,ROW5*%
X218978072Y-142875000D03*
D11*
%TO.P,D99,2,A_2*%
%TO.N,Net-(D99-A)*%
X218978072Y-135255000D03*
%TD*%
D12*
%TO.P,SW92,1,1_1*%
%TO.N,COL7*%
X383540000Y-109220000D03*
%TO.P,SW92,2,2_2*%
%TO.N,Net-(D92-A)*%
X377190000Y-111760000D03*
%TD*%
D10*
%TO.P,D59,1,K_1*%
%TO.N,ROW8*%
X390525000Y-85725000D03*
D11*
%TO.P,D59,2,A_2*%
%TO.N,Net-(D59-A)*%
X390525000Y-78105000D03*
%TD*%
D10*
%TO.P,D44,1,K_1*%
%TO.N,ROW2*%
X95250000Y-85725000D03*
D11*
%TO.P,D44,2,A_2*%
%TO.N,Net-(D44-A)*%
X95250000Y-78105000D03*
%TD*%
D10*
%TO.P,D67,1,K_1*%
%TO.N,ROW3*%
X138133651Y-104775000D03*
D11*
%TO.P,D67,2,A_2*%
%TO.N,Net-(D67-A)*%
X138133651Y-97155000D03*
%TD*%
D12*
%TO.P,SW3,1,1_1*%
%TO.N,COL2*%
X97790000Y-33020000D03*
%TO.P,SW3,2,2_2*%
%TO.N,Net-(D3-A)*%
X91440000Y-35560000D03*
%TD*%
D10*
%TO.P,D16,1,K_1*%
%TO.N,ROW6*%
X371475000Y-47625000D03*
D11*
%TO.P,D16,2,A_2*%
%TO.N,Net-(D16-A)*%
X371475000Y-40005000D03*
%TD*%
D12*
%TO.P,SW17,1,1_1*%
%TO.N,COL6*%
X383540000Y-33020000D03*
%TO.P,SW17,2,2_2*%
%TO.N,Net-(D17-A)*%
X377190000Y-35560000D03*
%TD*%
%TO.P,SW95,1,1_1*%
%TO.N,COL2*%
X66722091Y-128270000D03*
%TO.P,SW95,2,2_2*%
%TO.N,Net-(D98-A)*%
X60372091Y-130810000D03*
%TD*%
D10*
%TO.P,D42,1,K_1*%
%TO.N,ROW2*%
X57150000Y-85725000D03*
D11*
%TO.P,D42,2,A_2*%
%TO.N,Net-(D42-A)*%
X57150000Y-78105000D03*
%TD*%
D10*
%TO.P,D41,1,K_1*%
%TO.N,ROW7*%
X447675000Y-66675000D03*
D11*
%TO.P,D41,2,A_2*%
%TO.N,Net-(D41-A)*%
X447675000Y-59055000D03*
%TD*%
D12*
%TO.P,SW100,1,1_1*%
%TO.N,COL0*%
X304974318Y-128270000D03*
%TO.P,SW100,2,2_2*%
%TO.N,Net-(D103-A)*%
X298624318Y-130810000D03*
%TD*%
D10*
%TO.P,D54,1,K_1*%
%TO.N,ROW8*%
X285750000Y-85725000D03*
D11*
%TO.P,D54,2,A_2*%
%TO.N,Net-(D54-A)*%
X285750000Y-78105000D03*
%TD*%
D12*
%TO.P,SW78,1,1_1*%
%TO.N,COL9*%
X421640000Y-90170000D03*
%TO.P,SW78,2,2_2*%
%TO.N,Net-(D78-A)*%
X415290000Y-92710000D03*
%TD*%
%TO.P,SW56,1,1_1*%
%TO.N,COL4*%
X326390000Y-71120000D03*
%TO.P,SW56,2,2_2*%
%TO.N,Net-(D56-A)*%
X320040000Y-73660000D03*
%TD*%
D10*
%TO.P,D102,1,K_1*%
%TO.N,ROW5*%
X290528068Y-142875000D03*
D11*
%TO.P,D102,2,A_2*%
%TO.N,Net-(D102-A)*%
X290528068Y-135255000D03*
%TD*%
D12*
%TO.P,SW2,1,1_1*%
%TO.N,COL1*%
X78740000Y-33020000D03*
%TO.P,SW2,2,2_2*%
%TO.N,Net-(D2-A)*%
X72390000Y-35560000D03*
%TD*%
%TO.P,SW44,1,1_1*%
%TO.N,COL2*%
X88265000Y-71120000D03*
%TO.P,SW44,2,2_2*%
%TO.N,Net-(D44-A)*%
X81915000Y-73660000D03*
%TD*%
D10*
%TO.P,D104,1,K_1*%
%TO.N,ROW11*%
X333375000Y-142875000D03*
D11*
%TO.P,D104,2,A_2*%
%TO.N,Net-(D104-A)*%
X333375000Y-135255000D03*
%TD*%
D10*
%TO.P,D103,1,K_1*%
%TO.N,ROW5*%
X314325000Y-142875000D03*
D11*
%TO.P,D103,2,A_2*%
%TO.N,Net-(D103-A)*%
X314325000Y-135255000D03*
%TD*%
D10*
%TO.P,D23,1,K_1*%
%TO.N,ROW1*%
X85725000Y-66675000D03*
D11*
%TO.P,D23,2,A_2*%
%TO.N,Net-(D23-A)*%
X85725000Y-59055000D03*
%TD*%
D12*
%TO.P,SW59,1,1_1*%
%TO.N,COL7*%
X383540000Y-71120000D03*
%TO.P,SW59,2,2_2*%
%TO.N,Net-(D59-A)*%
X377190000Y-73660000D03*
%TD*%
%TO.P,SW8,1,1_1*%
%TO.N,COL7*%
X202565000Y-33020000D03*
%TO.P,SW8,2,2_2*%
%TO.N,Net-(D8-A)*%
X196215000Y-35560000D03*
%TD*%
%TO.P,SW110,1,1_1*%
%TO.N,COL10*%
X433070000Y-121285000D03*
%TO.P,SW110,2,2_2*%
%TO.N,Net-(D95-A)*%
X435610000Y-127635000D03*
%TD*%
%TO.P,SW83,1,1_1*%
%TO.N,COL4*%
X140673651Y-109220000D03*
%TO.P,SW83,2,2_2*%
%TO.N,Net-(D83-A)*%
X134323651Y-111760000D03*
%TD*%
D10*
%TO.P,D3,1,K_1*%
%TO.N,ROW0*%
X104775000Y-47625000D03*
D11*
%TO.P,D3,2,A_2*%
%TO.N,Net-(D3-A)*%
X104775000Y-40005000D03*
%TD*%
D12*
%TO.P,SW73,1,1_1*%
%TO.N,COL0*%
X245337512Y-90170000D03*
%TO.P,SW73,2,2_2*%
%TO.N,Net-(D73-A)*%
X238987512Y-92710000D03*
%TD*%
%TO.P,SW87,1,1_1*%
%TO.N,COL8*%
X216873651Y-109220000D03*
%TO.P,SW87,2,2_2*%
%TO.N,Net-(D87-A)*%
X210523651Y-111760000D03*
%TD*%
D10*
%TO.P,D81,1,K_1*%
%TO.N,ROW4*%
X109558651Y-122730000D03*
D11*
%TO.P,D81,2,A_2*%
%TO.N,Net-(D81-A)*%
X109558651Y-115110000D03*
%TD*%
D12*
%TO.P,SW31,1,1_1*%
%TO.N,COL0*%
X231140000Y-52070000D03*
%TO.P,SW31,2,2_2*%
%TO.N,Net-(D31-A)*%
X224790000Y-54610000D03*
%TD*%
%TO.P,SW61,1,1_1*%
%TO.N,COL9*%
X421640000Y-71120000D03*
%TO.P,SW61,2,2_2*%
%TO.N,Net-(D61-A)*%
X415290000Y-73660000D03*
%TD*%
D10*
%TO.P,D92,1,K_1*%
%TO.N,ROW10*%
X390525000Y-123825000D03*
D11*
%TO.P,D92,2,A_2*%
%TO.N,Net-(D92-A)*%
X390525000Y-116205000D03*
%TD*%
D10*
%TO.P,D52,1,K_1*%
%TO.N,ROW2*%
X247650000Y-85725000D03*
D11*
%TO.P,D52,2,A_2*%
%TO.N,Net-(D52-A)*%
X247650000Y-78105000D03*
%TD*%
D10*
%TO.P,D43,1,K_1*%
%TO.N,ROW2*%
X76200000Y-85725000D03*
D11*
%TO.P,D43,2,A_2*%
%TO.N,Net-(D43-A)*%
X76200000Y-78105000D03*
%TD*%
D12*
%TO.P,SW40,1,1_1*%
%TO.N,COL9*%
X421640000Y-52070000D03*
%TO.P,SW40,2,2_2*%
%TO.N,Net-(D40-A)*%
X415290000Y-54610000D03*
%TD*%
%TO.P,SW62,1,1_1*%
%TO.N,COL10*%
X433070000Y-83185000D03*
%TO.P,SW62,2,2_2*%
%TO.N,Net-(D62-A)*%
X435610000Y-89535000D03*
%TD*%
%TO.P,SW48,1,1_1*%
%TO.N,COL6*%
X164465000Y-71120000D03*
%TO.P,SW48,2,2_2*%
%TO.N,Net-(D48-A)*%
X158115000Y-73660000D03*
%TD*%
D10*
%TO.P,D86,1,K_1*%
%TO.N,ROW4*%
X204808651Y-123825000D03*
D11*
%TO.P,D86,2,A_2*%
%TO.N,Net-(D86-A)*%
X204808651Y-116205000D03*
%TD*%
D12*
%TO.P,SW82,1,1_1*%
%TO.N,COL3*%
X121623651Y-109220000D03*
%TO.P,SW82,2,2_2*%
%TO.N,Net-(D82-A)*%
X115273651Y-111760000D03*
%TD*%
%TO.P,SW72,1,1_1*%
%TO.N,COL9*%
X226287512Y-90170000D03*
%TO.P,SW72,2,2_2*%
%TO.N,Net-(D72-A)*%
X219937512Y-92710000D03*
%TD*%
D10*
%TO.P,D90,1,K_1*%
%TO.N,ROW10*%
X314323888Y-123825000D03*
D11*
%TO.P,D90,2,A_2*%
%TO.N,Net-(D90-A)*%
X314323888Y-116205000D03*
%TD*%
D10*
%TO.P,D4,1,K_1*%
%TO.N,ROW0*%
X123825000Y-47625000D03*
D11*
%TO.P,D4,2,A_2*%
%TO.N,Net-(D4-A)*%
X123825000Y-40005000D03*
%TD*%
D10*
%TO.P,D48,1,K_1*%
%TO.N,ROW2*%
X171450000Y-85725000D03*
D11*
%TO.P,D48,2,A_2*%
%TO.N,Net-(D48-A)*%
X171450000Y-78105000D03*
%TD*%
D10*
%TO.P,D9,1,K_1*%
%TO.N,ROW0*%
X228600000Y-47625000D03*
D11*
%TO.P,D9,2,A_2*%
%TO.N,Net-(D9-A)*%
X228600000Y-40005000D03*
%TD*%
D12*
%TO.P,SW101,1,1_1*%
%TO.N,COL7*%
X393065000Y-128270000D03*
%TO.P,SW101,2,2_2*%
%TO.N,Net-(D107-A)*%
X386715000Y-130810000D03*
%TD*%
%TO.P,SW97,1,1_1*%
%TO.N,COL6*%
X233443097Y-128270000D03*
%TO.P,SW97,2,2_2*%
%TO.N,Net-(D100-A)*%
X227093097Y-130810000D03*
%TD*%
D10*
%TO.P,D76,1,K_1*%
%TO.N,ROW9*%
X390525000Y-104775000D03*
D11*
%TO.P,D76,2,A_2*%
%TO.N,Net-(D76-A)*%
X390525000Y-97155000D03*
%TD*%
D10*
%TO.P,D91,1,K_1*%
%TO.N,ROW10*%
X352425000Y-123825000D03*
D11*
%TO.P,D91,2,A_2*%
%TO.N,Net-(D91-A)*%
X352425000Y-116205000D03*
%TD*%
D12*
%TO.P,SW74,1,1_1*%
%TO.N,COL1*%
X264387512Y-90170000D03*
%TO.P,SW74,2,2_2*%
%TO.N,Net-(D74-A)*%
X258037512Y-92710000D03*
%TD*%
D10*
%TO.P,D28,1,K_1*%
%TO.N,ROW1*%
X180975000Y-66675000D03*
D11*
%TO.P,D28,2,A_2*%
%TO.N,Net-(D28-A)*%
X180975000Y-59055000D03*
%TD*%
D10*
%TO.P,D63,1,K_1*%
%TO.N,ROW3*%
X61813750Y-103280000D03*
D11*
%TO.P,D63,2,A_2*%
%TO.N,Net-(D63-A)*%
X61813750Y-95660000D03*
%TD*%
D12*
%TO.P,SW16,1,1_1*%
%TO.N,COL5*%
X364490000Y-33020000D03*
%TO.P,SW16,2,2_2*%
%TO.N,Net-(D16-A)*%
X358140000Y-35560000D03*
%TD*%
D10*
%TO.P,D15,1,K_1*%
%TO.N,ROW6*%
X352425000Y-47625000D03*
D11*
%TO.P,D15,2,A_2*%
%TO.N,Net-(D15-A)*%
X352425000Y-40005000D03*
%TD*%
D12*
%TO.P,SW21,1,1_1*%
%TO.N,COL0*%
X40640000Y-52070000D03*
%TO.P,SW21,2,2_2*%
%TO.N,Net-(D21-A)*%
X34290000Y-54610000D03*
%TD*%
D10*
%TO.P,D87,1,K_1*%
%TO.N,ROW4*%
X223858651Y-123825000D03*
D11*
%TO.P,D87,2,A_2*%
%TO.N,Net-(D87-A)*%
X223858651Y-116205000D03*
%TD*%
D12*
%TO.P,SW90,1,1_1*%
%TO.N,COL1*%
X42899062Y-128270000D03*
%TO.P,SW90,2,2_2*%
%TO.N,Net-(D97-A)*%
X36549062Y-130810000D03*
%TD*%
D10*
%TO.P,D34,1,K_1*%
%TO.N,ROW7*%
X304800000Y-66675000D03*
D11*
%TO.P,D34,2,A_2*%
%TO.N,Net-(D34-A)*%
X304800000Y-59055000D03*
%TD*%
D10*
%TO.P,D26,1,K_1*%
%TO.N,ROW1*%
X142875000Y-66675000D03*
D11*
%TO.P,D26,2,A_2*%
%TO.N,Net-(D26-A)*%
X142875000Y-59055000D03*
%TD*%
D10*
%TO.P,D40,1,K_1*%
%TO.N,ROW7*%
X428625000Y-66675000D03*
D11*
%TO.P,D40,2,A_2*%
%TO.N,Net-(D40-A)*%
X428625000Y-59055000D03*
%TD*%
D10*
%TO.P,D75,1,K_1*%
%TO.N,ROW9*%
X314325000Y-103870000D03*
D11*
%TO.P,D75,2,A_2*%
%TO.N,Net-(D75-A)*%
X314325000Y-96250000D03*
%TD*%
D12*
%TO.P,SW98,1,1_1*%
%TO.N,COL8*%
X257235000Y-128270000D03*
%TO.P,SW98,2,2_2*%
%TO.N,Net-(D101-A)*%
X250885000Y-130810000D03*
%TD*%
D10*
%TO.P,D82,1,K_1*%
%TO.N,ROW4*%
X128608651Y-123825000D03*
D11*
%TO.P,D82,2,A_2*%
%TO.N,Net-(D82-A)*%
X128608651Y-116205000D03*
%TD*%
D10*
%TO.P,D108,1,K_1*%
%TO.N,ROW11*%
X427410000Y-142875000D03*
D11*
%TO.P,D108,2,A_2*%
%TO.N,Net-(D108-A)*%
X427410000Y-135255000D03*
%TD*%
D12*
%TO.P,SW109,1,1_1*%
%TO.N,COL1*%
X290670138Y-109220000D03*
%TO.P,SW109,2,2_2*%
%TO.N,Net-(D90-A)*%
X284320138Y-111760000D03*
%TD*%
%TO.P,SW35,1,1_1*%
%TO.N,COL4*%
X326390000Y-52070000D03*
%TO.P,SW35,2,2_2*%
%TO.N,Net-(D35-A)*%
X320040000Y-54610000D03*
%TD*%
%TO.P,SW29,1,1_1*%
%TO.N,COL8*%
X193040000Y-52070000D03*
%TO.P,SW29,2,2_2*%
%TO.N,Net-(D29-A)*%
X186690000Y-54610000D03*
%TD*%
D10*
%TO.P,D6,1,K_1*%
%TO.N,ROW0*%
X171450000Y-47625000D03*
D11*
%TO.P,D6,2,A_2*%
%TO.N,Net-(D6-A)*%
X171450000Y-40005000D03*
%TD*%
D10*
%TO.P,D32,1,K_1*%
%TO.N,ROW7*%
X257175000Y-66675000D03*
D11*
%TO.P,D32,2,A_2*%
%TO.N,Net-(D32-A)*%
X257175000Y-59055000D03*
%TD*%
D10*
%TO.P,D53,1,K_1*%
%TO.N,ROW8*%
X266700000Y-85725000D03*
D11*
%TO.P,D53,2,A_2*%
%TO.N,Net-(D53-A)*%
X266700000Y-78105000D03*
%TD*%
D12*
%TO.P,SW12,1,1_1*%
%TO.N,COL1*%
X288290000Y-33020000D03*
%TO.P,SW12,2,2_2*%
%TO.N,Net-(D12-A)*%
X281940000Y-35560000D03*
%TD*%
D10*
%TO.P,D94,1,K_1*%
%TO.N,ROW10*%
X428625000Y-123825000D03*
D11*
%TO.P,D94,2,A_2*%
%TO.N,Net-(D94-A)*%
X428625000Y-116205000D03*
%TD*%
D10*
%TO.P,D25,1,K_1*%
%TO.N,ROW1*%
X123825000Y-66675000D03*
D11*
%TO.P,D25,2,A_2*%
%TO.N,Net-(D25-A)*%
X123825000Y-59055000D03*
%TD*%
D12*
%TO.P,SW14,1,1_1*%
%TO.N,COL3*%
X326390000Y-33020000D03*
%TO.P,SW14,2,2_2*%
%TO.N,Net-(D14-A)*%
X320040000Y-35560000D03*
%TD*%
D10*
%TO.P,D50,1,K_1*%
%TO.N,ROW2*%
X209550000Y-85725000D03*
D11*
%TO.P,D50,2,A_2*%
%TO.N,Net-(D50-A)*%
X209550000Y-78105000D03*
%TD*%
D12*
%TO.P,SW64,1,1_1*%
%TO.N,COL1*%
X73887512Y-90170000D03*
%TO.P,SW64,2,2_2*%
%TO.N,Net-(D64-A)*%
X67537512Y-92710000D03*
%TD*%
%TO.P,SW34,1,1_1*%
%TO.N,COL3*%
X297815000Y-52070000D03*
%TO.P,SW34,2,2_2*%
%TO.N,Net-(D34-A)*%
X291465000Y-54610000D03*
%TD*%
D10*
%TO.P,D35,1,K_1*%
%TO.N,ROW7*%
X333375000Y-66675000D03*
D11*
%TO.P,D35,2,A_2*%
%TO.N,Net-(D35-A)*%
X333375000Y-59055000D03*
%TD*%
D10*
%TO.P,D74,1,K_1*%
%TO.N,ROW9*%
X271372512Y-104775000D03*
D11*
%TO.P,D74,2,A_2*%
%TO.N,Net-(D74-A)*%
X271372512Y-97155000D03*
%TD*%
D12*
%TO.P,SW106,1,1_1*%
%TO.N,COL6*%
X364490000Y-128270000D03*
%TO.P,SW106,2,2_2*%
%TO.N,Net-(D106-A)*%
X358140000Y-130810000D03*
%TD*%
D10*
%TO.P,D73,1,K_1*%
%TO.N,ROW3*%
X252322512Y-104775000D03*
D11*
%TO.P,D73,2,A_2*%
%TO.N,Net-(D73-A)*%
X252322512Y-97155000D03*
%TD*%
D12*
%TO.P,SW52,1,1_1*%
%TO.N,COL0*%
X240665000Y-71120000D03*
%TO.P,SW52,2,2_2*%
%TO.N,Net-(D52-A)*%
X234315000Y-73660000D03*
%TD*%
D10*
%TO.P,D7,1,K_1*%
%TO.N,ROW0*%
X190500000Y-47625000D03*
D11*
%TO.P,D7,2,A_2*%
%TO.N,Net-(D7-A)*%
X190500000Y-40005000D03*
%TD*%
D12*
%TO.P,SW51,1,1_1*%
%TO.N,COL9*%
X221615000Y-71120000D03*
%TO.P,SW51,2,2_2*%
%TO.N,Net-(D51-A)*%
X215265000Y-73660000D03*
%TD*%
D10*
%TO.P,D5,1,K_1*%
%TO.N,ROW0*%
X142875000Y-47625000D03*
D11*
%TO.P,D5,2,A_2*%
%TO.N,Net-(D5-A)*%
X142875000Y-40005000D03*
%TD*%
D10*
%TO.P,D79,1,K_1*%
%TO.N,ROW4*%
X71324459Y-123825000D03*
D11*
%TO.P,D79,2,A_2*%
%TO.N,Net-(D79-A)*%
X71324459Y-116205000D03*
%TD*%
D10*
%TO.P,D36,1,K_1*%
%TO.N,ROW7*%
X352425000Y-66670795D03*
D11*
%TO.P,D36,2,A_2*%
%TO.N,Net-(D36-A)*%
X352425000Y-59050795D03*
%TD*%
D10*
%TO.P,D2,1,K_1*%
%TO.N,ROW0*%
X85725000Y-47625000D03*
D11*
%TO.P,D2,2,A_2*%
%TO.N,Net-(D2-A)*%
X85725000Y-40005000D03*
%TD*%
D10*
%TO.P,D93,1,K_1*%
%TO.N,ROW10*%
X409575000Y-123825000D03*
D11*
%TO.P,D93,2,A_2*%
%TO.N,Net-(D93-A)*%
X409575000Y-116205000D03*
%TD*%
D10*
%TO.P,D71,1,K_1*%
%TO.N,ROW3*%
X214222512Y-104775000D03*
D11*
%TO.P,D71,2,A_2*%
%TO.N,Net-(D71-A)*%
X214222512Y-97155000D03*
%TD*%
D12*
%TO.P,SW58,1,1_1*%
%TO.N,COL6*%
X364490000Y-71120000D03*
%TO.P,SW58,2,2_2*%
%TO.N,Net-(D58-A)*%
X358140000Y-73660000D03*
%TD*%
%TO.P,SW105,1,1_1*%
%TO.N,COL5*%
X345440000Y-128270000D03*
%TO.P,SW105,2,2_2*%
%TO.N,Net-(D105-A)*%
X339090000Y-130810000D03*
%TD*%
D10*
%TO.P,D46,1,K_1*%
%TO.N,ROW2*%
X133350000Y-85725000D03*
D11*
%TO.P,D46,2,A_2*%
%TO.N,Net-(D46-A)*%
X133350000Y-78105000D03*
%TD*%
D12*
%TO.P,SW43,1,1_1*%
%TO.N,COL1*%
X69215000Y-71120000D03*
%TO.P,SW43,2,2_2*%
%TO.N,Net-(D43-A)*%
X62865000Y-73660000D03*
%TD*%
%TO.P,SW15,1,1_1*%
%TO.N,COL4*%
X345440000Y-33020000D03*
%TO.P,SW15,2,2_2*%
%TO.N,Net-(D15-A)*%
X339090000Y-35560000D03*
%TD*%
%TO.P,SW86,1,1_1*%
%TO.N,COL7*%
X197823651Y-109220000D03*
%TO.P,SW86,2,2_2*%
%TO.N,Net-(D86-A)*%
X191473651Y-111760000D03*
%TD*%
%TO.P,SW25,1,1_1*%
%TO.N,COL4*%
X116840000Y-52070000D03*
%TO.P,SW25,2,2_2*%
%TO.N,Net-(D25-A)*%
X110490000Y-54610000D03*
%TD*%
%TO.P,SW69,1,1_1*%
%TO.N,COL6*%
X169137512Y-90170000D03*
%TO.P,SW69,2,2_2*%
%TO.N,Net-(D69-A)*%
X162787512Y-92710000D03*
%TD*%
%TO.P,SW85,1,1_1*%
%TO.N,COL6*%
X178773651Y-109220000D03*
%TO.P,SW85,2,2_2*%
%TO.N,Net-(D85-A)*%
X172423651Y-111760000D03*
%TD*%
%TO.P,SW9,1,1_1*%
%TO.N,COL8*%
X221615000Y-33020000D03*
%TO.P,SW9,2,2_2*%
%TO.N,Net-(D9-A)*%
X215265000Y-35560000D03*
%TD*%
%TO.P,SW24,1,1_1*%
%TO.N,COL3*%
X97790000Y-52070000D03*
%TO.P,SW24,2,2_2*%
%TO.N,Net-(D24-A)*%
X91440000Y-54610000D03*
%TD*%
D10*
%TO.P,D33,1,K_1*%
%TO.N,ROW7*%
X276225000Y-66675000D03*
D11*
%TO.P,D33,2,A_2*%
%TO.N,Net-(D33-A)*%
X276225000Y-59055000D03*
%TD*%
D12*
%TO.P,SW6,1,1_1*%
%TO.N,COL5*%
X164465000Y-33020000D03*
%TO.P,SW6,2,2_2*%
%TO.N,Net-(D6-A)*%
X158115000Y-35560000D03*
%TD*%
D13*
%TO.P,A1,1,GPIO0_1*%
%TO.N,ROW0*%
X23840000Y-9750000D03*
D11*
%TO.P,A1,2,GPIO1_2*%
%TO.N,ROW1*%
X26380000Y-9750000D03*
D14*
%TO.P,A1,3,GND_3*%
%TO.N,unconnected-(A1-GND-Pad13)_4*%
X28920000Y-9750000D03*
D11*
%TO.P,A1,4,GPIO2_4*%
%TO.N,ROW2*%
X31460000Y-9750000D03*
%TO.P,A1,5,GPIO3_5*%
%TO.N,ROW3*%
X34000000Y-9750000D03*
%TO.P,A1,6,GPIO4_6*%
%TO.N,ROW4*%
X36540000Y-9750000D03*
%TO.P,A1,7,GPIO5_7*%
%TO.N,ROW5*%
X39080000Y-9750000D03*
D14*
%TO.P,A1,8,GND_8*%
%TO.N,unconnected-(A1-GND-Pad13)_3*%
X41620000Y-9750000D03*
D11*
%TO.P,A1,9,GPIO6_9*%
%TO.N,ROW6*%
X44160000Y-9750000D03*
%TO.P,A1,10,GPIO7_10*%
%TO.N,ROW7*%
X46700000Y-9750000D03*
%TO.P,A1,11,GPIO8_11*%
%TO.N,ROW8*%
X49240000Y-9750000D03*
%TO.P,A1,12,GPIO9_12*%
%TO.N,ROW9*%
X51780000Y-9750000D03*
D14*
%TO.P,A1,13,GND_13*%
%TO.N,unconnected-(A1-GND-Pad13)*%
X54320000Y-9750000D03*
D11*
%TO.P,A1,14,GPIO10_14*%
%TO.N,ROW10*%
X56860000Y-9750000D03*
%TO.P,A1,15,GPIO11_15*%
%TO.N,ROW11*%
X59400000Y-9750000D03*
%TO.P,A1,16,GPIO12_16*%
%TO.N,COL0*%
X61940000Y-9750000D03*
%TO.P,A1,17,GPIO13_17*%
%TO.N,COL1*%
X64480000Y-9750000D03*
D14*
%TO.P,A1,18,GND_18*%
%TO.N,unconnected-(A1-GND-Pad13)_2*%
X67020000Y-9750000D03*
D11*
%TO.P,A1,19,GPIO14_19*%
%TO.N,COL2*%
X69560000Y-9750000D03*
%TO.P,A1,20,GPIO15_20*%
%TO.N,COL3*%
X72100000Y-9750000D03*
%TO.P,A1,21,GPIO16_21*%
%TO.N,COL4*%
X72100000Y-27530000D03*
%TO.P,A1,22,GPIO17_22*%
%TO.N,COL5*%
X69560000Y-27530000D03*
D15*
%TO.P,A1,23,GND_23*%
%TO.N,unconnected-(A1-GND-Pad13)_5*%
X67020000Y-27530000D03*
D11*
%TO.P,A1,24,GPIO18_24*%
%TO.N,COL6*%
X64480000Y-27530000D03*
%TO.P,A1,25,GPIO19_25*%
%TO.N,COL7*%
X61940000Y-27530000D03*
%TO.P,A1,26,GPIO20_26*%
%TO.N,COL8*%
X59400000Y-27530000D03*
%TO.P,A1,27,GPIO21_27*%
%TO.N,COL9*%
X56860000Y-27530000D03*
D15*
%TO.P,A1,28,GND_28*%
%TO.N,unconnected-(A1-GND-Pad13)_6*%
X54320000Y-27530000D03*
D11*
%TO.P,A1,29,GPIO22_29*%
%TO.N,COL10*%
X51780000Y-27530000D03*
%TO.P,A1,30,RUN_30*%
%TO.N,unconnected-(A1-RUN-Pad30)*%
X49240000Y-27530000D03*
%TO.P,A1,31,GPIO26_ADC0_31*%
%TO.N,unconnected-(A1-GPIO26_ADC0-Pad31)_1*%
X46700000Y-27530000D03*
%TO.P,A1,32,GPIO27_ADC1_32*%
%TO.N,unconnected-(A1-GPIO27_ADC1-Pad32)*%
X44160000Y-27530000D03*
D15*
%TO.P,A1,33,AGND_33*%
%TO.N,unconnected-(A1-AGND-Pad33)_1*%
X41620000Y-27530000D03*
D11*
%TO.P,A1,34,GPIO28_ADC2_34*%
%TO.N,unconnected-(A1-GPIO28_ADC2-Pad34)*%
X39080000Y-27530000D03*
%TO.P,A1,35,ADC_VREF_35*%
%TO.N,unconnected-(A1-ADC_VREF-Pad35)_1*%
X36540000Y-27530000D03*
%TO.P,A1,36,3V3_36*%
%TO.N,unconnected-(A1-3V3-Pad36)*%
X34000000Y-27530000D03*
%TO.P,A1,37,3V3_EN_37*%
%TO.N,unconnected-(A1-3V3_EN-Pad37)_1*%
X31460000Y-27530000D03*
D15*
%TO.P,A1,38,GND_38*%
%TO.N,unconnected-(A1-GND-Pad13)_8*%
X28920000Y-27530000D03*
D11*
%TO.P,A1,39,VSYS_39*%
%TO.N,unconnected-(A1-VSYS-Pad39)*%
X26380000Y-27530000D03*
%TO.P,A1,40,VBUS_40*%
%TO.N,unconnected-(A1-VBUS-Pad40)_1*%
X23840000Y-27530000D03*
%TD*%
D16*
%TO.N,ROW1*%
X28980000Y-40280000D03*
X32690000Y-66940000D03*
X44700000Y-66730000D03*
%TO.N,ROW3*%
X46730000Y-104880000D03*
X42110000Y-104880000D03*
%TO.N,COL0*%
X304880000Y-124980000D03*
X250300000Y-123310000D03*
X93680000Y-125660000D03*
X224130000Y-144580000D03*
X255070000Y-113180000D03*
%TO.N,ROW2*%
X49350000Y-56240000D03*
X30660000Y-37570000D03*
X34380000Y-41060000D03*
X65470000Y-85725000D03*
%TO.N,COL10*%
X251250000Y-83050000D03*
X53440000Y-67275000D03*
X258640000Y-83070000D03*
%TO.N,COL7*%
X163770000Y-46510000D03*
X71240000Y-43300000D03*
X319640000Y-23330000D03*
X65220000Y-37750000D03*
X84270000Y-43260000D03*
X212870000Y-23330000D03*
%TO.N,COL2*%
X105710000Y-26690000D03*
%TO.N,COL5*%
X162920000Y-23330000D03*
X173700000Y-25490000D03*
%TO.N,ROW11*%
X79120000Y-11160000D03*
%TO.N,COL6*%
X202870000Y-24800000D03*
X66940000Y-32970000D03*
%TO.N,ROW7*%
X82620000Y-53790000D03*
X242760000Y-64580000D03*
X104370000Y-53660000D03*
X55140000Y-14720000D03*
X57100000Y-16750000D03*
X165940000Y-61680000D03*
X185380000Y-64250000D03*
X65070000Y-41170000D03*
%TO.N,COL3*%
X115420000Y-26090000D03*
%TO.N,ROW5*%
X25235000Y-142875000D03*
%TO.N,COL1*%
X61370000Y-115150000D03*
%TO.N,ROW8*%
X77104265Y-46775735D03*
X66880000Y-46630000D03*
%TO.N,COL4*%
X139110000Y-24740000D03*
X321350000Y-25480000D03*
%TO.N,COL8*%
X236790000Y-124970000D03*
X194987500Y-63542500D03*
X77180000Y-60930000D03*
X106100000Y-62670000D03*
X66170000Y-52810000D03*
X92570000Y-62640000D03*
X60790000Y-48980000D03*
%TO.N,COL9*%
X73050000Y-87310000D03*
X365590000Y-125280000D03*
%TO.N,ROW10*%
X234940000Y-136150000D03*
X97600000Y-120970000D03*
X73840000Y-65270000D03*
X101740000Y-122890000D03*
X262370000Y-135050000D03*
%TO.N,ROW0*%
X66675000Y-47625000D03*
X34660000Y-42670000D03*
X42080000Y-47730000D03*
X79070000Y-47680000D03*
X27215000Y-37270000D03*
%TD*%
%TO.N,ROW1*%
D17*
X28275000Y-26260820D02*
X27815000Y-26720820D01*
X44660000Y-66690000D02*
X44700000Y-66730000D01*
X66675000Y-66675000D02*
X47625000Y-66675000D01*
X27815000Y-26720820D02*
X27815000Y-39115000D01*
X123825000Y-66675000D02*
X104775000Y-66675000D01*
X219075000Y-66675000D02*
X200025000Y-66675000D01*
X104775000Y-66675000D02*
X85725000Y-66675000D01*
X238125000Y-66675000D02*
X219075000Y-66675000D01*
X32940000Y-66690000D02*
X44660000Y-66690000D01*
X200025000Y-66675000D02*
X180975000Y-66675000D01*
X85725000Y-66675000D02*
X66675000Y-66675000D01*
X142875000Y-66675000D02*
X123825000Y-66675000D01*
X27815000Y-39115000D02*
X28980000Y-40280000D01*
X32690000Y-66940000D02*
X32940000Y-66690000D01*
X161925000Y-66675000D02*
X142875000Y-66675000D01*
X180975000Y-66675000D02*
X161925000Y-66675000D01*
X26380000Y-9750000D02*
X28275000Y-11645000D01*
X28275000Y-11645000D02*
X28275000Y-26260820D01*
%TO.N,Net-(D29-A)*%
X195580000Y-54610000D02*
X200025000Y-59055000D01*
X186690000Y-54610000D02*
X195580000Y-54610000D01*
%TO.N,ROW3*%
X157072512Y-104775000D02*
X138133651Y-104775000D01*
X252322512Y-104775000D02*
X233272512Y-104775000D01*
X80872512Y-104775000D02*
X63308750Y-104775000D01*
X99455000Y-104775000D02*
X100033651Y-104775000D01*
X100033651Y-104775000D02*
X80872512Y-104775000D01*
X118972512Y-104775000D02*
X99455000Y-104775000D01*
X99455000Y-104775000D02*
X99210000Y-105020000D01*
X195172512Y-104775000D02*
X176122512Y-104775000D01*
X48330000Y-103280000D02*
X46730000Y-104880000D01*
X214222512Y-104775000D02*
X195172512Y-104775000D01*
X42060000Y-104830000D02*
X42110000Y-104880000D01*
X120020000Y-104580000D02*
X119825000Y-104775000D01*
X63308750Y-104775000D02*
X61813750Y-103280000D01*
X34000000Y-9750000D02*
X32890000Y-10860000D01*
X233272512Y-104775000D02*
X214222512Y-104775000D01*
X61813750Y-103280000D02*
X48330000Y-103280000D01*
X40420000Y-104830000D02*
X42060000Y-104830000D01*
X138133651Y-104775000D02*
X120215000Y-104775000D01*
X32890000Y-36272944D02*
X29820000Y-39342944D01*
X120215000Y-104775000D02*
X120020000Y-104580000D01*
X29820000Y-94230000D02*
X40420000Y-104830000D01*
X32890000Y-10860000D02*
X32890000Y-36272944D01*
X176122512Y-104775000D02*
X157072512Y-104775000D01*
X29820000Y-39342944D02*
X29820000Y-94230000D01*
X119825000Y-104775000D02*
X118972512Y-104775000D01*
%TO.N,Net-(D66-A)*%
X118972512Y-97155000D02*
X114527512Y-92710000D01*
X114527512Y-92710000D02*
X105637512Y-92710000D01*
%TO.N,COL0*%
X93680000Y-125660000D02*
X97780000Y-125660000D01*
X224030000Y-144680000D02*
X224130000Y-144580000D01*
X302160000Y-118540000D02*
X304880000Y-121260000D01*
X255070000Y-118540000D02*
X255070000Y-113180000D01*
X255070000Y-118540000D02*
X302160000Y-118540000D01*
X116800000Y-144680000D02*
X224030000Y-144680000D01*
X304880000Y-121260000D02*
X304880000Y-124980000D01*
X250300000Y-123310000D02*
X255070000Y-118540000D01*
X97780000Y-125660000D02*
X116800000Y-144680000D01*
%TO.N,Net-(D79-A)*%
X46083209Y-111760000D02*
X66879459Y-111760000D01*
X66879459Y-111760000D02*
X71324459Y-116205000D01*
%TO.N,ROW2*%
X152400000Y-85725000D02*
X171450000Y-85725000D01*
X30360000Y-37270000D02*
X30660000Y-37570000D01*
X151485000Y-85725000D02*
X152400000Y-85725000D01*
X209550000Y-85725000D02*
X228600000Y-85725000D01*
X171450000Y-85725000D02*
X190500000Y-85725000D01*
X114300000Y-85725000D02*
X133350000Y-85725000D01*
X133350000Y-85725000D02*
X151235000Y-85725000D01*
X36470000Y-41060000D02*
X49350000Y-53940000D01*
X49350000Y-53940000D02*
X49350000Y-56240000D01*
X34380000Y-41060000D02*
X36470000Y-41060000D01*
X76200000Y-85725000D02*
X95250000Y-85725000D01*
X65470000Y-85725000D02*
X76200000Y-85725000D01*
X151360000Y-85850000D02*
X151485000Y-85725000D01*
X31460000Y-9750000D02*
X30360000Y-10850000D01*
X228600000Y-85725000D02*
X247650000Y-85725000D01*
X151235000Y-85725000D02*
X151360000Y-85850000D01*
X95250000Y-85725000D02*
X114300000Y-85725000D01*
X190500000Y-85725000D02*
X209550000Y-85725000D01*
X57150000Y-85725000D02*
X65470000Y-85725000D01*
X30360000Y-10850000D02*
X30360000Y-37270000D01*
%TO.N,Net-(D49-A)*%
X186055000Y-73660000D02*
X190500000Y-78105000D01*
X177165000Y-73660000D02*
X186055000Y-73660000D01*
%TO.N,COL10*%
X258755000Y-83185000D02*
X433070000Y-83185000D01*
X53440000Y-67275000D02*
X53440000Y-70820000D01*
X65570000Y-82950000D02*
X213500000Y-82950000D01*
X258640000Y-83070000D02*
X258755000Y-83185000D01*
X213500000Y-82950000D02*
X213530000Y-82920000D01*
X251120000Y-82920000D02*
X251250000Y-83050000D01*
X53440000Y-70820000D02*
X65570000Y-82950000D01*
X213530000Y-82920000D02*
X251120000Y-82920000D01*
%TO.N,Net-(D41-A)*%
X443230000Y-54610000D02*
X447675000Y-59055000D01*
X434340000Y-54610000D02*
X443230000Y-54610000D01*
%TO.N,COL7*%
X212255000Y-23330000D02*
X202565000Y-33020000D01*
X70770000Y-43300000D02*
X71240000Y-43300000D01*
X84270000Y-43260000D02*
X160520000Y-43260000D01*
X160520000Y-43260000D02*
X163770000Y-46510000D01*
X402590000Y-33020000D02*
X392900000Y-23330000D01*
X212870000Y-23330000D02*
X212255000Y-23330000D01*
X65220000Y-37750000D02*
X70770000Y-43300000D01*
X392900000Y-23330000D02*
X319640000Y-23330000D01*
%TO.N,Net-(D70-A)*%
X190727512Y-92710000D02*
X195172512Y-97155000D01*
X181837512Y-92710000D02*
X190727512Y-92710000D01*
%TO.N,COL2*%
X105710000Y-26690000D02*
X86500000Y-26690000D01*
X86500000Y-26690000D02*
X69560000Y-9750000D01*
X99380000Y-33020000D02*
X105710000Y-26690000D01*
X97790000Y-33020000D02*
X99380000Y-33020000D01*
%TO.N,Net-(D81-A)*%
X106208651Y-111760000D02*
X96223651Y-111760000D01*
X109558651Y-115110000D02*
X106208651Y-111760000D01*
%TO.N,COL5*%
X171995000Y-25490000D02*
X168830000Y-25490000D01*
X166680000Y-23400000D02*
X162990000Y-23400000D01*
X168830000Y-25490000D02*
X166710000Y-23370000D01*
X166710000Y-23370000D02*
X166680000Y-23400000D01*
X171995000Y-25490000D02*
X173700000Y-25490000D01*
X162990000Y-23400000D02*
X162920000Y-23330000D01*
X164465000Y-33020000D02*
X171995000Y-25490000D01*
%TO.N,Net-(D68-A)*%
X152627512Y-92710000D02*
X143737512Y-92710000D01*
X157072512Y-97155000D02*
X152627512Y-92710000D01*
%TO.N,ROW11*%
X61000000Y-8150000D02*
X76670000Y-8150000D01*
X408510000Y-143940000D02*
X372540000Y-143940000D01*
X409575000Y-142875000D02*
X408510000Y-143940000D01*
X79120000Y-10600000D02*
X79120000Y-11160000D01*
X371475000Y-142875000D02*
X352425000Y-142875000D01*
X372540000Y-143940000D02*
X371475000Y-142875000D01*
X59400000Y-9750000D02*
X61000000Y-8150000D01*
X76670000Y-8150000D02*
X79120000Y-10600000D01*
X352425000Y-142875000D02*
X333375000Y-142875000D01*
X427410000Y-142875000D02*
X409575000Y-142875000D01*
%TO.N,Net-(D106-A)*%
X367030000Y-130810000D02*
X358140000Y-130810000D01*
X371475000Y-135255000D02*
X367030000Y-130810000D01*
%TO.N,COL6*%
X202810000Y-24740000D02*
X202870000Y-24800000D01*
X196810000Y-24740000D02*
X202810000Y-24740000D01*
X134930000Y-49570000D02*
X79050000Y-49570000D01*
X154940000Y-52070000D02*
X152490000Y-49620000D01*
X183515000Y-33020000D02*
X188530000Y-33020000D01*
X188530000Y-33020000D02*
X196810000Y-24740000D01*
X152490000Y-49620000D02*
X134980000Y-49620000D01*
X79050000Y-49570000D02*
X67420000Y-37940000D01*
X67420000Y-37940000D02*
X67420000Y-33450000D01*
X134980000Y-49620000D02*
X134930000Y-49570000D01*
X67420000Y-33450000D02*
X66940000Y-32970000D01*
%TO.N,Net-(D27-A)*%
X161925000Y-59055000D02*
X157480000Y-54610000D01*
X157480000Y-54610000D02*
X148590000Y-54610000D01*
%TO.N,ROW4*%
X44683209Y-112413402D02*
X48919807Y-116650000D01*
X46525000Y-46840256D02*
X46525000Y-49907944D01*
X165125000Y-123825000D02*
X165310000Y-124010000D01*
X129385000Y-123825000D02*
X128608651Y-123825000D01*
X223858651Y-123825000D02*
X242908651Y-123825000D01*
X46525000Y-49907944D02*
X50870000Y-54252944D01*
X49381637Y-68781002D02*
X58250000Y-77649365D01*
X109558651Y-122730000D02*
X127513651Y-122730000D01*
X36290000Y-97240000D02*
X44683209Y-105633209D01*
X147658651Y-123825000D02*
X165125000Y-123825000D01*
X90508651Y-123825000D02*
X108463651Y-123825000D01*
X242908651Y-123825000D02*
X242993651Y-123910000D01*
X55170000Y-116650000D02*
X59280000Y-112540000D01*
X70815000Y-123825000D02*
X71324459Y-123825000D01*
X48725000Y-39549365D02*
X48725000Y-44640256D01*
X165495000Y-123825000D02*
X166431822Y-123825000D01*
X36290000Y-91050000D02*
X36290000Y-97240000D01*
X58250000Y-79440000D02*
X52550000Y-85140000D01*
X42200000Y-85140000D02*
X36290000Y-91050000D01*
X44683209Y-105633209D02*
X44683209Y-112413402D01*
X48140000Y-38964365D02*
X48725000Y-39549365D01*
X50870000Y-61545256D02*
X46525000Y-65890256D01*
X261851388Y-123910000D02*
X261936388Y-123825000D01*
X108463651Y-123825000D02*
X109558651Y-122730000D01*
X71324459Y-123825000D02*
X90508651Y-123825000D01*
X48919807Y-116650000D02*
X55170000Y-116650000D01*
X204808651Y-123825000D02*
X185758651Y-123825000D01*
X58250000Y-77649365D02*
X58250000Y-79440000D01*
X127513651Y-122730000D02*
X128608651Y-123825000D01*
X63640000Y-112540000D02*
X67370000Y-116270000D01*
X52550000Y-85140000D02*
X42200000Y-85140000D01*
X48725000Y-44640256D02*
X46525000Y-46840256D01*
X129385000Y-123825000D02*
X129440000Y-123770000D01*
X50870000Y-54252944D02*
X50870000Y-61545256D01*
X67370000Y-116270000D02*
X67370000Y-120380000D01*
X46525000Y-67459744D02*
X47846258Y-68781002D01*
X242993651Y-123910000D02*
X261851388Y-123910000D01*
X185758651Y-123825000D02*
X166431822Y-123825000D01*
X59280000Y-112540000D02*
X63640000Y-112540000D01*
X128608651Y-123825000D02*
X147658651Y-123825000D01*
X36540000Y-9750000D02*
X48140000Y-21350000D01*
X48140000Y-21350000D02*
X48140000Y-38964365D01*
X46525000Y-65890256D02*
X46525000Y-67459744D01*
X165310000Y-124010000D02*
X165495000Y-123825000D01*
X67370000Y-120380000D02*
X70815000Y-123825000D01*
X47846258Y-68781002D02*
X49381637Y-68781002D01*
X204808651Y-123825000D02*
X223858651Y-123825000D01*
%TO.N,Net-(D83-A)*%
X134323651Y-111760000D02*
X143213651Y-111760000D01*
X143213651Y-111760000D02*
X147658651Y-116205000D01*
%TO.N,Net-(D88-A)*%
X229573651Y-111760000D02*
X238463651Y-111760000D01*
X238463651Y-111760000D02*
X242908651Y-116205000D01*
%TO.N,ROW7*%
X352425000Y-66670795D02*
X352269205Y-66670795D01*
X428625000Y-66675000D02*
X409575000Y-66675000D01*
X165870000Y-61610000D02*
X165940000Y-61680000D01*
X447675000Y-66675000D02*
X428625000Y-66675000D01*
X104370000Y-53660000D02*
X108240000Y-53660000D01*
X333375000Y-66675000D02*
X304800000Y-66675000D01*
X352265000Y-66675000D02*
X333375000Y-66675000D01*
X77690000Y-53790000D02*
X82620000Y-53790000D01*
X55140000Y-14790000D02*
X57100000Y-16750000D01*
X129290000Y-61610000D02*
X165870000Y-61610000D01*
X276225000Y-66675000D02*
X257175000Y-66675000D01*
X185910000Y-64780000D02*
X242560000Y-64780000D01*
X242560000Y-64780000D02*
X242760000Y-64580000D01*
X371475000Y-66675000D02*
X352429205Y-66675000D01*
X65070000Y-41170000D02*
X77690000Y-53790000D01*
X108240000Y-53660000D02*
X109340000Y-52560000D01*
X55140000Y-14720000D02*
X55140000Y-14790000D01*
X390525000Y-66675000D02*
X371475000Y-66675000D01*
X109340000Y-52560000D02*
X113750000Y-52560000D01*
X121530000Y-53850000D02*
X129290000Y-61610000D01*
X115040000Y-53850000D02*
X121530000Y-53850000D01*
X185380000Y-64250000D02*
X185910000Y-64780000D01*
X113750000Y-52560000D02*
X115040000Y-53850000D01*
X409575000Y-66675000D02*
X390525000Y-66675000D01*
X352269205Y-66670795D02*
X352265000Y-66675000D01*
X304800000Y-66675000D02*
X276225000Y-66675000D01*
X352429205Y-66675000D02*
X352425000Y-66670795D01*
%TO.N,Net-(D37-A)*%
X367030000Y-54610000D02*
X371475000Y-59055000D01*
X358140000Y-54610000D02*
X367030000Y-54610000D01*
%TO.N,Net-(D89-A)*%
X248623651Y-111760000D02*
X257491388Y-111760000D01*
X257491388Y-111760000D02*
X261936388Y-116205000D01*
%TO.N,COL3*%
X109900000Y-26080000D02*
X96190000Y-12370000D01*
X79400000Y-12370000D02*
X76780000Y-9750000D01*
X109900000Y-26080000D02*
X115410000Y-26080000D01*
X115410000Y-26080000D02*
X115420000Y-26090000D01*
X76780000Y-9750000D02*
X72100000Y-9750000D01*
X96190000Y-12370000D02*
X79400000Y-12370000D01*
X116840000Y-33020000D02*
X109900000Y-26080000D01*
%TO.N,Net-(D45-A)*%
X109855000Y-73660000D02*
X114300000Y-78105000D01*
X100965000Y-73660000D02*
X109855000Y-73660000D01*
%TO.N,ROW5*%
X99851910Y-142875000D02*
X76088341Y-142875000D01*
X232850000Y-142875000D02*
X218978072Y-142875000D01*
X290528068Y-142875000D02*
X266700000Y-142875000D01*
X242809347Y-142875000D02*
X232850000Y-142875000D01*
X52265312Y-142875000D02*
X25235000Y-142875000D01*
X314325000Y-142875000D02*
X290528068Y-142875000D01*
X230535000Y-145190000D02*
X102166910Y-145190000D01*
X232850000Y-142875000D02*
X230535000Y-145190000D01*
X76088341Y-142875000D02*
X52265312Y-142875000D01*
X102166910Y-145190000D02*
X99851910Y-142875000D01*
X266700000Y-142875000D02*
X242809347Y-142875000D01*
%TO.N,Net-(D101-A)*%
X262255000Y-130810000D02*
X250885000Y-130810000D01*
X266700000Y-135255000D02*
X262255000Y-130810000D01*
%TO.N,Net-(D75-A)*%
X305800000Y-96250000D02*
X314325000Y-96250000D01*
X302260000Y-92710000D02*
X305800000Y-96250000D01*
X289078934Y-92710000D02*
X302260000Y-92710000D01*
%TO.N,Net-(D96-A)*%
X99851910Y-135255000D02*
X95406910Y-130810000D01*
X95406910Y-130810000D02*
X84135660Y-130810000D01*
%TO.N,Net-(D38-A)*%
X377190000Y-54610000D02*
X386080000Y-54610000D01*
X386080000Y-54610000D02*
X390525000Y-59055000D01*
%TO.N,Net-(D54-A)*%
X281305000Y-73660000D02*
X285750000Y-78105000D01*
X272415000Y-73660000D02*
X281305000Y-73660000D01*
%TO.N,COL1*%
X61370000Y-115150000D02*
X48250000Y-128270000D01*
X48250000Y-128270000D02*
X42899062Y-128270000D01*
%TO.N,Net-(D53-A)*%
X253365000Y-73660000D02*
X262255000Y-73660000D01*
X262255000Y-73660000D02*
X266700000Y-78105000D01*
%TO.N,ROW6*%
X333375000Y-47625000D02*
X352425000Y-47625000D01*
X428625000Y-47625000D02*
X447675000Y-47625000D01*
X371475000Y-47625000D02*
X390525000Y-47625000D01*
X390525000Y-47625000D02*
X409575000Y-47625000D01*
X314325000Y-47625000D02*
X333375000Y-47625000D01*
X295275000Y-47625000D02*
X314325000Y-47625000D01*
X371475000Y-47625000D02*
X352425000Y-47625000D01*
X409575000Y-47625000D02*
X428625000Y-47625000D01*
%TO.N,Net-(D17-A)*%
X390525000Y-40005000D02*
X386080000Y-35560000D01*
X386080000Y-35560000D02*
X377190000Y-35560000D01*
%TO.N,ROW8*%
X67820000Y-37774314D02*
X67820000Y-33001471D01*
X169440000Y-62910000D02*
X244220000Y-62910000D01*
X409575000Y-85725000D02*
X428625000Y-85725000D01*
X148260000Y-50120000D02*
X151950000Y-53810000D01*
X79348530Y-49020000D02*
X79065686Y-49020000D01*
X285750000Y-85725000D02*
X314325000Y-85725000D01*
X244220000Y-62910000D02*
X250700000Y-69390000D01*
X66691471Y-32370000D02*
X66340000Y-32721471D01*
X434905000Y-92005000D02*
X428625000Y-85725000D01*
X160340000Y-53810000D02*
X169440000Y-62910000D01*
X79034315Y-50120000D02*
X148260000Y-50120000D01*
X53215000Y-13725000D02*
X53215000Y-32965000D01*
X266700000Y-85725000D02*
X285750000Y-85725000D01*
X67188529Y-32370000D02*
X66691471Y-32370000D01*
X352425000Y-85725000D02*
X371470795Y-85725000D01*
X409575000Y-85725000D02*
X390525000Y-85725000D01*
X49240000Y-9750000D02*
X53215000Y-13725000D01*
X67820000Y-33001471D02*
X67188529Y-32370000D01*
X333375000Y-85725000D02*
X352425000Y-85725000D01*
X79065686Y-49020000D02*
X67820000Y-37774314D01*
X66340000Y-37425685D02*
X79034315Y-50120000D01*
X66340000Y-32721471D02*
X66340000Y-37425685D01*
X314325000Y-85725000D02*
X333375000Y-85725000D01*
X151950000Y-53810000D02*
X160340000Y-53810000D01*
X77104265Y-46775735D02*
X79348530Y-49020000D01*
X250700000Y-77440000D02*
X258985000Y-85725000D01*
X441395000Y-92005000D02*
X434905000Y-92005000D01*
X371470795Y-85725000D02*
X371475000Y-85720795D01*
X390520795Y-85720795D02*
X390525000Y-85725000D01*
X447675000Y-85725000D02*
X441395000Y-92005000D01*
X371475000Y-85720795D02*
X390520795Y-85720795D01*
X258985000Y-85725000D02*
X266700000Y-85725000D01*
X53215000Y-32965000D02*
X66880000Y-46630000D01*
X250700000Y-69390000D02*
X250700000Y-77440000D01*
%TO.N,Net-(D62-A)*%
X440225000Y-89535000D02*
X447675000Y-82085000D01*
X447675000Y-82085000D02*
X447675000Y-78105000D01*
X435610000Y-89535000D02*
X440225000Y-89535000D01*
%TO.N,COL4*%
X135890000Y-27960000D02*
X135890000Y-33020000D01*
X139110000Y-24740000D02*
X135890000Y-27960000D01*
X345440000Y-33020000D02*
X328890000Y-33020000D01*
X328890000Y-33020000D02*
X321350000Y-25480000D01*
%TO.N,Net-(D67-A)*%
X124687512Y-92710000D02*
X133688651Y-92710000D01*
X133688651Y-92710000D02*
X138133651Y-97155000D01*
%TO.N,Net-(D13-A)*%
X314325000Y-40005000D02*
X309880000Y-35560000D01*
X309880000Y-35560000D02*
X300990000Y-35560000D01*
%TO.N,Net-(D31-A)*%
X233680000Y-54610000D02*
X224790000Y-54610000D01*
X238125000Y-59055000D02*
X233680000Y-54610000D01*
%TO.N,COL8*%
X92500000Y-62710000D02*
X92570000Y-62640000D01*
X90930000Y-62710000D02*
X92500000Y-62710000D01*
X404569899Y-33020000D02*
X403169899Y-34420000D01*
X89150000Y-60930000D02*
X90930000Y-62710000D01*
X229755000Y-24880000D02*
X221615000Y-33020000D01*
X60790000Y-48980000D02*
X62340000Y-48980000D01*
X62340000Y-48980000D02*
X66170000Y-52810000D01*
X398250000Y-34420000D02*
X388710000Y-24880000D01*
X257235000Y-128270000D02*
X240090000Y-128270000D01*
X106100000Y-62670000D02*
X106870000Y-63440000D01*
X240090000Y-128270000D02*
X236790000Y-124970000D01*
X421640000Y-33020000D02*
X404569899Y-33020000D01*
X106870000Y-63440000D02*
X194885000Y-63440000D01*
X388710000Y-24880000D02*
X229755000Y-24880000D01*
X77180000Y-60930000D02*
X89150000Y-60930000D01*
X403169899Y-34420000D02*
X398250000Y-34420000D01*
%TO.N,Net-(D39-A)*%
X396240000Y-54610000D02*
X405130000Y-54610000D01*
X405130000Y-54610000D02*
X409575000Y-59055000D01*
%TO.N,Net-(D19-A)*%
X428625000Y-40005000D02*
X424180000Y-35560000D01*
X424180000Y-35560000D02*
X415290000Y-35560000D01*
%TO.N,COL9*%
X222250000Y-88480000D02*
X223940000Y-90170000D01*
X73050000Y-87310000D02*
X74220000Y-88480000D01*
X223940000Y-90170000D02*
X226287512Y-90170000D01*
X364380000Y-126490000D02*
X282823063Y-126490000D01*
X365590000Y-125280000D02*
X364380000Y-126490000D01*
X282823063Y-126490000D02*
X281043063Y-128270000D01*
X74220000Y-88480000D02*
X222250000Y-88480000D01*
%TO.N,Net-(D10-A)*%
X252730000Y-35560000D02*
X243840000Y-35560000D01*
X257175000Y-40005000D02*
X252730000Y-35560000D01*
%TO.N,Net-(D46-A)*%
X128905000Y-73660000D02*
X120015000Y-73660000D01*
X133350000Y-78105000D02*
X128905000Y-73660000D01*
%TO.N,Net-(D28-A)*%
X167640000Y-54610000D02*
X176530000Y-54610000D01*
X176530000Y-54610000D02*
X180975000Y-59055000D01*
%TO.N,Net-(D85-A)*%
X181313651Y-111760000D02*
X185758651Y-116205000D01*
X172423651Y-111760000D02*
X181313651Y-111760000D01*
%TO.N,Net-(D14-A)*%
X328930000Y-35560000D02*
X320040000Y-35560000D01*
X333375000Y-40005000D02*
X328930000Y-35560000D01*
%TO.N,Net-(D5-A)*%
X138430000Y-35560000D02*
X129540000Y-35560000D01*
X142875000Y-40005000D02*
X138430000Y-35560000D01*
%TO.N,Net-(D21-A)*%
X47625000Y-59055000D02*
X43180000Y-54610000D01*
X43180000Y-54610000D02*
X34290000Y-54610000D01*
%TO.N,Net-(D84-A)*%
X153373651Y-111760000D02*
X161986822Y-111760000D01*
X161986822Y-111760000D02*
X166431822Y-116205000D01*
%TO.N,Net-(D42-A)*%
X39052648Y-73660000D02*
X52705000Y-73660000D01*
X52705000Y-73660000D02*
X57150000Y-78105000D01*
%TO.N,Net-(D55-A)*%
X309880000Y-73660000D02*
X314325000Y-78105000D01*
X296259300Y-73660000D02*
X309880000Y-73660000D01*
%TO.N,Net-(D47-A)*%
X147955000Y-73660000D02*
X152400000Y-78105000D01*
X139065000Y-73660000D02*
X147955000Y-73660000D01*
%TO.N,Net-(D91-A)*%
X339090000Y-111760000D02*
X347980000Y-111760000D01*
X347980000Y-111760000D02*
X352425000Y-116205000D01*
%TO.N,Net-(D65-A)*%
X100033651Y-97155000D02*
X95588651Y-92710000D01*
X95588651Y-92710000D02*
X86587512Y-92710000D01*
%TO.N,Net-(D72-A)*%
X219937512Y-92710000D02*
X228827512Y-92710000D01*
X228827512Y-92710000D02*
X233272512Y-97155000D01*
%TO.N,ROW10*%
X67775000Y-45455000D02*
X67775000Y-58685000D01*
X352425000Y-123825000D02*
X390525000Y-123825000D01*
X67775000Y-58685000D02*
X73840000Y-64750000D01*
X99520000Y-122890000D02*
X101740000Y-122890000D01*
X409575000Y-123825000D02*
X390525000Y-123825000D01*
X434905000Y-130105000D02*
X441395000Y-130105000D01*
X73840000Y-64750000D02*
X73840000Y-65270000D01*
X57960000Y-10850000D02*
X57960000Y-35640000D01*
X97600000Y-120970000D02*
X99520000Y-122890000D01*
X441395000Y-130105000D02*
X447675000Y-123825000D01*
X235170000Y-136380000D02*
X261040000Y-136380000D01*
X428625000Y-123825000D02*
X434905000Y-130105000D01*
X56860000Y-9750000D02*
X57960000Y-10850000D01*
X234940000Y-136150000D02*
X235170000Y-136380000D01*
X314323888Y-123825000D02*
X352425000Y-123825000D01*
X57960000Y-35640000D02*
X67775000Y-45455000D01*
X261040000Y-136380000D02*
X262370000Y-135050000D01*
X409575000Y-123825000D02*
X428625000Y-123825000D01*
%TO.N,Net-(D95-A)*%
X441740000Y-125990000D02*
X440095000Y-127635000D01*
X441740000Y-123190000D02*
X441740000Y-125990000D01*
X447675000Y-116205000D02*
X442810000Y-121070000D01*
X442810000Y-122120000D02*
X441740000Y-123190000D01*
X440095000Y-127635000D02*
X435610000Y-127635000D01*
X442810000Y-121070000D02*
X442810000Y-122120000D01*
%TO.N,Net-(D18-A)*%
X409575000Y-40005000D02*
X405130000Y-35560000D01*
X405130000Y-35560000D02*
X396240000Y-35560000D01*
%TO.N,Net-(D63-A)*%
X60318750Y-95660000D02*
X61813750Y-95660000D01*
X57368750Y-92710000D02*
X41335000Y-92710000D01*
X57368750Y-92710000D02*
X60318750Y-95660000D01*
%TO.N,Net-(D32-A)*%
X243840000Y-54610000D02*
X252730000Y-54610000D01*
X252730000Y-54610000D02*
X257175000Y-59055000D01*
%TO.N,Net-(D94-A)*%
X424180000Y-111760000D02*
X415290000Y-111760000D01*
X428625000Y-116205000D02*
X424180000Y-111760000D01*
%TO.N,Net-(D60-A)*%
X396240000Y-73660000D02*
X405130000Y-73660000D01*
X405130000Y-73660000D02*
X409575000Y-78105000D01*
%TO.N,Net-(D4-A)*%
X119380000Y-35560000D02*
X110490000Y-35560000D01*
X123825000Y-40005000D02*
X119380000Y-35560000D01*
%TO.N,Net-(D71-A)*%
X200887512Y-92710000D02*
X209777512Y-92710000D01*
X209777512Y-92710000D02*
X214222512Y-97155000D01*
%TO.N,Net-(D20-A)*%
X443230000Y-35560000D02*
X434340000Y-35560000D01*
X447675000Y-40005000D02*
X443230000Y-35560000D01*
%TO.N,Net-(D57-A)*%
X339090000Y-73655795D02*
X347975795Y-73655795D01*
X347975795Y-73655795D02*
X352425000Y-78105000D01*
%TO.N,Net-(D12-A)*%
X295275000Y-40005000D02*
X290830000Y-35560000D01*
X290830000Y-35560000D02*
X281940000Y-35560000D01*
%TO.N,Net-(D77-A)*%
X396240000Y-92710000D02*
X405130000Y-92710000D01*
X405130000Y-92710000D02*
X409575000Y-97155000D01*
%TO.N,Net-(D104-A)*%
X328930000Y-130810000D02*
X320040000Y-130810000D01*
X333375000Y-135255000D02*
X328930000Y-130810000D01*
%TO.N,Net-(D30-A)*%
X214630000Y-54610000D02*
X219075000Y-59055000D01*
X205740000Y-54610000D02*
X214630000Y-54610000D01*
%TO.N,ROW0*%
X228600000Y-47625000D02*
X257175000Y-47625000D01*
X123825000Y-47625000D02*
X142875000Y-47625000D01*
X228600000Y-47625000D02*
X209550000Y-47625000D01*
X85725000Y-47625000D02*
X104775000Y-47625000D01*
X190500000Y-47625000D02*
X209550000Y-47625000D01*
X85725000Y-47625000D02*
X79125000Y-47625000D01*
X24940000Y-34995000D02*
X27215000Y-37270000D01*
X24940000Y-27074365D02*
X24940000Y-34995000D01*
X23840000Y-9750000D02*
X25420000Y-11330000D01*
X79125000Y-47625000D02*
X79070000Y-47680000D01*
X36320000Y-42670000D02*
X41380000Y-47730000D01*
X41380000Y-47730000D02*
X42080000Y-47730000D01*
X47625000Y-47625000D02*
X66675000Y-47625000D01*
X257175000Y-47625000D02*
X276225000Y-47625000D01*
X171450000Y-47625000D02*
X190500000Y-47625000D01*
X142875000Y-47625000D02*
X171450000Y-47625000D01*
X104775000Y-47625000D02*
X123825000Y-47625000D01*
X25420000Y-26594365D02*
X24940000Y-27074365D01*
X34660000Y-42670000D02*
X36320000Y-42670000D01*
X25420000Y-11330000D02*
X25420000Y-26594365D01*
%TO.N,Net-(D8-A)*%
X209550000Y-40005000D02*
X205105000Y-35560000D01*
X205105000Y-35560000D02*
X196215000Y-35560000D01*
%TO.N,Net-(D105-A)*%
X347980000Y-130810000D02*
X339090000Y-130810000D01*
X352425000Y-135255000D02*
X347980000Y-130810000D01*
%TO.N,Net-(D1-A)*%
X47625000Y-40005000D02*
X43180000Y-35560000D01*
X43180000Y-35560000D02*
X34290000Y-35560000D01*
%TO.N,ROW9*%
X249680000Y-78770000D02*
X262660000Y-91750000D01*
X300121788Y-104740000D02*
X295890000Y-104740000D01*
X315230000Y-104775000D02*
X314325000Y-103870000D01*
X57960000Y-10205635D02*
X63380000Y-15625635D01*
X276356788Y-104775000D02*
X271372512Y-104775000D01*
X262660000Y-91750000D02*
X268920000Y-91750000D01*
X63380000Y-15625635D02*
X63380000Y-34840000D01*
X268920000Y-91750000D02*
X273760000Y-96590000D01*
X277421788Y-105840000D02*
X276356788Y-104775000D01*
X52885000Y-8645000D02*
X57310635Y-8645000D01*
X409575000Y-104775000D02*
X390525000Y-104775000D01*
X249680000Y-69260000D02*
X249680000Y-78770000D01*
X96240000Y-65180000D02*
X245600000Y-65180000D01*
X245600000Y-65180000D02*
X249680000Y-69260000D01*
X57310635Y-8645000D02*
X57960000Y-9294365D01*
X312355000Y-105840000D02*
X301221788Y-105840000D01*
X273760000Y-96590000D02*
X273760000Y-102178212D01*
X295890000Y-104740000D02*
X294790000Y-105840000D01*
X301221788Y-105840000D02*
X300121788Y-104740000D01*
X273760000Y-102178212D02*
X276356788Y-104775000D01*
X64220000Y-35680000D02*
X64220000Y-37910000D01*
X412760000Y-101590000D02*
X409575000Y-104775000D01*
X427840000Y-101590000D02*
X412760000Y-101590000D01*
X51780000Y-9750000D02*
X52885000Y-8645000D01*
X81580000Y-50520000D02*
X96240000Y-65180000D01*
X294790000Y-105840000D02*
X277421788Y-105840000D01*
X63380000Y-34840000D02*
X64220000Y-35680000D01*
X57960000Y-9294365D02*
X57960000Y-10205635D01*
X64220000Y-37910000D02*
X76830000Y-50520000D01*
X390525000Y-104775000D02*
X315230000Y-104775000D01*
X314325000Y-103870000D02*
X312355000Y-105840000D01*
X76830000Y-50520000D02*
X81580000Y-50520000D01*
%TO.N,Net-(D33-A)*%
X271780000Y-54610000D02*
X276225000Y-59055000D01*
X262890000Y-54610000D02*
X271780000Y-54610000D01*
%TO.N,Net-(D100-A)*%
X238364347Y-130810000D02*
X227093097Y-130810000D01*
X242809347Y-135255000D02*
X238364347Y-130810000D01*
%TO.N,Net-(D51-A)*%
X224155000Y-73660000D02*
X228600000Y-78105000D01*
X215265000Y-73660000D02*
X224155000Y-73660000D01*
%TO.N,Net-(D64-A)*%
X76427512Y-92710000D02*
X67537512Y-92710000D01*
X80872512Y-97155000D02*
X76427512Y-92710000D01*
%TO.N,Net-(D80-A)*%
X77173651Y-111760000D02*
X86063651Y-111760000D01*
X86063651Y-111760000D02*
X90508651Y-116205000D01*
%TO.N,Net-(D107-A)*%
X405130000Y-130810000D02*
X386715000Y-130810000D01*
X409575000Y-135255000D02*
X405130000Y-130810000D01*
%TO.N,Net-(D108-A)*%
X427410000Y-135255000D02*
X427410000Y-134040000D01*
X424180000Y-130810000D02*
X415290000Y-130810000D01*
X427410000Y-134040000D02*
X424180000Y-130810000D01*
%TO.N,Net-(D26-A)*%
X142875000Y-59055000D02*
X138430000Y-54610000D01*
X138430000Y-54610000D02*
X129540000Y-54610000D01*
%TO.N,Net-(D22-A)*%
X66675000Y-59055000D02*
X62230000Y-54610000D01*
X62230000Y-54610000D02*
X53340000Y-54610000D01*
%TO.N,Net-(D76-A)*%
X386080000Y-92710000D02*
X390525000Y-97155000D01*
X377190000Y-92710000D02*
X386080000Y-92710000D01*
%TO.N,Net-(D69-A)*%
X171677512Y-92710000D02*
X176122512Y-97155000D01*
X162787512Y-92710000D02*
X171677512Y-92710000D01*
%TO.N,Net-(D58-A)*%
X358140000Y-73660000D02*
X367034205Y-73660000D01*
X367034205Y-73660000D02*
X371475000Y-78100795D01*
%TO.N,Net-(D23-A)*%
X85725000Y-59055000D02*
X81280000Y-54610000D01*
X81280000Y-54610000D02*
X72390000Y-54610000D01*
%TO.N,Net-(D24-A)*%
X104775000Y-59055000D02*
X100330000Y-54610000D01*
X100330000Y-54610000D02*
X91440000Y-54610000D01*
%TO.N,Net-(D11-A)*%
X276225000Y-40005000D02*
X271780000Y-35560000D01*
X271780000Y-35560000D02*
X262890000Y-35560000D01*
%TO.N,Net-(D61-A)*%
X424180000Y-73660000D02*
X428625000Y-78105000D01*
X415290000Y-73660000D02*
X424180000Y-73660000D01*
%TO.N,Net-(D36-A)*%
X347984205Y-54610000D02*
X352425000Y-59050795D01*
X339090000Y-54610000D02*
X347984205Y-54610000D01*
%TO.N,Net-(D98-A)*%
X76088341Y-135255000D02*
X71643341Y-130810000D01*
X71643341Y-130810000D02*
X60372091Y-130810000D01*
%TO.N,Net-(D102-A)*%
X290528068Y-135255000D02*
X286083068Y-130810000D01*
X286083068Y-130810000D02*
X274693063Y-130810000D01*
%TO.N,Net-(D97-A)*%
X52265312Y-135255000D02*
X47820312Y-130810000D01*
X47820312Y-130810000D02*
X36549062Y-130810000D01*
%TO.N,Net-(D7-A)*%
X186055000Y-35560000D02*
X177165000Y-35560000D01*
X190500000Y-40005000D02*
X186055000Y-35560000D01*
%TO.N,Net-(D78-A)*%
X427840000Y-93970000D02*
X426480000Y-93970000D01*
X415290000Y-92710000D02*
X425220000Y-92710000D01*
X426480000Y-93970000D02*
X425220000Y-92710000D01*
%TO.N,Net-(D50-A)*%
X196215000Y-73660000D02*
X205105000Y-73660000D01*
X205105000Y-73660000D02*
X209550000Y-78105000D01*
%TO.N,Net-(D99-A)*%
X214533072Y-130810000D02*
X155636822Y-130810000D01*
X218978072Y-135255000D02*
X214533072Y-130810000D01*
%TO.N,Net-(D93-A)*%
X405130000Y-111760000D02*
X409575000Y-116205000D01*
X396240000Y-111760000D02*
X405130000Y-111760000D01*
%TO.N,Net-(D56-A)*%
X320040000Y-73660000D02*
X328930000Y-73660000D01*
X328930000Y-73660000D02*
X333375000Y-78105000D01*
%TO.N,Net-(D92-A)*%
X377190000Y-111760000D02*
X386080000Y-111760000D01*
X386080000Y-111760000D02*
X390525000Y-116205000D01*
%TO.N,Net-(D59-A)*%
X377190000Y-73660000D02*
X386080000Y-73660000D01*
X386080000Y-73660000D02*
X390525000Y-78105000D01*
%TO.N,Net-(D44-A)*%
X90805000Y-73660000D02*
X95250000Y-78105000D01*
X81915000Y-73660000D02*
X90805000Y-73660000D01*
%TO.N,Net-(D3-A)*%
X100330000Y-35560000D02*
X104775000Y-40005000D01*
X91440000Y-35560000D02*
X100330000Y-35560000D01*
%TO.N,Net-(D16-A)*%
X371475000Y-40005000D02*
X367030000Y-35560000D01*
X367030000Y-35560000D02*
X358140000Y-35560000D01*
%TO.N,Net-(D103-A)*%
X314325000Y-135255000D02*
X309880000Y-130810000D01*
X309880000Y-130810000D02*
X298624318Y-130810000D01*
%TO.N,Net-(D2-A)*%
X81280000Y-35560000D02*
X72390000Y-35560000D01*
X85725000Y-40005000D02*
X81280000Y-35560000D01*
%TO.N,Net-(D73-A)*%
X247877512Y-92710000D02*
X252322512Y-97155000D01*
X238987512Y-92710000D02*
X247877512Y-92710000D01*
%TO.N,Net-(D87-A)*%
X219413651Y-111760000D02*
X223858651Y-116205000D01*
X210523651Y-111760000D02*
X219413651Y-111760000D01*
%TO.N,Net-(D52-A)*%
X243205000Y-73660000D02*
X247650000Y-78105000D01*
X234315000Y-73660000D02*
X243205000Y-73660000D01*
%TO.N,Net-(D43-A)*%
X71755000Y-73660000D02*
X76200000Y-78105000D01*
X62865000Y-73660000D02*
X71755000Y-73660000D01*
%TO.N,Net-(D40-A)*%
X424180000Y-54610000D02*
X428625000Y-59055000D01*
X415290000Y-54610000D02*
X424180000Y-54610000D01*
%TO.N,Net-(D48-A)*%
X167005000Y-73660000D02*
X171450000Y-78105000D01*
X158115000Y-73660000D02*
X167005000Y-73660000D01*
%TO.N,Net-(D86-A)*%
X200363651Y-111760000D02*
X204808651Y-116205000D01*
X191473651Y-111760000D02*
X200363651Y-111760000D01*
%TO.N,Net-(D82-A)*%
X124163651Y-111760000D02*
X128608651Y-116205000D01*
X115273651Y-111760000D02*
X124163651Y-111760000D01*
%TO.N,Net-(D90-A)*%
X284320138Y-111760000D02*
X309878888Y-111760000D01*
X309878888Y-111760000D02*
X314323888Y-116205000D01*
%TO.N,Net-(D9-A)*%
X224155000Y-35560000D02*
X215265000Y-35560000D01*
X228600000Y-40005000D02*
X224155000Y-35560000D01*
%TO.N,Net-(D74-A)*%
X266927512Y-92710000D02*
X271372512Y-97155000D01*
X258037512Y-92710000D02*
X266927512Y-92710000D01*
%TO.N,Net-(D15-A)*%
X347980000Y-35560000D02*
X339090000Y-35560000D01*
X352425000Y-40005000D02*
X347980000Y-35560000D01*
%TO.N,Net-(D34-A)*%
X291465000Y-54610000D02*
X300355000Y-54610000D01*
X300355000Y-54610000D02*
X304800000Y-59055000D01*
%TO.N,Net-(D35-A)*%
X328930000Y-54610000D02*
X333375000Y-59055000D01*
X320040000Y-54610000D02*
X328930000Y-54610000D01*
%TO.N,Net-(D6-A)*%
X167005000Y-35560000D02*
X158115000Y-35560000D01*
X171450000Y-40005000D02*
X167005000Y-35560000D01*
%TO.N,Net-(D25-A)*%
X119380000Y-54610000D02*
X110490000Y-54610000D01*
X123825000Y-59055000D02*
X119380000Y-54610000D01*
%TD*%
M02*
