M48
; DRILL file KiCad 10.0.5 date 2026-10-05T21:06:55
; FORMAT={-:-/ absolute / metric / decimal}
; #@! TF.CreationDate,2026-10-05T21:06:55+05:00
; #@! TF.GenerationSoftware,Kicad,Pcbnew,10.0.5
; #@! TF.FileFunction,Plated,1,2,PTH
FMAT,2
METRIC
; #@! TA.AperFunction,Plated,PTH,ViaDrill
T1C0.300
; #@! TA.AperFunction,Plated,PTH,ComponentDrill
T2C0.800
; #@! TA.AperFunction,Plated,PTH,ComponentDrill
T3C1.000
; #@! TA.AperFunction,Plated,PTH,ComponentDrill
T4C1.500
%
G90
G05
T1
X25.235Y-142.875
X27.215Y-37.27
X28.98Y-40.28
X30.66Y-37.57
X32.69Y-66.94
X34.38Y-41.06
X34.66Y-42.67
X42.08Y-47.73
X42.11Y-104.88
X44.7Y-66.73
X46.73Y-104.88
X49.35Y-56.24
X53.44Y-67.275
X55.14Y-14.72
X57.1Y-16.75
X60.79Y-48.98
X61.37Y-115.15
X65.07Y-41.17
X65.22Y-37.75
X65.47Y-85.725
X66.17Y-52.81
X66.675Y-47.625
X66.88Y-46.63
X66.94Y-32.97
X71.24Y-43.3
X73.05Y-87.31
X73.84Y-65.27
X77.104Y-46.776
X77.18Y-60.93
X79.07Y-47.68
X79.12Y-11.16
X82.62Y-53.79
X84.27Y-43.26
X92.57Y-62.64
X93.68Y-125.66
X97.6Y-120.97
X101.74Y-122.89
X104.37Y-53.66
X105.71Y-26.69
X106.1Y-62.67
X115.42Y-26.09
X139.11Y-24.74
X162.92Y-23.33
X163.77Y-46.51
X165.94Y-61.68
X173.7Y-25.49
X185.38Y-64.25
X194.987Y-63.542
X202.87Y-24.8
X212.87Y-23.33
X224.13Y-144.58
X234.94Y-136.15
X236.79Y-124.97
X242.76Y-64.58
X250.3Y-123.31
X251.25Y-83.05
X255.07Y-113.18
X258.64Y-83.07
X262.37Y-135.05
X304.88Y-124.98
X319.64Y-23.33
X321.35Y-25.48
X365.59Y-125.28
T2
X47.625Y-40.005
X47.625Y-47.625
X47.625Y-59.055
X47.625Y-66.675
X52.265Y-135.255
X52.265Y-142.875
X57.15Y-78.105
X57.15Y-85.725
X61.814Y-95.66
X61.814Y-103.28
X66.675Y-59.055
X66.675Y-66.675
X71.324Y-116.205
X71.324Y-123.825
X76.088Y-135.255
X76.088Y-142.875
X76.2Y-78.105
X76.2Y-85.725
X80.873Y-97.155
X80.873Y-104.775
X85.725Y-40.005
X85.725Y-47.625
X85.725Y-59.055
X85.725Y-66.675
X90.509Y-116.205
X90.509Y-123.825
X95.25Y-78.105
X95.25Y-85.725
X99.852Y-135.255
X99.852Y-142.875
X100.034Y-97.155
X100.034Y-104.775
X104.775Y-40.005
X104.775Y-47.625
X104.775Y-59.055
X104.775Y-66.675
X109.559Y-115.11
X109.559Y-122.73
X114.3Y-78.105
X114.3Y-85.725
X118.973Y-97.155
X118.973Y-104.775
X123.825Y-40.005
X123.825Y-47.625
X123.825Y-59.055
X123.825Y-66.675
X128.609Y-116.205
X128.609Y-123.825
X133.35Y-78.105
X133.35Y-85.725
X138.134Y-97.155
X138.134Y-104.775
X142.875Y-40.005
X142.875Y-47.625
X142.875Y-59.055
X142.875Y-66.675
X147.659Y-116.205
X147.659Y-123.825
X152.4Y-78.105
X152.4Y-85.725
X157.073Y-97.155
X157.073Y-104.775
X161.925Y-59.055
X161.925Y-66.675
X166.432Y-116.205
X166.432Y-123.825
X171.45Y-40.005
X171.45Y-47.625
X171.45Y-78.105
X171.45Y-85.725
X176.123Y-97.155
X176.123Y-104.775
X180.975Y-59.055
X180.975Y-66.675
X185.759Y-116.205
X185.759Y-123.825
X190.5Y-40.005
X190.5Y-47.625
X190.5Y-78.105
X190.5Y-85.725
X195.173Y-97.155
X195.173Y-104.775
X200.025Y-59.055
X200.025Y-66.675
X204.809Y-116.205
X204.809Y-123.825
X209.55Y-40.005
X209.55Y-47.625
X209.55Y-78.105
X209.55Y-85.725
X214.223Y-97.155
X214.223Y-104.775
X218.978Y-135.255
X218.978Y-142.875
X219.075Y-59.055
X219.075Y-66.675
X223.859Y-116.205
X223.859Y-123.825
X228.6Y-40.005
X228.6Y-47.625
X228.6Y-78.105
X228.6Y-85.725
X233.273Y-97.155
X233.273Y-104.775
X238.125Y-59.055
X238.125Y-66.675
X242.809Y-135.255
X242.809Y-142.875
X242.909Y-116.205
X242.909Y-123.825
X247.65Y-78.105
X247.65Y-85.725
X252.323Y-97.155
X252.323Y-104.775
X257.175Y-40.005
X257.175Y-47.625
X257.175Y-59.055
X257.175Y-66.675
X261.936Y-116.205
X261.936Y-123.825
X266.7Y-78.105
X266.7Y-85.725
X266.7Y-135.255
X266.7Y-142.875
X271.373Y-97.155
X271.373Y-104.775
X276.225Y-40.005
X276.225Y-47.625
X276.225Y-59.055
X276.225Y-66.675
X285.75Y-78.105
X285.75Y-85.725
X290.528Y-135.255
X290.528Y-142.875
X295.275Y-40.005
X295.275Y-47.625
X304.8Y-59.055
X304.8Y-66.675
X314.324Y-116.205
X314.324Y-123.825
X314.325Y-40.005
X314.325Y-47.625
X314.325Y-78.105
X314.325Y-85.725
X314.325Y-96.25
X314.325Y-103.87
X314.325Y-135.255
X314.325Y-142.875
X333.375Y-40.005
X333.375Y-47.625
X333.375Y-59.055
X333.375Y-66.675
X333.375Y-78.105
X333.375Y-85.725
X333.375Y-135.255
X333.375Y-142.875
X352.425Y-40.005
X352.425Y-47.625
X352.425Y-59.051
X352.425Y-66.671
X352.425Y-78.105
X352.425Y-85.725
X352.425Y-116.205
X352.425Y-123.825
X352.425Y-135.255
X352.425Y-142.875
X371.475Y-40.005
X371.475Y-47.625
X371.475Y-59.055
X371.475Y-66.675
X371.475Y-78.101
X371.475Y-85.721
X371.475Y-135.255
X371.475Y-142.875
X390.525Y-40.005
X390.525Y-47.625
X390.525Y-59.055
X390.525Y-66.675
X390.525Y-78.105
X390.525Y-85.725
X390.525Y-97.155
X390.525Y-104.775
X390.525Y-116.205
X390.525Y-123.825
X409.575Y-40.005
X409.575Y-47.625
X409.575Y-59.055
X409.575Y-66.675
X409.575Y-78.105
X409.575Y-85.725
X409.575Y-97.155
X409.575Y-104.775
X409.575Y-116.205
X409.575Y-123.825
X409.575Y-135.255
X409.575Y-142.875
X427.41Y-135.255
X427.41Y-142.875
X427.84Y-93.97
X427.84Y-101.59
X428.625Y-40.005
X428.625Y-47.625
X428.625Y-59.055
X428.625Y-66.675
X428.625Y-78.105
X428.625Y-85.725
X428.625Y-116.205
X428.625Y-123.825
X447.675Y-40.005
X447.675Y-47.625
X447.675Y-59.055
X447.675Y-66.675
X447.675Y-78.105
X447.675Y-85.725
X447.675Y-116.205
X447.675Y-123.825
T3
X23.84Y-9.75
X23.84Y-27.53
X26.38Y-9.75
X26.38Y-27.53
X28.92Y-9.75
X28.92Y-27.53
X31.46Y-9.75
X31.46Y-27.53
X34.0Y-9.75
X34.0Y-27.53
X36.54Y-9.75
X36.54Y-27.53
X39.08Y-9.75
X39.08Y-27.53
X41.62Y-9.75
X41.62Y-27.53
X44.16Y-9.75
X44.16Y-27.53
X46.7Y-9.75
X46.7Y-27.53
X49.24Y-9.75
X49.24Y-27.53
X51.78Y-9.75
X51.78Y-27.53
X54.32Y-9.75
X54.32Y-27.53
X56.86Y-9.75
X56.86Y-27.53
X59.4Y-9.75
X59.4Y-27.53
X61.94Y-9.75
X61.94Y-27.53
X64.48Y-9.75
X64.48Y-27.53
X67.02Y-9.75
X67.02Y-27.53
X69.56Y-9.75
X69.56Y-27.53
X72.1Y-9.75
X72.1Y-27.53
T4
X34.29Y-35.56
X34.29Y-54.61
X36.549Y-130.81
X39.053Y-73.66
X40.64Y-33.02
X40.64Y-52.07
X41.335Y-92.71
X42.899Y-128.27
X45.403Y-71.12
X46.083Y-111.76
X47.685Y-90.17
X52.433Y-109.22
X53.34Y-54.61
X59.69Y-52.07
X60.372Y-130.81
X62.865Y-73.66
X66.722Y-128.27
X67.538Y-92.71
X69.215Y-71.12
X72.39Y-35.56
X72.39Y-54.61
X73.888Y-90.17
X77.174Y-111.76
X78.74Y-33.02
X78.74Y-52.07
X81.915Y-73.66
X83.524Y-109.22
X84.136Y-130.81
X86.588Y-92.71
X88.265Y-71.12
X90.486Y-128.27
X91.44Y-35.56
X91.44Y-54.61
X92.938Y-90.17
X96.224Y-111.76
X97.79Y-33.02
X97.79Y-52.07
X100.965Y-73.66
X102.574Y-109.22
X105.638Y-92.71
X107.315Y-71.12
X110.49Y-35.56
X110.49Y-54.61
X111.988Y-90.17
X115.274Y-111.76
X116.84Y-33.02
X116.84Y-52.07
X120.015Y-73.66
X121.624Y-109.22
X124.688Y-92.71
X126.365Y-71.12
X129.54Y-35.56
X129.54Y-54.61
X131.038Y-90.17
X134.324Y-111.76
X135.89Y-33.02
X135.89Y-52.07
X139.065Y-73.66
X140.674Y-109.22
X143.738Y-92.71
X145.415Y-71.12
X148.59Y-54.61
X150.088Y-90.17
X153.374Y-111.76
X154.94Y-52.07
X155.637Y-130.81
X158.115Y-35.56
X158.115Y-73.66
X159.724Y-109.22
X161.987Y-128.27
X162.788Y-92.71
X164.465Y-33.02
X164.465Y-71.12
X167.64Y-54.61
X169.138Y-90.17
X172.424Y-111.76
X173.99Y-52.07
X177.165Y-35.56
X177.165Y-73.66
X178.774Y-109.22
X181.838Y-92.71
X183.515Y-33.02
X183.515Y-71.12
X186.69Y-54.61
X188.188Y-90.17
X191.474Y-111.76
X193.04Y-52.07
X196.215Y-35.56
X196.215Y-73.66
X197.824Y-109.22
X200.888Y-92.71
X202.565Y-33.02
X202.565Y-71.12
X205.74Y-54.61
X207.238Y-90.17
X210.524Y-111.76
X212.09Y-52.07
X215.265Y-35.56
X215.265Y-73.66
X216.874Y-109.22
X219.938Y-92.71
X221.615Y-33.02
X221.615Y-71.12
X224.79Y-54.61
X226.288Y-90.17
X227.093Y-130.81
X229.574Y-111.76
X231.14Y-52.07
X233.443Y-128.27
X234.315Y-73.66
X235.924Y-109.22
X238.988Y-92.71
X240.665Y-71.12
X243.84Y-35.56
X243.84Y-54.61
X245.338Y-90.17
X248.624Y-111.76
X250.19Y-33.02
X250.19Y-52.07
X250.885Y-130.81
X253.365Y-73.66
X254.974Y-109.22
X257.235Y-128.27
X258.038Y-92.71
X259.715Y-71.12
X262.89Y-35.56
X262.89Y-54.61
X264.388Y-90.17
X269.24Y-33.02
X269.24Y-52.07
X272.415Y-73.66
X274.693Y-130.81
X278.765Y-71.12
X281.043Y-128.27
X281.94Y-35.56
X284.32Y-111.76
X288.29Y-33.02
X289.079Y-92.71
X290.67Y-109.22
X291.465Y-54.61
X295.429Y-90.17
X296.259Y-73.66
X297.815Y-52.07
X298.624Y-130.81
X300.99Y-35.56
X302.609Y-71.12
X304.974Y-128.27
X307.34Y-33.02
X320.04Y-35.56
X320.04Y-54.61
X320.04Y-73.66
X320.04Y-130.81
X326.39Y-33.02
X326.39Y-52.07
X326.39Y-71.12
X326.39Y-128.27
X339.09Y-35.56
X339.09Y-54.61
X339.09Y-73.656
X339.09Y-111.76
X339.09Y-130.81
X345.44Y-33.02
X345.44Y-52.07
X345.44Y-71.116
X345.44Y-109.22
X345.44Y-128.27
X358.14Y-35.56
X358.14Y-54.61
X358.14Y-73.66
X358.14Y-130.81
X364.49Y-33.02
X364.49Y-52.07
X364.49Y-71.12
X364.49Y-128.27
X377.19Y-35.56
X377.19Y-54.61
X377.19Y-73.66
X377.19Y-92.71
X377.19Y-111.76
X383.54Y-33.02
X383.54Y-52.07
X383.54Y-71.12
X383.54Y-90.17
X383.54Y-109.22
X386.715Y-130.81
X393.065Y-128.27
X396.24Y-35.56
X396.24Y-54.61
X396.24Y-73.66
X396.24Y-92.71
X396.24Y-111.76
X402.59Y-33.02
X402.59Y-52.07
X402.59Y-71.12
X402.59Y-90.17
X402.59Y-109.22
X415.29Y-35.56
X415.29Y-54.61
X415.29Y-73.66
X415.29Y-92.71
X415.29Y-111.76
X415.29Y-130.81
X421.64Y-33.02
X421.64Y-52.07
X421.64Y-71.12
X421.64Y-90.17
X421.64Y-109.22
X421.64Y-128.27
X433.07Y-83.185
X433.07Y-121.285
X434.34Y-35.56
X434.34Y-54.61
X435.61Y-89.535
X435.61Y-127.635
X440.69Y-33.02
X440.69Y-52.07
M30
